{"glyphs":{"0":{"ha":0,"x_min":0,"x_max":0,"o":"b 102 649 116 488 102 583 b -403 583 9 650 -195 650 b -491 326 -491 488 -492 393 b NaN NaN -403 327 -195 NaN "},"1":{"ha":-182,"x_min":0,"x_max":0,"o":"m 541 982 l 302 982 l 60 834 l 60 613 l 277 743 l 282 743 l 282 0 l 541 0 z "},"2":{"ha":0,"x_min":0,"x_max":0,"o":"l 9 66 b 401 348 231 253 287 349 b 220 -137 330 302 283 228 l -86 NaN "},"3":{"ha":0,"x_min":0,"x_max":0,"o":""},"4":{"ha":0,"x_min":0,"x_max":0,"o":""},"5":{"ha":39,"x_min":0,"x_max":0,"o":"m 456 -14 b 848 336 692 -14 848 132 b 541 655 848 523 718 655 b 332 555 444 655 364 612 l 327 555 l 347 776 l 787 776 l 787 982 l 134 982 z "},"6":{"ha":60,"x_min":0,"x_max":0,"o":"m 473 -14 b 864 336 704 -14 865 127 b 566 648 865 517 743 648 b 313 505 453 648 352 595 l 308 505 b 476 776 309 668 361 776 b 598 692 535 776 585 749 l 852 692 b 476 996 835 859 690 996 b 52 479 220 996 52 798 b 473 -14 50 121 248 -14 z m 331 327 b 472 472 331 410 391 472 b 613 327 554 472 614 411 b 472 183 614 244 554 182 b 331 327 391 182 331 244 z "},"7":{"ha":-39,"x_min":0,"x_max":0,"o":"m 110 0 l 376 0 l 768 774 l 768 982 l 43 982 l 43 776 l 499 776 l 499 769 z "},"8":{"ha":67,"x_min":0,"x_max":0,"o":"m 464 -14 b 872 266 700 -14 872 107 b 646 505 872 388 771 486 l 646 513 b 836 730 755 532 836 620 b 464 996 836 882 678 996 b 91 730 249 996 92 883 b 281 513 92 620 170 532 l 281 505 b 54 266 154 486 55 388 b 464 -14 55 107 227 -14 z m 328 296 b 464 416 328 366 385 416 b 600 296 542 416 600 366 b 464 174 600 225 543 174 b 328 296 385 174 328 226 z m 345 700 b 464 808 344 764 394 808 b 583 700 533 808 583 763 b 464 589 583 636 533 589 b 345 700 394 589 344 636 z "},"9":{"ha":60,"x_min":0,"x_max":0,"o":"m 448 996 b 57 647 216 996 56 855 b 355 338 58 469 178 338 b 606 481 467 338 568 391 l 613 481 b 445 206 612 313 559 206 b 323 294 385 206 336 233 l 68 294 b 445 -14 85 123 229 -14 b 869 507 701 -14 870 184 b 448 996 868 861 673 996 z m 308 656 b 449 799 307 738 367 800 b 590 656 530 800 589 737 b 449 514 591 576 530 514 b 308 656 366 514 309 576 z "}," ":{"ha":-558,"x_min":0,"x_max":0,"o":""},"A":{"ha":0,"x_min":0,"x_max":0,"o":""},"Á":{"ha":0,"x_min":0,"x_max":0,"o":""},"Ă":{"ha":0,"x_min":0,"x_max":0,"o":""},"Ắ":{"ha":0,"x_min":0,"x_max":0,"o":""},"Ặ":{"ha":0,"x_min":0,"x_max":0,"o":""},"Ằ":{"ha":0,"x_min":0,"x_max":0,"o":""},"Ẳ":{"ha":0,"x_min":0,"x_max":0,"o":""},"Ẵ":{"ha":0,"x_min":0,"x_max":0,"o":""},"Ǎ":{"ha":0,"x_min":0,"x_max":0,"o":""},"Â":{"ha":0,"x_min":0,"x_max":0,"o":""},"Ấ":{"ha":0,"x_min":0,"x_max":0,"o":""},"Ậ":{"ha":0,"x_min":0,"x_max":0,"o":""},"Ầ":{"ha":0,"x_min":0,"x_max":0,"o":""},"Ẩ":{"ha":0,"x_min":0,"x_max":0,"o":""},"Ẫ":{"ha":0,"x_min":0,"x_max":0,"o":""},"Ȁ":{"ha":204,"x_min":0,"x_max":0,"o":"m -147 902 "},"Ä":{"ha":0,"x_min":0,"x_max":0,"o":""},"Ǟ":{"ha":0,"x_min":0,"x_max":0,"o":""},"Ạ":{"ha":0,"x_min":0,"x_max":0,"o":""},"Ǡ":{"ha":0,"x_min":0,"x_max":0,"o":""},"À":{"ha":0,"x_min":0,"x_max":0,"o":""},"Ả":{"ha":0,"x_min":0,"x_max":0,"o":""},"Ȃ":{"ha":0,"x_min":0,"x_max":0,"o":""},"Ā":{"ha":0,"x_min":0,"x_max":0,"o":""},"Ą":{"ha":-16,"x_min":0,"x_max":0,"o":"l 204 0 l 204 12 "},"Å":{"ha":0,"x_min":0,"x_max":0,"o":""},"Ǻ":{"ha":0,"x_min":0,"x_max":0,"o":""},"Ḁ":{"ha":0,"x_min":0,"x_max":0,"o":""},"Ã":{"ha":0,"x_min":0,"x_max":0,"o":""},"Æ":{"ha":561,"x_min":0,"x_max":0,"o":""},"Ǽ":{"ha":0,"x_min":0,"x_max":0,"o":""},"Ǣ":{"ha":561,"x_min":0,"x_max":0,"o":""},"B":{"ha":0,"x_min":0,"x_max":0,"o":""},"Ḃ":{"ha":0,"x_min":0,"x_max":0,"o":""},"Ḅ":{"ha":0,"x_min":0,"x_max":0,"o":""},"Ɓ":{"ha":359,"x_min":0,"x_max":0,"o":"m 368 776 l 368 795 l -408 795 l -408 355 l -182 355 l -182 425 b -79 549 -182 482 -160 549 "},"Ḇ":{"ha":0,"x_min":0,"x_max":0,"o":""},"Ƃ":{"ha":0,"x_min":0,"x_max":0,"o":""},"C":{"ha":173,"x_min":0,"x_max":0,"o":""},"Ć":{"ha":0,"x_min":0,"x_max":0,"o":""},"Č":{"ha":0,"x_min":0,"x_max":0,"o":""},"Ç":{"ha":0,"x_min":0,"x_max":0,"o":""},"Ḉ":{"ha":0,"x_min":0,"x_max":0,"o":""},"Ĉ":{"ha":0,"x_min":0,"x_max":0,"o":""},"Ċ":{"ha":0,"x_min":0,"x_max":0,"o":""},"Ƈ":{"ha":321,"x_min":0,"x_max":0,"o":"m 975 617 l 975 677 b 1123 812 976 779 1062 812 b 1194 811 1140 812 1175 810 l 1194 1016 b 1078 1021 1149 1021 1118 1021 b 806 920 972 1021 872 987 "},"D":{"ha":127,"x_min":0,"x_max":0,"o":""},"Ǳ":{"ha":1059,"x_min":0,"x_max":0,"o":"m 625 -220 l 1420 -220 l 1420 -11 l 954 -11 l 1421 618 l 954 -11 z "},"Ð":{"ha":0,"x_min":0,"x_max":0,"o":""},"Ɖ":{"ha":0,"x_min":0,"x_max":0,"o":""},"Ď":{"ha":0,"x_min":0,"x_max":0,"o":""},"Ḑ":{"ha":0,"x_min":0,"x_max":0,"o":""},"Ḓ":{"ha":0,"x_min":0,"x_max":0,"o":""},"Đ":{"ha":0,"x_min":0,"x_max":0,"o":""},"Ḋ":{"ha":0,"x_min":0,"x_max":0,"o":""},"Ḍ":{"ha":0,"x_min":0,"x_max":0,"o":""},"Ɗ":{"ha":448,"x_min":0,"x_max":0,"o":"m 38 696 l 38 582 l 264 582 l 264 651 b 368 762 264 709 286 762 l 388 762 l 388 0 l 761 0 l 370 0 b 41 -286 168 0 39 -104 "},"Ḏ":{"ha":0,"x_min":0,"x_max":0,"o":""},"Ƌ":{"ha":75,"x_min":0,"x_max":0,"o":"m 490 0 l 856 0 l 856 989 l 171 989 l 171 784 l 605 784 l 605 648 l 490 648 b 81 328 244 648 81 520 b 490 0 81 135 244 0 z m 332 330 b 490 450 332 398 389 450 l 605 450 l 605 199 l 490 199 b 332 330 389 200 332 257 z "},"ǲ":{"ha":922,"x_min":0,"x_max":0,"o":"m 632 -220 z "},"ǅ":{"ha":922,"x_min":0,"x_max":0,"o":"m 632 -220 "},"E":{"ha":-24,"x_min":0,"x_max":0,"o":""},"É":{"ha":0,"x_min":0,"x_max":0,"o":""},"Ĕ":{"ha":0,"x_min":0,"x_max":0,"o":""},"Ě":{"ha":0,"x_min":0,"x_max":0,"o":""},"Ḝ":{"ha":-24,"x_min":0,"x_max":0,"o":"m 66 0 "},"Ê":{"ha":0,"x_min":0,"x_max":0,"o":""},"Ế":{"ha":0,"x_min":0,"x_max":0,"o":""},"Ḙ":{"ha":0,"x_min":0,"x_max":0,"o":""},"Ệ":{"ha":0,"x_min":0,"x_max":0,"o":""},"Ề":{"ha":-24,"x_min":0,"x_max":0,"o":""},"Ể":{"ha":0,"x_min":0,"x_max":0,"o":""},"Ễ":{"ha":-24,"x_min":0,"x_max":0,"o":""},"Ȅ":{"ha":0,"x_min":0,"x_max":0,"o":""},"Ë":{"ha":0,"x_min":0,"x_max":0,"o":""},"Ė":{"ha":0,"x_min":0,"x_max":0,"o":""},"Ẹ":{"ha":0,"x_min":0,"x_max":0,"o":""},"È":{"ha":0,"x_min":0,"x_max":0,"o":""},"Ẻ":{"ha":0,"x_min":0,"x_max":0,"o":""},"Ȇ":{"ha":0,"x_min":0,"x_max":0,"o":""},"Ē":{"ha":-24,"x_min":0,"x_max":0,"o":""},"Ḗ":{"ha":0,"x_min":0,"x_max":0,"o":""},"Ḕ":{"ha":-24,"x_min":0,"x_max":0,"o":"m 107 499 l 274 317 z "},"Ę":{"ha":-24,"x_min":0,"x_max":0,"o":"m 66 0 l 500 0 l 500 -16 l 460 -16 l 460 -18 l 407 -18 l 407 -4 l 359 -4 l 359 205 l -83 205 l -83 648 l 126 648 l 126 -53 z "},"Ɛ":{"ha":75,"x_min":0,"x_max":0,"o":"m 73 277 b 475 -14 73 90 220 -14 b 861 267 701 -14 861 100 l 609 267 b 465 187 608 216 559 186 b 326 293 376 186 326 215 b 465 406 326 366 367 405 l 593 406 l 593 594 l 465 594 b 340 694 380 594 341 629 b 473 793 341 762 382 793 b 595 719 553 793 595 770 l 846 719 b 475 996 845 880 689 996 b 90 711 233 996 89 890 b 245 503 89 618 149 543 b 73 277 135 465 73 387 z "},"Ʃ":{"ha":0,"x_min":0,"x_max":0,"o":""},"Ẽ":{"ha":0,"x_min":0,"x_max":0,"o":""},"Ḛ":{"ha":0,"x_min":0,"x_max":0,"o":""},"Ǝ":{"ha":-24,"x_min":0,"x_max":0,"o":"m 770 982 l 71 982 l 71 773 l 513 773 l 513 595 l 106 595 l 106 387 l 513 387 l 513 209 l 69 209 l 69 0 l 770 0 z "},"Ə":{"ha":203,"x_min":0,"x_max":0,"o":"m 524 -14 b 974 412 794 -14 975 163 l 974 566 b 484 996 975 817 806 996 b 151 952 345 996 182 965 l 186 738 b 453 770 243 753 355 770 b 724 574 673 770 722 682 l 90 574 l 90 446 b 524 -14 90 164 254 -14 z m 340 347 l 340 366 l 721 366 b 524 210 707 276 648 210 b 340 347 404 210 340 269 z "},"Ʒ":{"ha":68,"x_min":0,"x_max":0,"o":""},"Ǯ":{"ha":0,"x_min":0,"x_max":0,"o":""},"Ƹ":{"ha":68,"x_min":0,"x_max":0,"o":"m 891 88 l 631 88 b 469 -77 627 -11 559 -77 b 304 140 363 -77 304 14 b 487 368 304 281 380 368 l 612 368 l 612 548 l 369 762 l 369 769 l 837 769 l 837 982 l 57 982 l 57 796 l 361 532 l 361 522 b 33 144 162 501 33 352 b 465 -292 33 -109 214 -292 b 891 88 709 -292 887 -133 z "},"F":{"ha":-73,"x_min":0,"x_max":0,"o":"m 66 0 l 324 0 l 324 387 z "},"Ḟ":{"ha":-73,"x_min":0,"x_max":0,"o":"m 66 0 l 324 0 l 324 387 "},"Ƒ":{"ha":-26,"x_min":0,"x_max":0,"o":"m 113 0 l 113 -26 b 12 -83 113 -72 62 -82 b -31 -81 2 -82 -17 -84 l -31 -273 b 80 -277 -3 -276 55 -276 b 372 -26 220 -276 372 -252 l 372 387 l 755 387 l 755 595 l 372 595 l 372 773 l 799 773 l 799 982 l 114 982 l 114 0 z "},"G":{"ha":180,"x_min":0,"x_max":0,"o":""},"Ǵ":{"ha":0,"x_min":0,"x_max":0,"o":""},"Ǥ":{"ha":180,"x_min":0,"x_max":0,"o":"m 1010 328 l 972 328 b 978 411 976 355 978 382 l 978 545 l 547 545 l 547 361 l 728 361 b 725 328 728 349 727 338 l 547 328 l 547 267 l 695 267 b 640 185 695 237 660 185 b 654 203 568 185 654 244 b NaN NaN 654 133 672 NaN l NaN NaN b NaN NaN NaN NaN NaN NaN b NaN NaN NaN NaN NaN NaN b NaN NaN NaN NaN NaN NaN l NaN NaN z "},"Ğ":{"ha":0,"x_min":0,"x_max":0,"o":""},"Ǧ":{"ha":0,"x_min":0,"x_max":0,"o":""},"Ĝ":{"ha":0,"x_min":0,"x_max":0,"o":""},"Ģ":{"ha":0,"x_min":0,"x_max":0,"o":""},"Ġ":{"ha":0,"x_min":0,"x_max":0,"o":""},"Ɠ":{"ha":313,"x_min":0,"x_max":0,"o":"m 967 659 l 967 836 b 1105 929 967 918 1035 929 b 1175 924 1128 929 1150 926 l 1175 1124 b 1059 1139 1131 1134 1097 1139 b 728 960 920 1139 784 1077 b 684 918 728 983 671 918 b 697 939 615 918 697 975 b NaN NaN 697 874 718 NaN l NaN NaN z "},"Ḡ":{"ha":180,"x_min":0,"x_max":0,"o":""},"Ȝ":{"ha":74,"x_min":0,"x_max":0,"o":"m 161 391 l 161 202 b 559 334 328 243 458 286 b 601 240 590 323 602 294 b 161 -90 602 81 437 -39 l 161 -288 b 852 235 576 -244 852 -40 b 728 444 852 330 806 403 b 838 701 806 517 838 600 b 456 996 838 903 694 996 b 83 718 237 996 82 881 l 332 718 b 456 796 332 766 379 795 b 590 666 548 795 590 759 b 161 391 590 544 509 493 z "},"H":{"ha":150,"x_min":0,"x_max":0,"o":""},"Ħ":{"ha":258,"x_min":0,"x_max":0,"o":"m 1081 833 l 1000 833 l 1000 982 l 741 982 l 741 833 l 378 833 l 378 982 l 121 982 l 121 833 l 38 833 l 38 708 l 121 708 l 121 0 l 378 0 l 378 387 l 741 387 l 741 0 l 1000 0 l 1000 708 l 1081 708 z m 378 595 l 378 708 l 741 708 l 741 595 z "},"Ḫ":{"ha":0,"x_min":0,"x_max":0,"o":""},"Ḩ":{"ha":150,"x_min":0,"x_max":0,"o":"m 66 0 z "},"Ĥ":{"ha":0,"x_min":0,"x_max":0,"o":""},"Ḧ":{"ha":0,"x_min":0,"x_max":0,"o":""},"Ḣ":{"ha":0,"x_min":0,"x_max":0,"o":""},"Ḥ":{"ha":0,"x_min":0,"x_max":0,"o":""},"I":{"ha":-470,"x_min":0,"x_max":0,"o":""},"Ĳ":{"ha":0,"x_min":0,"x_max":0,"o":""},"Í":{"ha":0,"x_min":0,"x_max":0,"o":""},"Ĭ":{"ha":0,"x_min":0,"x_max":0,"o":""},"Ǐ":{"ha":0,"x_min":0,"x_max":0,"o":""},"Î":{"ha":0,"x_min":0,"x_max":0,"o":""},"Ȉ":{"ha":0,"x_min":0,"x_max":0,"o":""},"Ï":{"ha":0,"x_min":0,"x_max":0,"o":""},"Ḯ":{"ha":0,"x_min":0,"x_max":0,"o":""},"İ":{"ha":0,"x_min":0,"x_max":0,"o":""},"Ị":{"ha":0,"x_min":0,"x_max":0,"o":""},"Ì":{"ha":-470,"x_min":0,"x_max":0,"o":""},"Ỉ":{"ha":-470,"x_min":0,"x_max":0,"o":""},"Ȋ":{"ha":-470,"x_min":0,"x_max":0,"o":""},"Ī":{"ha":-470,"x_min":0,"x_max":0,"o":""},"Į":{"ha":-470,"x_min":0,"x_max":0,"o":"m 324 982 l 66 982 l 66 17 z "},"Ɩ":{"ha":-387,"x_min":0,"x_max":0,"o":""},"Ɨ":{"ha":-470,"x_min":0,"x_max":0,"o":"m 324 982 l 66 982 l 66 594 l -388 594 l -388 852 l 66 852 z "},"Ĩ":{"ha":-267,"x_min":0,"x_max":0,"o":"m 425 982 "},"Ḭ":{"ha":0,"x_min":0,"x_max":0,"o":""},"J":{"ha":0,"x_min":0,"x_max":0,"o":""},"Ĵ":{"ha":-71,"x_min":0,"x_max":0,"o":"m 469 982 l 469 308 l 1143 308 "},"K":{"ha":98,"x_min":0,"x_max":0,"o":""},"Ḱ":{"ha":0,"x_min":0,"x_max":0,"o":""},"Ǩ":{"ha":0,"x_min":0,"x_max":0,"o":""},"Ķ":{"ha":0,"x_min":0,"x_max":0,"o":""},"Ḳ":{"ha":0,"x_min":0,"x_max":0,"o":""},"Ƙ":{"ha":168,"x_min":0,"x_max":0,"o":"m 66 0 l 324 0 l 324 216 l 444 339 l 701 0 l 1010 0 l 609 522 l 812 730 b 944 766 854 772 883 794 l 1020 947 b 623 887 871 1029 736 1004 l 338 597 l 324 597 l 324 982 l 66 982 z "},"Ḵ":{"ha":98,"x_min":0,"x_max":0,"o":""},"L":{"ha":-92,"x_min":0,"x_max":0,"o":""},"Ǉ":{"ha":0,"x_min":0,"x_max":0,"o":""},"Ĺ":{"ha":0,"x_min":0,"x_max":0,"o":""},"Ƚ":{"ha":-92,"x_min":0,"x_max":0,"o":"m 66 0 l 724 0 l 724 209 l 324 209 l 324 454 l 712 454 l 712 197 l 324 197 z "},"Ľ":{"ha":0,"x_min":0,"x_max":0,"o":""},"Ḽ":{"ha":0,"x_min":0,"x_max":0,"o":""},"Ļ":{"ha":0,"x_min":0,"x_max":0,"o":""},"Ŀ":{"ha":-66,"x_min":0,"x_max":0,"o":"m 72 0 l 730 0 "},"Ḷ":{"ha":0,"x_min":0,"x_max":0,"o":""},"Ḹ":{"ha":0,"x_min":0,"x_max":0,"o":""},"ǈ":{"ha":0,"x_min":0,"x_max":0,"o":""},"Ḻ":{"ha":-92,"x_min":0,"x_max":0,"o":""},"Ł":{"ha":-54,"x_min":0,"x_max":0,"o":"m 490 647 l 389 621 l 389 982 l 132 982 l 132 553 l 14 522 l 14 393 l 132 424 l 132 0 l 789 0 l 789 209 l 389 209 l 389 491 l 490 517 z "},"M":{"ha":394,"x_min":0,"x_max":0,"o":""},"Ḿ":{"ha":0,"x_min":0,"x_max":0,"o":""},"Ṁ":{"ha":0,"x_min":0,"x_max":0,"o":""},"Ṃ":{"ha":0,"x_min":0,"x_max":0,"o":""},"N":{"ha":117,"x_min":0,"x_max":0,"o":""},"Ǌ":{"ha":0,"x_min":0,"x_max":0,"o":""},"Ń":{"ha":0,"x_min":0,"x_max":0,"o":""},"Ň":{"ha":0,"x_min":0,"x_max":0,"o":""},"Ṋ":{"ha":0,"x_min":0,"x_max":0,"o":""},"Ņ":{"ha":0,"x_min":0,"x_max":0,"o":""},"Ṅ":{"ha":0,"x_min":0,"x_max":0,"o":""},"Ṇ":{"ha":0,"x_min":0,"x_max":0,"o":""},"Ɲ":{"ha":150,"x_min":0,"x_max":0,"o":"m 99 982 l 99 -26 b -1 -83 99 -72 48 -82 b -45 -81 -12 -82 -31 -84 l -45 -273 b 68 -277 -18 -276 41 -276 b 357 -26 205 -276 357 -252 l 357 530 l 363 530 l 728 0 l 944 0 l 944 982 l 686 982 l 686 454 l 678 454 l 319 982 z "},"ǋ":{"ha":0,"x_min":0,"x_max":0,"o":""},"Ṉ":{"ha":117,"x_min":0,"x_max":0,"o":""},"Ñ":{"ha":0,"x_min":0,"x_max":0,"o":""},"Ŋ":{"ha":117,"x_min":0,"x_max":0,"o":"m 694 0 l 694 -23 b 581 -110 695 -77 651 -109 b 490 -100 549 -109 514 -106 l 490 -286 b 570 -300 515 -295 545 -300 b 911 -18 781 -300 911 -238 l 911 982 l 654 982 l 654 454 l 646 454 z "},"O":{"ha":210,"x_min":0,"x_max":0,"o":""},"Ƣ":{"ha":455,"x_min":0,"x_max":0,"o":"m 903 118 l 903 629 l 1010 680 l 1010 -277 l 1249 -277 l 1249 982 l 1070 982 l 875 890 b 518 996 809 941 684 996 b 60 528 229 996 60 825 l 60 454 b 517 -14 60 159 229 -14 b 903 118 709 -14 849 62 z m 316 454 l 316 528 b 528 796 316 699 357 795 b 661 762 576 795 629 787 l 661 221 b 525 187 636 204 589 186 b 316 454 364 186 316 294 z "},"Ó":{"ha":0,"x_min":0,"x_max":0,"o":""},"Ɵ":{"ha":0,"x_min":0,"x_max":0,"o":""},"Ŏ":{"ha":0,"x_min":0,"x_max":0,"o":""},"Ǒ":{"ha":0,"x_min":0,"x_max":0,"o":""},"Ô":{"ha":0,"x_min":0,"x_max":0,"o":""},"Ố":{"ha":0,"x_min":0,"x_max":0,"o":""},"Ộ":{"ha":0,"x_min":0,"x_max":0,"o":""},"Ồ":{"ha":0,"x_min":0,"x_max":0,"o":""},"Ổ":{"ha":0,"x_min":0,"x_max":0,"o":""},"Ỗ":{"ha":210,"x_min":0,"x_max":0,"o":""},"Ȍ":{"ha":0,"x_min":0,"x_max":0,"o":""},"Ö":{"ha":0,"x_min":0,"x_max":0,"o":""},"Ọ":{"ha":0,"x_min":0,"x_max":0,"o":""},"Ò":{"ha":0,"x_min":0,"x_max":0,"o":""},"Ỏ":{"ha":0,"x_min":0,"x_max":0,"o":""},"Ơ":{"ha":267,"x_min":0,"x_max":0,"o":""},"Ớ":{"ha":0,"x_min":0,"x_max":0,"o":""},"Ợ":{"ha":0,"x_min":0,"x_max":0,"o":""},"Ờ":{"ha":0,"x_min":0,"x_max":0,"o":""},"Ở":{"ha":0,"x_min":0,"x_max":0,"o":""},"Ỡ":{"ha":0,"x_min":0,"x_max":0,"o":""},"Ő":{"ha":0,"x_min":0,"x_max":0,"o":""},"Ȏ":{"ha":0,"x_min":0,"x_max":0,"o":""},"Ō":{"ha":0,"x_min":0,"x_max":0,"o":""},"Ṓ":{"ha":0,"x_min":0,"x_max":0,"o":""},"Ṑ":{"ha":210,"x_min":0,"x_max":0,"o":"m -720 990 l -553 808 "},"Ǫ":{"ha":210,"x_min":0,"x_max":0,"o":"m -685 0 z "},"Ǭ":{"ha":0,"x_min":0,"x_max":0,"o":""},"Ɔ":{"ha":173,"x_min":0,"x_max":0,"o":""},"Ø":{"ha":210,"x_min":0,"x_max":0,"o":""},"Ǿ":{"ha":0,"x_min":0,"x_max":0,"o":""},"Õ":{"ha":0,"x_min":0,"x_max":0,"o":""},"Ṍ":{"ha":0,"x_min":0,"x_max":0,"o":"l 210 0 l 210 -707 l 781 -707 l 781 -685 l 210 -685 l 210 -578 l 1018 -578 l 1018 -789 "},"Ṏ":{"ha":210,"x_min":0,"x_max":0,"o":"m -720 853 z m -719 1451 b -618 1371 -720 1405 -677 1371 b -481 552 -559 1371 -516 1405 b -314 511 -422 551 -387 511 b -203 629 -251 511 -203 566 l -302 658 b -341 602 -302 627 -320 602 b -508 643 -397 602 -450 643 b -618 524 -574 643 -618 585 "},"Œ":{"ha":564,"x_min":0,"x_max":0,"o":"m 514 0 l 1352 0 l 1352 209 l 910 209 l 910 387 l 1317 387 l 1317 595 l 910 595 l 910 773 l 1354 773 l 1354 982 l 514 982 b 60 490 260 982 60 823 b 514 0 60 158 260 0 z m 321 490 b 514 773 321 705 403 773 l 652 773 l 652 209 l 514 209 b 321 490 403 209 321 272 z "},"P":{"ha":22,"x_min":0,"x_max":0,"o":"m 66 0 z "},"Ṕ":{"ha":22,"x_min":0,"x_max":0,"o":"m 66 0 "},"Ṗ":{"ha":22,"x_min":0,"x_max":0,"o":"m 66 0 "},"Ƥ":{"ha":342,"x_min":0,"x_max":0,"o":"m 264 582 l 264 651 b 368 776 264 709 286 775 l 387 776 l 387 0 l 644 0 l 644 296 l 796 296 l 796 519 l 795 519 l 795 667 l 928 667 l 928 878 l 491 878 "},"Þ":{"ha":0,"x_min":0,"x_max":0,"o":""},"Q":{"ha":212,"x_min":0,"x_max":0,"o":"m 445 361 l 557 212 b 536 212 550 212 543 212 b 490 16 536 129 520 63 l 438 81 b -19 198 -149 81 -19 141 b NaN 260 -19 207 -1 260 l NaN 172 l NaN 172 l NaN 352 b NaN 737 NaN 437 NaN 567 z "},"Ɋ":{"ha":296,"x_min":0,"x_max":0,"o":"m 1000 -26 l 1000 982 l 743 982 l 743 844 l 735 844 b 469 996 688 924 602 996 b 60 491 239 996 60 772 b 469 -14 60 212 233 -14 b 735 140 601 -14 688 57 l 743 140 l 743 -26 b 1029 -277 743 -238 871 -276 b 1158 -269 1088 -276 1130 -271 l 1158 -79 b 1100 -83 1137 -81 1118 -82 b 1000 -26 1051 -82 1000 -72 z m 326 491 b 534 770 326 671 399 770 b 743 491 671 770 743 670 b 534 212 743 312 671 212 b 326 491 399 212 326 311 z "},"R":{"ha":37,"x_min":0,"x_max":0,"o":""},"Ŕ":{"ha":0,"x_min":0,"x_max":0,"o":""},"Ř":{"ha":0,"x_min":0,"x_max":0,"o":""},"Ŗ":{"ha":0,"x_min":0,"x_max":0,"o":""},"Ȑ":{"ha":0,"x_min":0,"x_max":0,"o":""},"Ṙ":{"ha":0,"x_min":0,"x_max":0,"o":""},"Ṛ":{"ha":0,"x_min":0,"x_max":0,"o":""},"Ṝ":{"ha":0,"x_min":0,"x_max":0,"o":""},"Ȓ":{"ha":0,"x_min":0,"x_max":0,"o":""},"Ṟ":{"ha":0,"x_min":0,"x_max":0,"o":""},"S":{"ha":36,"x_min":0,"x_max":0,"o":""},"Ś":{"ha":0,"x_min":0,"x_max":0,"o":""},"Ṥ":{"ha":36,"x_min":0,"x_max":0,"o":"m 198 -140 l -198 -140 l -198 396 l -80 396 l 53 562 l -98 562 z "},"Š":{"ha":0,"x_min":0,"x_max":0,"o":""},"Ṧ":{"ha":36,"x_min":0,"x_max":0,"o":""},"Ş":{"ha":226,"x_min":0,"x_max":0,"o":"b -298 956 36 595 -187 736 b NaN NaN -315 937 -399 964 l NaN NaN "},"Ŝ":{"ha":0,"x_min":0,"x_max":0,"o":""},"Ș":{"ha":0,"x_min":0,"x_max":0,"o":""},"Ṡ":{"ha":0,"x_min":0,"x_max":0,"o":""},"Ṣ":{"ha":0,"x_min":0,"x_max":0,"o":""},"Ṩ":{"ha":0,"x_min":0,"x_max":0,"o":""},"ẞ":{"ha":134,"x_min":0,"x_max":0,"o":"m 66 643 l 66 0 l 324 0 l 324 643 b 439 798 324 738 366 798 b 620 738 507 798 574 774 l 449 570 l 449 433 l 536 433 b 711 289 640 433 711 382 b 570 183 711 223 658 182 b 426 213 528 182 473 195 l 358 30 b 593 -14 418 4 514 -14 b 954 289 805 -14 954 111 b 704 575 954 430 851 547 l 922 814 b 439 996 780 920 582 996 b 66 643 219 996 66 851 z "},"T":{"ha":62,"x_min":0,"x_max":0,"o":""},"Ŧ":{"ha":62,"x_min":0,"x_max":0,"o":"m 38 773 l 334 773 l 334 518 l 203 518 l 203 378 l 334 378 l 334 0 l 589 0 l 589 378 l 715 378 l 715 518 l 589 518 l 589 773 l 884 773 l 884 982 l 38 982 z "},"Ť":{"ha":0,"x_min":0,"x_max":0,"o":""},"Ṱ":{"ha":0,"x_min":0,"x_max":0,"o":""},"Ţ":{"ha":62,"x_min":0,"x_max":0,"o":"m 38 773 l 334 773 l 334 0 l 410 0 l 410 85 l 1183 85 l 1183 380 l 1392 380 l 1392 -466 z "},"Ṫ":{"ha":0,"x_min":0,"x_max":0,"o":""},"Ṭ":{"ha":0,"x_min":0,"x_max":0,"o":""},"Ƭ":{"ha":104,"x_min":0,"x_max":0,"o":"m 928 982 l 349 982 b 38 694 144 982 37 875 l 38 579 l 247 579 l 247 648 b 349 773 246 709 263 773 l 377 773 l 377 0 l 631 0 l 631 773 l 928 773 z "},"Ṯ":{"ha":62,"x_min":0,"x_max":0,"o":""},"Ƽ":{"ha":28,"x_min":0,"x_max":0,"o":"m 823 982 l 49 982 l 49 776 l 156 776 b -250 1168 129 776 -250 1013 b NaN 1313 -250 1314 -45 1313 b NaN 1632 NaN 1499 NaN 1632 b NaN 1531 NaN 1632 NaN 1589 l NaN 1531 l NaN 1752 l NaN 1752 z "},"Ƅ":{"ha":237,"x_min":0,"x_max":0,"o":"m 537 982 l 38 982 l 38 773 l 278 773 l 278 0 l 646 0 b 1053 328 890 0 1053 134 b 646 648 1053 522 890 648 l 537 648 z m 537 203 l 537 450 l 646 450 b 796 330 743 450 796 398 b 646 203 796 257 743 203 z "},"Ƨ":{"ha":36,"x_min":0,"x_max":0,"o":"m 53 678 l 301 678 b 438 783 307 744 350 783 b 563 704 523 783 562 749 b 427 606 565 653 519 625 l 346 587 b 39 289 135 543 41 440 b 437 -12 41 96 189 -12 b 857 340 690 -12 855 98 l 610 340 b 441 201 606 249 543 201 b 304 289 352 201 304 237 b 454 388 304 336 345 364 l 553 410 b 831 685 726 448 832 533 b 438 996 833 871 669 996 b 53 678 203 996 55 869 z "},"Ʈ":{"ha":62,"x_min":0,"x_max":0,"o":"m 589 -26 l 589 773 l 884 773 l 884 982 l 38 982 l 38 773 l 334 773 l 334 -24 b 618 -277 334 -251 479 -276 l 731 -277 l 731 -84 l 688 -84 b 589 -26 640 -84 589 -72 z "},"U":{"ha":115,"x_min":0,"x_max":0,"o":""},"Ú":{"ha":0,"x_min":0,"x_max":0,"o":""},"Ŭ":{"ha":0,"x_min":0,"x_max":0,"o":""},"Ǔ":{"ha":0,"x_min":0,"x_max":0,"o":""},"Û":{"ha":0,"x_min":0,"x_max":0,"o":""},"Ṷ":{"ha":0,"x_min":0,"x_max":0,"o":""},"Ȕ":{"ha":0,"x_min":0,"x_max":0,"o":""},"Ü":{"ha":0,"x_min":0,"x_max":0,"o":""},"Ǘ":{"ha":0,"x_min":0,"x_max":0,"o":""},"Ṳ":{"ha":115,"x_min":0,"x_max":0,"o":"m 378 0 z "},"Ǚ":{"ha":115,"x_min":0,"x_max":0,"o":"m 283 0 b 465 -665 283 -712 720 -665 b 461 -640 420 -665 461 -701 b 553 -549 461 -583 506 -548 b 451 -467 553 -503 508 -468 b 349 -549 391 -468 349 -504 z "},"Ǜ":{"ha":115,"x_min":0,"x_max":0,"o":"m 69 201 l -597 388 l -475 275 l -354 275 l -441 388 z m -382 187 b -281 106 -384 140 -338 106 b -179 187 -220 106 -180 142 b -281 269 -180 232 -221 268 b -382 187 -338 268 -384 233 z "},"Ǖ":{"ha":0,"x_min":0,"x_max":0,"o":""},"Ụ":{"ha":0,"x_min":0,"x_max":0,"o":""},"Ù":{"ha":0,"x_min":0,"x_max":0,"o":""},"Ủ":{"ha":0,"x_min":0,"x_max":0,"o":""},"Ư":{"ha":318,"x_min":0,"x_max":0,"o":""},"Ứ":{"ha":318,"x_min":0,"x_max":0,"o":"m -739 71 l -568 71 l -425 286 "},"Ự":{"ha":0,"x_min":0,"x_max":0,"o":""},"Ừ":{"ha":318,"x_min":0,"x_max":0,"o":""},"Ử":{"ha":0,"x_min":0,"x_max":0,"o":""},"Ữ":{"ha":318,"x_min":0,"x_max":0,"o":"m -913 71 l -784 71 b -734 144 -785 118 -765 143 b -556 65 -684 143 -655 64 b -393 270 -467 66 -395 136 l -519 271 b -572 197 -521 224 -535 197 b -750 274 -619 195 -652 274 b -913 71 -841 273 -913 206 z "},"Ű":{"ha":0,"x_min":0,"x_max":0,"o":""},"Ȗ":{"ha":0,"x_min":0,"x_max":0,"o":""},"Ū":{"ha":115,"x_min":0,"x_max":0,"o":""},"Ṻ":{"ha":115,"x_min":0,"x_max":0,"o":"m -666 343 z m -662 85 l -663 85 l -663 39 l -622 39 l -622 3 l -562 3 l -562 3 l -502 3 l -502 3 l -459 3 l -459 39 l 20 39 l 20 157 l -459 157 "},"Ų":{"ha":115,"x_min":0,"x_max":0,"o":"m 651 982 l 467 1098 l 338 1281 l 300 1265 l 259 1263 l 206 1277 l 159 1267 l 161 1444 b 510 NaN 203 1556 330 1555 l 510 NaN z "},"Ʊ":{"ha":203,"x_min":0,"x_max":0,"o":"m 49 441 b 532 -14 50 175 250 -14 b 1015 441 814 -14 1014 175 b 844 766 1014 592 948 700 l 844 773 l 1015 773 l 1015 982 l 602 982 l 602 722 b 750 467 692 686 751 585 b 532 214 751 319 660 214 b 313 467 404 214 313 319 b 461 722 313 585 372 686 l 461 982 l 49 982 l 49 773 l 220 773 l 220 766 b 49 441 115 700 50 592 z "},"Ů":{"ha":115,"x_min":0,"x_max":0,"o":"m 91 0 b 350 -574 289 -574 321 -574 b NaN NaN 376 -574 409 NaN b NaN NaN NaN NaN NaN NaN b NaN NaN NaN NaN NaN NaN b NaN NaN NaN NaN NaN NaN z "},"Ũ":{"ha":0,"x_min":0,"x_max":0,"o":""},"Ṹ":{"ha":0,"x_min":0,"x_max":0,"o":"l 115 0 l 115 -654 l 195 -654 l 195 -525 l 432 -525 l 432 -736 "},"Ṵ":{"ha":115,"x_min":0,"x_max":0,"o":"m -651 -1252 l -522 -1252 b -472 -1179 -523 -1204 -503 -1179 b -294 -1257 -422 -1179 -393 -1258 b -132 -1053 -205 -1256 -134 -1186 l -258 -1051 b -311 -1126 -259 -1098 -273 -1126 b -488 -1048 -357 -1127 -391 -1048 b -651 -1252 -579 -1049 -651 -1116 z "},"V":{"ha":204,"x_min":0,"x_max":0,"o":""},"Ɣ":{"ha":233,"x_min":0,"x_max":0,"o":"m 61 982 l 418 307 b 263 -94 283 14 263 -45 b 547 -292 263 -216 379 -292 b 821 -102 711 -292 821 -209 b 677 308 821 -34 772 99 l 1032 982 l 732 982 l 548 585 l 359 982 z m 518 -80 b 547 52 518 -43 529 4 b 575 -80 565 5 575 -43 b 547 -126 575 -112 566 -126 b 518 -80 527 -126 518 -111 z "},"Ʋ":{"ha":70,"x_min":0,"x_max":0,"o":"m 467 -14 b 865 342 709 -14 865 116 l 865 703 b 570 996 865 891 760 996 b 463 985 532 996 503 992 l 463 784 b 530 789 490 788 511 790 b 610 703 597 790 611 770 l 610 342 b 467 187 611 245 574 186 b 317 342 359 186 317 245 l 317 982 l 66 982 l 66 342 b 467 -14 67 114 230 -14 z "},"Ṿ":{"ha":0,"x_min":0,"x_max":0,"o":""},"Ṽ":{"ha":0,"x_min":0,"x_max":0,"o":""},"W":{"ha":604,"x_min":0,"x_max":0,"o":""},"Ẃ":{"ha":0,"x_min":0,"x_max":0,"o":""},"Ŵ":{"ha":0,"x_min":0,"x_max":0,"o":""},"Ẅ":{"ha":0,"x_min":0,"x_max":0,"o":""},"Ẇ":{"ha":0,"x_min":0,"x_max":0,"o":""},"Ẉ":{"ha":0,"x_min":0,"x_max":0,"o":""},"Ẁ":{"ha":0,"x_min":0,"x_max":0,"o":""},"X":{"ha":0,"x_min":0,"x_max":0,"o":""},"Ẍ":{"ha":0,"x_min":0,"x_max":0,"o":""},"Ẋ":{"ha":0,"x_min":0,"x_max":0,"o":""},"Y":{"ha":163,"x_min":0,"x_max":0,"o":""},"Ʀ":{"ha":200,"x_min":0,"x_max":0,"o":"m 61 1050 l 61 0 l 313 0 l 313 346 l 430 346 l 730 -227 l 998 -227 l 998 -217 l 663 408 b 846 690 772 457 846 528 b 464 982 846 880 694 982 l 312 982 l 312 1050 z m 313 545 l 313 780 l 464 780 b 595 662 547 781 596 736 b 464 545 596 587 549 545 z "},"Ý":{"ha":0,"x_min":0,"x_max":0,"o":""},"Ŷ":{"ha":0,"x_min":0,"x_max":0,"o":""},"Ÿ":{"ha":0,"x_min":0,"x_max":0,"o":""},"Ẏ":{"ha":0,"x_min":0,"x_max":0,"o":""},"Ỵ":{"ha":0,"x_min":0,"x_max":0,"o":""},"Ỳ":{"ha":0,"x_min":0,"x_max":0,"o":""},"Ƴ":{"ha":269,"x_min":0,"x_max":0,"o":"m 34 982 l 430 365 l 430 0 l 688 0 l 688 365 l 917 719 b 1062 779 958 781 986 800 l 1115 968 b 726 846 978 1017 820 1002 l 566 581 l 552 581 l 312 982 z "},"Ỷ":{"ha":0,"x_min":0,"x_max":0,"o":""},"Ỹ":{"ha":0,"x_min":0,"x_max":0,"o":""},"Z":{"ha":71,"x_min":0,"x_max":0,"o":""},"Ź":{"ha":0,"x_min":0,"x_max":0,"o":""},"Ƶ":{"ha":71,"x_min":0,"x_max":0,"o":"m 68 0 l 863 0 l 863 209 l 396 209 l 578 454 l 741 454 l 741 594 l 682 594 l 864 838 l 731 659 l 557 659 l 557 519 l 627 519 l 396 209 z "},"Ž":{"ha":0,"x_min":0,"x_max":0,"o":""},"Ẑ":{"ha":0,"x_min":0,"x_max":0,"o":""},"Ż":{"ha":0,"x_min":0,"x_max":0,"o":""},"Ẓ":{"ha":0,"x_min":0,"x_max":0,"o":""},"Ẕ":{"ha":71,"x_min":0,"x_max":0,"o":""},"Ɯ":{"ha":465,"x_min":0,"x_max":0,"o":"m 103 274 b 354 -14 103 67 181 -14 b 578 97 454 -14 530 27 b 792 -14 620 19 694 -14 b 998 79 879 -14 949 21 l 1009 0 l 1225 0 l 1225 982 l 982 982 l 982 223 b 873 179 960 195 925 179 b 781 274 812 179 782 216 l 781 982 l 543 982 l 543 274 b 545 225 543 257 543 240 b 434 179 522 196 487 179 b 343 274 373 179 342 216 l 343 982 l 103 982 z "},"Ƕ":{"ha":663,"x_min":0,"x_max":0,"o":"m 1070 -14 b 1454 342 1310 -14 1454 121 l 1454 705 l 1196 705 l 1196 342 b 1070 199 1196 252 1148 199 b 945 342 993 199 945 252 l 945 982 l 686 982 l 686 0 l 944 0 l 944 387 l 1306 387 l 1306 342 b 1690 -14 1307 121 1453 -14 z "},"Ƿ":{"ha":239,"x_min":0,"x_max":0,"o":"m 382 982 l 134 982 l 134 -277 l 382 -277 l 382 -92 b 970 513 774 49 969 256 l 970 547 b 551 996 970 834 794 996 b 382 962 483 996 426 983 z m 382 119 l 382 733 b 553 796 429 771 490 795 b 712 549 702 795 713 654 l 712 513 b 382 119 711 336 600 214 z "},"Ǹ":{"ha":117,"x_min":0,"x_max":0,"o":""},"Ț":{"ha":0,"x_min":0,"x_max":0,"o":""},"Ȟ":{"ha":0,"x_min":0,"x_max":0,"o":""},"Ƞ":{"ha":77,"x_min":0,"x_max":0,"o":"m 841 -274 l 841 715 b 521 996 842 884 705 996 b 340 956 457 996 397 982 l 340 982 l 98 982 l 98 0 l 340 0 l 340 764 b 484 804 387 791 435 804 b 597 715 556 805 597 777 l 597 -274 z "},"Ȣ":{"ha":75,"x_min":0,"x_max":0,"o":"m 463 452 l 476 452 b 601 319 553 452 601 401 b 476 183 601 233 553 183 l 463 183 b 334 316 385 183 334 235 b 463 452 334 400 384 452 z m 79 316 b 463 -14 78 116 231 -14 l 476 -14 b 857 319 707 -14 857 116 b 758 545 857 416 822 492 b 861 735 825 587 861 650 b 551 996 861 899 747 999 l 551 802 b 605 735 589 794 604 774 b 475 654 606 670 564 654 l 461 654 b 334 735 372 654 335 668 b 387 802 334 775 347 794 l 387 996 b 79 735 190 999 78 901 b 178 545 79 650 113 587 b 79 316 113 492 79 414 z "},"Ȥ":{"ha":71,"x_min":0,"x_max":0,"o":"m 69 773 l 543 773 l 68 144 l 68 0 l 570 0 b 674 -123 659 0 675 -58 l 674 -182 l 882 -182 l 882 -77 b 570 209 882 103 773 209 l 389 209 l 864 838 l 864 982 l 69 982 z "},"Ȧ":{"ha":0,"x_min":0,"x_max":0,"o":""},"Ȩ":{"ha":-24,"x_min":0,"x_max":0,"o":"m 66 0 z "},"Ȫ":{"ha":0,"x_min":0,"x_max":0,"o":""},"Ȭ":{"ha":210,"x_min":0,"x_max":0,"o":"m -716 812 l -236 812 l -236 933 l -716 933 z m -715 1550 b -589 576 -684 617 -625 616 b -404 633 -517 576 -452 576 b NaN NaN -403 694 -502 723 l NaN NaN b NaN NaN NaN NaN NaN NaN b NaN NaN NaN NaN NaN NaN b NaN NaN NaN NaN NaN NaN z "},"Ȯ":{"ha":0,"x_min":0,"x_max":0,"o":""},"Ȱ":{"ha":0,"x_min":0,"x_max":0,"o":""},"Ȳ":{"ha":163,"x_min":0,"x_max":0,"o":""},"Ⱥ":{"ha":204,"x_min":0,"x_max":0,"o":"m 864 1107 l 730 1107 l 692 982 l 357 982 l 30 0 l 309 0 l 368 193 l 451 193 l 354 -125 l 488 -125 l 585 193 l 696 193 l 755 0 l 1034 0 l 770 797 z m 427 388 l 528 718 l 536 718 l 574 595 l 511 388 z "},"Ȼ":{"ha":173,"x_min":0,"x_max":0,"o":"m 263 -125 l 399 -125 l 435 -5 b 460 24 430 -5 460 27 b 449 46 460 58 448 46 b 439 NaN 451 46 439 NaN l 597 NaN b 651 NaN 628 NaN 646 NaN l 913 NaN b 667 NaN 898 NaN 806 NaN l 712 NaN l 576 NaN l 541 NaN b 495 NaN 544 NaN 519 NaN b 38 NaN 267 NaN 111 NaN z m 52 NaN b 263 NaN 52 NaN 128 NaN l 113 NaN b 52 NaN 73 NaN 52 NaN z "},"Ⱦ":{"ha":62,"x_min":0,"x_max":0,"o":"m 225 -125 l 359 -125 l 397 0 l 589 0 l 589 627 l 633 773 l 884 773 l 884 982 l 697 982 l 735 1107 l 601 1107 l 563 982 l 38 982 l 38 773 l 334 773 l 334 231 z "},"Ɂ":{"ha":-56,"x_min":0,"x_max":0,"o":"m 392 361 l 277 361 l 277 0 l 529 0 l 529 182 b 750 521 671 232 751 359 l 750 628 b 387 996 751 842 615 996 b 53 690 200 996 51 880 l 294 690 b 392 792 292 745 322 791 b 495 628 492 791 495 689 l 495 521 b 392 361 495 422 477 361 z "},"Ƀ":{"ha":130,"x_min":0,"x_max":0,"o":"m 157 0 l -441 0 l -441 -136 l -581 -136 l -581 0 z m -323 -37 l -323 0 l -205 0 l -205 140 l -323 140 l -323 178 l -187 178 b -53 65 -104 178 -53 136 b -191 -37 -53 -1 -98 -37 z m -323 339 l -323 534 l -203 534 b -84 437 -134 534 -84 499 b -208 339 -84 374 -135 339 z "},"Ʉ":{"ha":180,"x_min":0,"x_max":0,"o":"m 1048 552 l 947 552 l 947 982 l 689 982 l 689 552 l 362 552 l 362 982 l 104 982 l 104 552 l -8 552 l -8 410 l 104 410 l 104 351 b 525 -12 104 129 273 -12 b 947 351 777 -12 947 129 l 947 410 l 1048 410 z m 362 374 z "},"Ʌ":{"ha":200,"x_min":0,"x_max":0,"o":"m 723 0 l 1002 0 l 667 982 l 391 982 l 56 0 l 336 0 l 530 697 z "},"Ɇ":{"ha":-24,"x_min":0,"x_max":0,"o":"m 677 1107 l 567 1107 l 531 982 l 66 982 l 66 0 l 249 0 l 213 -125 l 321 -125 l 357 0 l 766 0 l 766 209 l 418 209 l 469 387 l 731 387 l 731 595 l 529 595 l 581 773 l 768 773 l 768 982 l 641 982 z m 324 262 l 324 387 l 360 387 z m 324 595 l 324 773 l 471 773 l 420 595 z "},"Ɉ":{"ha":-71,"x_min":0,"x_max":0,"o":"m 469 982 l 469 658 l 338 658 l 338 518 l 469 518 l 469 308 l 680 308 l 680 632 z "},"Ɍ":{"ha":73,"x_min":0,"x_max":0,"o":"m 94 0 l 351 0 l 351 327 l 452 327 b -18 709 452 501 125 709 b -113 NaN 106 709 -113 NaN l -531 NaN l -531 NaN l -616 NaN l -616 NaN l -531 NaN "},"Ɏ":{"ha":163,"x_min":0,"x_max":0,"o":"m 1008 776 l 890 776 l 1001 982 l 712 982 l 611 776 l 412 776 l 312 982 l 23 982 l 134 776 l 16 776 l 16 654 l 201 654 l 384 315 l 384 0 l 640 0 l 640 315 l 823 654 l 1008 654 z m 471 654 l 551 654 l 515 581 l 507 581 z "},"Ỻ":{"ha":527,"x_min":0,"x_max":0,"o":"m 126 0 l 1134 0 l 1134 209 l 734 209 l 734 982 l 476 982 l 476 209 l 384 209 l 384 982 l 126 982 z "},"Ỽ":{"ha":108,"x_min":0,"x_max":0,"o":"m 633 637 l 513 472 b 610 300 579 423 611 367 b 491 189 611 230 561 189 b 365 336 396 189 366 248 l 365 396 b 690 783 366 676 528 759 l 669 979 b 107 422 389 958 109 762 l 107 378 b 498 -14 109 113 279 -14 b 863 316 707 -14 863 104 b 633 637 863 457 753 574 z "},"Ỿ":{"ha":193,"x_min":0,"x_max":0,"o":"m 392 982 l 127 982 l 340 581 l 326 581 b 22 282 157 581 22 444 b 326 -14 22 119 159 -14 b 597 151 445 -14 548 54 l 598 149 l 1044 982 l 779 982 l 583 577 z m 229 285 b 326 382 229 347 270 382 b 422 285 380 382 422 347 b 326 187 422 222 380 187 b 229 285 270 187 229 222 z "},"Ɀ":{"ha":71,"x_min":0,"x_max":0,"o":"m 746 -288 b 865 -264 793 -288 833 -278 l 865 -71 b 764 -85 833 -82 800 -86 b 378 172 631 -86 553 97 l 853 852 l 853 982 l 68 982 l 68 779 l 525 779 l 66 132 l 66 0 l 140 0 b 746 -288 430 0 477 -288 z "},"Ａ":{"ha":441,"x_min":0,"x_max":0,"o":"m 429 0 l 487 193 l 816 193 l 875 0 l 1153 0 z "},"Ｂ":{"ha":441,"x_min":0,"x_max":0,"o":"m 269 0 "},"Ｃ":{"ha":441,"x_min":0,"x_max":0,"o":"m 848 617 l 1109 617 "},"Ｄ":{"ha":441,"x_min":0,"x_max":0,"o":"m 597 0 l 227 0 l 227 -982 "},"Ｅ":{"ha":441,"x_min":0,"x_max":0,"o":"m 300 0 z "},"Ｆ":{"ha":441,"x_min":0,"x_max":0,"o":"m 324 0 l 582 0 l 582 387 z "},"Ｇ":{"ha":441,"x_min":0,"x_max":0,"o":"m 837 659 l 1099 659 b 1217 678 1099 856 1077 678 b 1072 696 986 678 1072 737 b NaN NaN 1072 626 1090 NaN z "},"Ｈ":{"ha":441,"x_min":0,"x_max":0,"o":""},"Ｉ":{"ha":441,"x_min":0,"x_max":0,"o":"m 780 982 z "},"Ｊ":{"ha":441,"x_min":0,"x_max":0,"o":"m 726 982 l 726 308 l 1400 308 z "},"Ｋ":{"ha":441,"x_min":0,"x_max":0,"o":"m 239 0 l 496 0 l 496 256 l 587 373 l 814 0 l 1123 0 l 780 544 l 1116 982 l 814 982 l 510 581 l 496 581 l 496 982 l 239 982 z "},"Ｌ":{"ha":441,"x_min":0,"x_max":0,"o":"m 334 0 l 991 0 z "},"Ｍ":{"ha":441,"x_min":0,"x_max":0,"o":"m 91 982 l 91 0 l 343 0 l 343 582 l 351 582 l 574 7 l 728 7 l 952 578 z "},"Ｎ":{"ha":441,"x_min":0,"x_max":0,"o":"m 1074 982 l 817 982 l 817 454 l 808 454 l 1024 454 z "},"Ｏ":{"ha":441,"x_min":0,"x_max":0,"o":"m 1127 491 b 1071 519 802 491 803 699 z m 386 519 z "},"Ｐ":{"ha":441,"x_min":0,"x_max":0,"o":"m 275 0 z "},"Ｑ":{"ha":441,"x_min":0,"x_max":0,"o":"m 560 361 l 672 212 b 651 212 665 212 659 212 b 606 16 651 129 635 63 l 553 81 b 96 198 -34 81 96 141 b NaN 260 96 207 115 260 l NaN 172 l NaN 172 l NaN 352 b NaN 737 NaN 437 NaN 567 z "},"Ｒ":{"ha":441,"x_min":0,"x_max":0,"o":"m 269 0 l 526 0 l 526 327 l 627 327 b 157 709 627 501 300 709 b 62 NaN 281 709 62 NaN l -356 NaN "},"Ｓ":{"ha":441,"x_min":0,"x_max":0,"o":"m 799 678 l 1047 678 b 662 996 1046 869 897 996 b 269 685 431 996 267 871 b 547 410 268 533 374 448 l 646 388 b 796 289 755 364 795 336 b 659 201 795 237 748 201 b 490 340 557 201 494 249 l 243 340 b 663 -12 245 98 410 -12 b 1061 289 911 -12 1059 96 b 754 587 1059 440 965 543 l 673 606 b 537 704 581 625 535 653 b 662 783 538 749 577 783 b 799 678 750 783 793 744 z "},"Ｔ":{"ha":441,"x_min":0,"x_max":0,"o":"m 228 773 l 524 773 l 524 0 l 779 0 l 779 773 l 1074 773 l 1074 982 l 228 982 z "},"Ｕ":{"ha":441,"x_min":0,"x_max":0,"o":"m 815 982 l 815 1613 z "},"Ｖ":{"ha":441,"x_min":0,"x_max":0,"o":"m 441 982 l 149 982 z "},"Ｗ":{"ha":441,"x_min":0,"x_max":0,"o":""},"Ｘ":{"ha":441,"x_min":0,"x_max":0,"o":"m 480 982 l 190 982 l 483 491 l 180 0 z "},"Ｙ":{"ha":441,"x_min":0,"x_max":0,"o":"m 163 982 l 524 315 z "},"Ｚ":{"ha":441,"x_min":0,"x_max":0,"o":"m 254 0 z "},"ɢ":{"ha":77,"x_min":0,"x_max":0,"o":"m 837 109 l 837 400 l 477 400 l 477 248 l 606 248 l 606 191 b 486 180 583 179 570 181 b 351 305 393 181 352 233 l 351 414 b 471 537 352 488 390 536 b 587 467 544 536 573 521 l 829 467 b 471 727 808 656 678 727 b 106 412 257 727 106 600 l 106 305 b 486 -12 106 117 264 -12 b 837 109 702 -12 782 54 z "},"ʛ":{"ha":233,"x_min":0,"x_max":0,"o":"m 841 467 l 841 570 b 929 655 841 633 872 655 b 987 650 951 655 968 651 l 987 808 b 891 819 953 816 928 820 b 668 700 786 820 707 778 b 484 727 616 719 555 727 b 119 412 269 727 118 600 l 119 305 b 498 -12 118 117 277 -12 b 849 109 714 -12 794 54 l 849 400 l 490 400 l 490 248 l 620 248 l 620 191 b 498 180 595 179 582 181 b 365 305 406 181 364 233 l 365 414 b 484 537 364 488 402 536 b 600 467 556 536 585 521 z "},"ɪ":{"ha":-143,"x_min":0,"x_max":0,"o":"m 583 713 l 134 713 l 134 521 l 237 521 l 237 194 l 134 194 l 134 0 l 583 0 l 583 194 l 479 194 l 479 521 l 583 521 z "},"ʟ":{"ha":-185,"x_min":0,"x_max":0,"o":"m 617 193 l 302 193 l 302 713 l 60 713 l 60 0 l 617 0 z "},"ɴ":{"ha":9,"x_min":0,"x_max":0,"o":"m 800 736 l 548 736 l 548 388 l 540 388 l 271 736 l 69 736 l 69 0 l 316 0 l 316 316 l 321 316 l 564 0 l 800 0 z "},"ɶ":{"ha":299,"x_min":0,"x_max":0,"o":"m 1096 193 l 772 193 l 772 260 l 1036 260 l 1036 453 l 772 453 l 772 521 l 1096 521 l 1096 713 l 692 713 b 425 727 544 713 509 727 b 62 365 190 727 61 572 l 62 349 b 426 -14 61 142 190 -14 b 692 0 509 -14 541 0 l 1096 0 z m 305 349 l 305 365 b 425 534 304 456 330 534 b 529 528 457 534 487 531 l 529 187 b 426 180 487 184 457 181 b 305 349 328 181 304 253 z "},"ʀ":{"ha":81,"x_min":0,"x_max":0,"o":"m 465 713 l 127 713 l 127 0 l 366 0 l 366 224 l 454 224 l 576 0 l 815 0 l 671 267 b 803 458 754 308 802 376 b 465 713 802 605 672 713 z m 366 380 l 366 521 l 465 521 b 563 450 530 522 564 489 b 463 380 564 412 528 380 z "},"ʁ":{"ha":81,"x_min":0,"x_max":0,"o":"m 465 0 b 803 255 670 0 802 106 b 670 447 802 337 754 406 l 815 713 l 576 713 l 454 490 l 366 490 l 366 713 l 127 713 l 127 0 z m 366 193 l 366 334 l 463 334 b 563 264 528 334 564 296 b 465 193 564 232 528 193 z "},"ʏ":{"ha":-67,"x_min":0,"x_max":0,"o":"m 273 713 l 14 713 l 275 227 l 275 0 l 514 0 l 514 217 l 780 713 l 524 713 l 397 426 z "},"a":{"ha":-66,"x_min":0,"x_max":0,"o":""},"á":{"ha":-66,"x_min":0,"x_max":0,"o":""},"ă":{"ha":-66,"x_min":0,"x_max":0,"o":"m 665 1000 l 503 1000 z "},"ắ":{"ha":-66,"x_min":0,"x_max":0,"o":"m 665 977 l 521 977 "},"ặ":{"ha":-66,"x_min":0,"x_max":0,"o":"m 665 1000 l 503 1000 "},"ằ":{"ha":0,"x_min":0,"x_max":0,"o":""},"ẳ":{"ha":0,"x_min":0,"x_max":0,"o":""},"ẵ":{"ha":-66,"x_min":0,"x_max":0,"o":"m 662 958 l 517 958 "},"ǎ":{"ha":-66,"x_min":0,"x_max":0,"o":""},"â":{"ha":-66,"x_min":0,"x_max":0,"o":""},"ấ":{"ha":0,"x_min":0,"x_max":0,"o":""},"ậ":{"ha":0,"x_min":0,"x_max":0,"o":""},"ầ":{"ha":-66,"x_min":0,"x_max":0,"o":""},"ẩ":{"ha":0,"x_min":0,"x_max":0,"o":""},"ẫ":{"ha":0,"x_min":0,"x_max":0,"o":""},"ȁ":{"ha":0,"x_min":0,"x_max":0,"o":"l -66 0 l -66 201 l 763 201 l 763 -22 "},"ä":{"ha":0,"x_min":0,"x_max":0,"o":""},"ǟ":{"ha":0,"x_min":0,"x_max":0,"o":""},"ạ":{"ha":-66,"x_min":0,"x_max":0,"o":""},"ǡ":{"ha":0,"x_min":0,"x_max":0,"o":""},"à":{"ha":-142,"x_min":0,"x_max":0,"o":"l -66 0 l -66 320 l 763 320 l 763 99 "},"ả":{"ha":-66,"x_min":0,"x_max":0,"o":""},"ȃ":{"ha":-66,"x_min":0,"x_max":0,"o":""},"ā":{"ha":-66,"x_min":0,"x_max":0,"o":""},"ą":{"ha":-66,"x_min":0,"x_max":0,"o":"m 637 -267 l 637 236 l 576 236 b 547 53 539 195 527 119 "},"ẚ":{"ha":-66,"x_min":0,"x_max":0,"o":""},"å":{"ha":0,"x_min":0,"x_max":0,"o":"l -66 0 l -66 -103 l 174 -103 l 174 400 "},"ǻ":{"ha":0,"x_min":0,"x_max":0,"o":""},"ḁ":{"ha":0,"x_min":0,"x_max":0,"o":""},"ɑ":{"ha":26,"x_min":0,"x_max":0,"o":""},"ɒ":{"ha":75,"x_min":0,"x_max":0,"o":"m 846 353 l 846 369 b 574 746 848 599 746 746 b 378 626 481 746 420 701 b 178 746 342 705 272 746 b 91 734 147 746 119 743 l 106 553 b 117 555 113 553 113 555 b 164 472 153 555 165 525 l 164 0 l 377 0 l 394 87 b 572 -15 435 24 492 -15 b 846 353 746 -15 847 140 z m 405 519 b 494 553 423 543 452 553 b 604 369 589 554 604 468 l 604 353 b 496 179 605 253 575 179 b 407 216 454 179 426 192 l 407 473 b 405 519 407 490 406 505 z "},"ã":{"ha":-66,"x_min":0,"x_max":0,"o":""},"ɐ":{"ha":-66,"x_min":0,"x_max":0,"o":"m 61 233 b 397 -9 61 92 193 -9 b 732 237 614 -9 723 104 l 495 237 b 401 168 489 191 454 168 b 317 232 351 168 318 191 l 317 292 b 490 298 347 293 434 296 b 761 533 640 307 761 371 b 521 749 761 680 661 748 b 307 633 422 748 351 713 l 301 633 l 301 736 l 61 736 z m 316 475 b 438 585 315 544 374 585 b 519 518 486 585 519 562 b 444 442 519 478 490 448 b 316 435 410 439 342 436 z "},"æ":{"ha":0,"x_min":0,"x_max":0,"o":""},"ǽ":{"ha":0,"x_min":0,"x_max":0,"o":""},"ǣ":{"ha":0,"x_min":0,"x_max":0,"o":""},"b":{"ha":7,"x_min":0,"x_max":0,"o":""},"ɤ":{"ha":37,"x_min":0,"x_max":0,"o":"m 16 644 l 122 506 b 193 541 140 524 170 542 b 323 420 220 542 252 515 b 217 157 259 311 217 235 b 449 -14 217 41 313 -14 b 678 157 581 -14 679 38 b 581 410 679 236 637 314 l 574 419 b 704 541 635 503 665 542 b 773 506 726 542 753 524 l 883 644 b 677 746 834 699 775 746 b 448 608 592 746 528 709 b 220 746 368 710 303 746 b 16 644 123 746 61 699 z m 425 171 b 448 232 424 184 431 203 b 471 171 462 205 471 184 b 449 148 470 163 466 149 b 425 171 428 149 423 163 z "},"ƀ":{"ha":7,"x_min":0,"x_max":0,"o":"m 66 0 l 237 0 l 237 62 l -19 62 l -19 0 l -149 0 l -149 -140 l -19 -140 "},"ḃ":{"ha":0,"x_min":0,"x_max":0,"o":""},"ḅ":{"ha":7,"x_min":0,"x_max":0,"o":"m 66 0 l -190 0 "},"ɓ":{"ha":7,"x_min":0,"x_max":0,"o":"m 532 -9 l 669 -9 b 779 46 668 36 730 46 b 836 42 798 46 815 44 l 836 232 b 709 240 806 235 770 240 b 412 -9 572 240 412 222 l 412 -755 l 666 -755 l 666 -635 l 673 -635 "},"ḇ":{"ha":7,"x_min":0,"x_max":0,"o":"m 66 0 l -190 0 "},"ƃ":{"ha":7,"x_min":0,"x_max":0,"o":"m 715 982 l 66 982 l 66 0 l 269 0 l 269 392 "},"ʘ":{"ha":210,"x_min":0,"x_max":0,"o":"m 79 1 z "},"c":{"ha":-47,"x_min":0,"x_max":0,"o":""},"ć":{"ha":0,"x_min":0,"x_max":0,"o":""},"č":{"ha":0,"x_min":0,"x_max":0,"o":""},"ç":{"ha":0,"x_min":0,"x_max":0,"o":""},"ḉ":{"ha":0,"x_min":0,"x_max":0,"o":""},"ĉ":{"ha":0,"x_min":0,"x_max":0,"o":""},"ɕ":{"ha":-39,"x_min":0,"x_max":0,"o":"m 427 -14 b 777 222 672 -14 779 100 b 557 397 777 338 684 397 b 315 286 460 397 388 361 b 307 369 309 311 307 338 b 427 553 307 492 355 554 b 537 434 489 554 529 511 l 774 434 b 423 746 772 623 637 746 b 45 366 186 746 45 593 b 157 80 45 244 85 146 b 111 11 142 58 127 35 l 271 -88 b 326 -3 291 -57 309 -29 b 427 -14 357 -10 391 -14 z m 450 176 b 536 241 492 228 513 241 b 559 216 551 241 562 231 b 450 176 557 194 524 178 z "},"ċ":{"ha":0,"x_min":0,"x_max":0,"o":""},"ƈ":{"ha":32,"x_min":0,"x_max":0,"o":"m 776 434 l 776 553 b 850 643 775 616 795 643 b 909 637 871 643 888 639 l 909 793 b 812 808 873 802 843 808 b 593 713 720 808 641 774 b 564 667 614 713 564 656 b 903 734 564 602 779 734 b 1099 NaN 1095 734 1099 NaN z "},"ʗ":{"ha":-59,"x_min":0,"x_max":0,"o":"m 414 -99 b 309 72 312 -99 309 -1 l 309 382 b 412 553 309 456 312 554 b 510 452 481 554 510 508 l 736 452 b 930 421 928 452 930 319 b NaN NaN 930 267 720 NaN l NaN NaN b NaN NaN NaN NaN NaN NaN b NaN NaN NaN NaN NaN NaN l NaN NaN b NaN NaN NaN NaN NaN NaN z "},"d":{"ha":7,"x_min":0,"x_max":0,"o":""},"ð":{"ha":-36,"x_min":0,"x_max":0,"o":"m 621 920 l 620 1025 l 441 932 b 141 1032 350 983 248 1017 l 138 907 b 279 847 182 893 231 873 l 138 773 l 140 669 l 371 789 b 533 612 439 741 498 680 l 522 612 b 345 677 481 650 420 677 b 41 338 158 677 41 525 b 407 -15 41 125 189 -16 b 783 388 642 -16 783 146 b 532 873 783 594 682 760 z m 283 357 b 415 529 283 465 328 530 b 548 357 503 530 547 464 b 415 172 547 241 496 172 b 283 357 334 172 283 243 z "},"ď":{"ha":0,"x_min":0,"x_max":0,"o":""},"ḑ":{"ha":0,"x_min":0,"x_max":0,"o":""},"ḓ":{"ha":0,"x_min":0,"x_max":0,"o":""},"đ":{"ha":0,"x_min":0,"x_max":0,"o":""},"ḋ":{"ha":0,"x_min":0,"x_max":0,"o":""},"ḍ":{"ha":0,"x_min":0,"x_max":0,"o":""},"ƍ":{"ha":112,"x_min":0,"x_max":0,"o":"m 769 -247 l 769 -129 b 572 56 735 -96 623 17 b 597 56 582 55 596 55 b 850 399 729 80 851 205 l 850 412 b 487 746 851 613 721 746 b 123 376 251 746 123 597 l 123 362 b 343 14 123 224 214 111 b 458 -56 404 -32 437 -41 l 191 -56 l 191 -247 z m 365 362 l 365 376 b 487 553 364 479 387 554 b 610 376 594 554 610 468 l 610 362 b 488 171 610 254 581 170 b 464 175 479 170 471 170 b 365 362 409 202 364 267 z "},"ɗ":{"ha":56,"x_min":0,"x_max":0,"o":"m 336 -9 b 541 121 444 -10 511 47 l 548 121 l 548 0 l 802 0 l 802 736 b 922 802 802 810 886 802 b 979 796 939 802 955 800 l 979 985 b 852 996 954 988 904 996 b 545 736 730 996 546 972 l 545 609 l 541 609 "},"ḏ":{"ha":0,"x_min":0,"x_max":0,"o":""},"ɖ":{"ha":10,"x_min":0,"x_max":0,"o":"m 831 -277 b 960 -271 890 -276 935 -271 b NaN NaN 1006 NaN NaN NaN l NaN NaN l NaN NaN l NaN NaN l NaN NaN l NaN NaN l NaN NaN b NaN NaN NaN NaN NaN NaN "},"ƌ":{"ha":7,"x_min":0,"x_max":0,"o":"m 153 982 l 153 811 l 545 811 l 545 609 l 541 609 "},"ʤ":{"ha":516,"x_min":0,"x_max":0,"o":"m 761 0 l 761 544 l 1036 544 l 817 308 l 817 171 l 905 171 b 1077 28 996 172 1077 150 b 932 -96 1077 -55 1027 -96 b 765 -34 829 -96 792 -71 l 517 -34 b 939 -292 573 -250 756 -292 b 1324 7 1161 -292 1324 -189 b 1070 309 1324 174 1232 274 l 1310 575 l 1310 736 l 761 736 l 761 982 l 505 982 l 505 670 l 496 670 b 334 746 470 732 397 746 b 45 368 190 746 45 633 b 336 -9 45 113 181 -10 b 496 62 400 -10 470 2 l 506 62 l 506 0 z m 285 369 b 416 548 285 488 329 549 b 536 369 513 549 535 465 b 416 187 535 276 517 188 b 285 369 329 188 285 249 z "},"ǳ":{"ha":692,"x_min":0,"x_max":0,"o":"m 524 -369 z "},"ʣ":{"ha":692,"x_min":0,"x_max":0,"o":"m 833 0 l 1133 378 l 1133 536 l 471 536 l 471 781 l 214 781 l 214 408 l 210 408 l 217 408 l 217 288 l 471 288 l 471 829 l 829 829 l 829 825 l 502 430 "},"ǆ":{"ha":692,"x_min":0,"x_max":0,"o":"m 524 -369 "},"ʥ":{"ha":-27,"x_min":0,"x_max":0,"o":"l 928 0 l 928 543 l 1274 543 l 958 134 l 958 0 l 1243 0 l 1171 -103 l 1320 -191 l 1462 0 l 1627 0 b 1891 235 1803 0 1890 120 b 1695 429 1890 353 1799 429 b 1382 194 1591 429 1506 355 l 1382 85 l 722 85 l 722 330 l 465 330 l 465 -43 l 461 -43 m 1630 -218 b 2058 -154 2009 -188 2046 -172 b 2048 -124 2058 -138 2058 -125 b 2009 -180 2040 -125 2018 -136 b NaN NaN 2009 NaN NaN NaN z "},"e":{"ha":-43,"x_min":0,"x_max":0,"o":""},"é":{"ha":0,"x_min":0,"x_max":0,"o":""},"ĕ":{"ha":0,"x_min":0,"x_max":0,"o":""},"ě":{"ha":0,"x_min":0,"x_max":0,"o":""},"ḝ":{"ha":-43,"x_min":0,"x_max":0,"o":"m 669 1000 l 507 1000 z m -121 366 b -339 350 -120 366 -339 487 b -505 325 -339 552 -360 325 b -885 NaN -657 325 -885 324 "},"ê":{"ha":0,"x_min":0,"x_max":0,"o":""},"ế":{"ha":0,"x_min":0,"x_max":0,"o":""},"ḙ":{"ha":0,"x_min":0,"x_max":0,"o":""},"ệ":{"ha":0,"x_min":0,"x_max":0,"o":""},"ề":{"ha":0,"x_min":0,"x_max":0,"o":""},"ể":{"ha":0,"x_min":0,"x_max":0,"o":""},"ễ":{"ha":0,"x_min":0,"x_max":0,"o":""},"ȅ":{"ha":0,"x_min":0,"x_max":0,"o":""},"ë":{"ha":0,"x_min":0,"x_max":0,"o":""},"ė":{"ha":0,"x_min":0,"x_max":0,"o":""},"ẹ":{"ha":0,"x_min":0,"x_max":0,"o":""},"è":{"ha":0,"x_min":0,"x_max":0,"o":""},"ẻ":{"ha":0,"x_min":0,"x_max":0,"o":""},"ȇ":{"ha":0,"x_min":0,"x_max":0,"o":""},"ē":{"ha":0,"x_min":0,"x_max":0,"o":""},"ḗ":{"ha":0,"x_min":0,"x_max":0,"o":""},"ḕ":{"ha":0,"x_min":0,"x_max":0,"o":""},"ę":{"ha":-43,"x_min":0,"x_max":0,"o":"m 528 -236 b 579 -195 551 -236 565 -219 b 791 34 697 -159 772 -77 b 418 -346 564 34 418 -118 b 724 -721 418 -559 533 -694 b 731 -822 720 -753 721 -789 "},"ɛ":{"ha":0,"x_min":0,"x_max":0,"o":""},"ɜ":{"ha":-59,"x_min":0,"x_max":0,"o":"m 266 454 l 266 296 l 380 296 b 502 229 433 296 500 283 b 389 163 500 198 466 163 b 273 212 309 163 273 181 l 34 212 b 370 -14 34 57 203 -14 b 739 201 576 -14 739 67 b 564 376 739 291 676 352 b 728 537 665 404 728 466 "},"ɞ":{"ha":-55,"x_min":0,"x_max":0,"o":"m 395 -14 b 739 201 592 -14 739 67 b 579 376 739 292 684 352 b 726 537 671 404 725 466 b 395 746 725 673 592 746 b 50 376 220 746 50 641 b 395 -14 50 100 231 -14 z m 290 376 b 411 570 290 543 361 570 b 484 511 471 570 483 538 b 403 452 483 477 458 452 l 391 452 l 391 300 l 403 300 b 496 229 458 299 496 281 b 412 164 496 198 478 165 b 290 376 340 165 290 220 z "},"ɝ":{"ha":307,"x_min":0,"x_max":0,"o":"m 270 454 l 270 296 l 384 296 b 506 229 437 296 505 283 b 393 163 505 198 470 163 b 277 212 313 163 277 181 l 38 212 b 374 -14 38 57 208 -14 b 743 201 580 -14 743 67 b 568 376 743 291 680 352 b 687 439 618 389 659 412 l 753 457 b 951 236 783 332 810 236 b 1070 264 990 236 1035 245 l 1038 415 b 1000 415 1024 414 1013 415 b 901 640 920 415 923 496 l 720 600 "},"ʚ":{"ha":-55,"x_min":0,"x_max":0,"o":"m 411 -14 b 755 376 574 -14 756 100 b 411 746 756 641 585 746 b 80 537 214 746 81 673 b 226 376 81 466 134 404 b 66 201 121 352 67 292 b 411 -14 67 67 214 -14 z m 309 229 b 403 300 309 281 347 299 l 415 300 l 415 452 l 403 452 b 321 511 347 452 323 477 b 395 570 323 538 335 570 b 515 376 445 570 516 543 b 393 164 516 220 465 165 b 309 229 328 165 309 198 z "},"ɘ":{"ha":-60,"x_min":0,"x_max":0,"o":"m 368 -14 b 754 343 612 -14 755 152 l 754 369 b 388 746 754 575 635 746 b 47 389 180 746 48 616 l 47 288 l 505 288 b 342 180 486 218 429 181 b 178 245 288 181 223 195 l 68 109 b 368 -14 117 47 222 -14 z m 282 437 l 282 446 b 388 553 282 519 326 554 b 507 437 470 554 498 495 z "},"ʃ":{"ha":-186,"x_min":0,"x_max":0,"o":"m 214 766 "},"ʆ":{"ha":-67,"x_min":0,"x_max":0,"o":"m 24 -98 b 293 -290 25 -212 107 -291 b 547 -180 427 -291 506 -248 l 682 -282 l 783 -134 l 589 5 l 589 766 b 690 836 589 813 626 836 b 746 830 715 836 732 833 l 745 1012 b 635 1027 709 1021 673 1026 b 342 766 458 1026 342 937 l 342 83 b 271 85 319 85 296 85 b 24 -98 106 85 25 12 z m 228 -106 b 297 -69 228 -78 256 -68 b 342 -73 313 -69 327 -71 l 342 -75 b 288 -149 342 -120 332 -149 b 228 -106 258 -149 228 -140 z "},"ƪ":{"ha":106,"x_min":0,"x_max":0,"o":"m 96 730 b 400 433 97 565 233 433 b 465 439 422 433 444 435 l 465 3 b 758 -290 465 -186 578 -291 b 871 -281 800 -291 835 -289 l 871 -92 b 802 -98 842 -96 823 -98 b 707 3 741 -98 706 -62 l 707 730 b 400 1027 707 890 568 1026 b 96 730 231 1026 95 890 z m 304 731 b 401 826 304 793 343 826 b 496 731 451 826 495 795 b 401 633 497 666 453 633 b 304 731 343 633 303 666 z "},"ʅ":{"ha":-185,"x_min":0,"x_max":0,"o":"m 460 -31 l 460 487 b 170 746 460 653 348 746 b 58 732 132 746 94 741 l 57 548 b 113 555 72 553 85 555 b 217 487 178 555 218 531 l 217 -31 b 505 -292 218 -201 329 -292 b 617 -277 551 -292 587 -284 l 621 -95 b 562 -100 603 -99 589 -100 b 460 -31 496 -100 460 -78 z "},"ẽ":{"ha":0,"x_min":0,"x_max":0,"o":""},"ḛ":{"ha":0,"x_min":0,"x_max":0,"o":""},"ǝ":{"ha":0,"x_min":0,"x_max":0,"o":""},"ə":{"ha":0,"x_min":0,"x_max":0,"o":""},"ɚ":{"ha":364,"x_min":0,"x_max":0,"o":"m 411 727 b 114 608 264 727 156 663 l 221 468 b 393 534 262 518 327 534 b 526 477 451 534 498 514 l 94 372 l 94 334 b 435 -14 94 118 223 -14 b 796 355 680 -14 795 157 l 796 378 l 796 388 l 818 393 b 1012 171 844 269 873 170 b 1133 202 1055 170 1096 182 l 1103 351 b 1062 350 1087 352 1074 350 b 963 578 983 350 988 427 l 761 530 b 411 727 705 644 585 727 z m 328 267 l 328 278 l 557 332 b 437 180 553 270 535 181 b 328 267 360 181 327 208 z "},"ʒ":{"ha":0,"x_min":0,"x_max":0,"o":""},"ǯ":{"ha":0,"x_min":0,"x_max":0,"o":""},"ʓ":{"ha":90,"x_min":0,"x_max":0,"o":"m 104 736 l 104 534 l 509 534 l 509 528 l 300 338 l 300 165 l 433 165 b 578 59 522 165 575 119 b 327 125 509 100 425 125 b 52 -69 161 125 52 53 b 392 -290 52 -231 249 -291 b 691 -210 524 -290 623 -260 l 800 -289 l 895 -167 l 782 -85 b 798 12 792 -55 798 -22 b 545 307 798 168 710 286 l 545 313 l 818 567 l 817 736 z m 275 -58 b 335 -23 275 -37 297 -24 b 508 -78 392 -24 456 -45 b 419 -98 485 -91 456 -98 b 275 -58 330 -98 275 -83 z "},"ƹ":{"ha":47,"x_min":0,"x_max":0,"o":"m 856 50 l 595 50 b 458 -50 593 -9 534 -50 b 328 58 379 -50 328 -4 b 475 165 328 124 387 165 l 597 165 l 597 338 l 395 524 l 395 529 l 806 529 l 806 736 l 87 736 l 87 551 l 351 313 l 351 307 b 56 37 123 279 56 148 b 458 -259 56 -142 231 -259 b 856 50 697 -259 853 -130 z "},"ƺ":{"ha":-56,"x_min":0,"x_max":0,"o":"m 111 736 l 111 544 l 353 544 l 220 435 l 220 301 l 406 301 b 486 243 453 300 486 280 b 354 164 486 195 433 178 b 75 -62 158 130 75 60 b 406 -292 75 -198 203 -292 b 738 -49 621 -292 736 -162 l 513 -49 b 399 -130 510 -112 454 -130 b 308 -77 349 -130 308 -115 b 431 -4 307 -47 339 -26 b 715 231 580 30 713 94 b 531 442 713 324 649 408 l 720 601 l 720 736 z "},"f":{"ha":-322,"x_min":0,"x_max":0,"o":""},"ḟ":{"ha":0,"x_min":0,"x_max":0,"o":""},"ʩ":{"ha":456,"x_min":0,"x_max":0,"o":"m 12 -551 l 269 -551 l 269 -134 l 269 -555 b 193 -620 269 -598 243 -621 b 118 -612 163 -621 141 -616 l 96 -818 b 221 -827 139 -825 179 -827 b 525 -555 407 -827 526 -739 l 525 -81 z "},"ʪ":{"ha":231,"x_min":0,"x_max":0,"o":"m 769 205 b 643 153 768 167 742 154 b 331 235 562 154 446 178 l 331 982 l 371 982 b 683 928 477 943 573 928 b 1041 1151 913 928 1040 1024 b 775 1379 1040 1286 947 1348 b 630 1451 684 1394 629 1407 b 713 1512 629 1492 671 1511 b 804 1434 778 1511 802 1487 l 1042 1434 b 714 1669 1042 1575 917 1669 b 404 1438 516 1669 403 1560 b 667 1215 403 1305 532 1244 b 809 1147 772 1192 808 1179 z "},"ʭ":{"ha":-219,"x_min":0,"x_max":0,"o":"m 604 385 l 35 385 l 35 0 l 210 0 l 210 252 l 430 252 l 430 0 l 604 0 z m 35 575 l 210 575 l 210 826 l 430 826 l 430 575 l 604 575 l 604 962 l 35 962 z "},"g":{"ha":12,"x_min":0,"x_max":0,"o":""},"ǵ":{"ha":0,"x_min":0,"x_max":0,"o":""},"ɣ":{"ha":83,"x_min":0,"x_max":0,"o":"m 475 -292 b 747 -100 644 -292 749 -230 b 684 104 746 -45 728 26 l 600 254 l 876 736 l 621 736 l 473 480 l 330 736 l 73 736 l 348 264 l 251 95 b 194 -99 210 25 194 -43 b 475 -292 196 -230 304 -292 z m 445 -92 b 476 27 445 -59 456 -18 b 502 -92 492 -14 501 -56 b 475 -132 501 -123 492 -132 b 445 -92 450 -132 445 -117 z "},"ǥ":{"ha":12,"x_min":0,"x_max":0,"o":"m 420 -292 b 804 0 650 -292 804 -186 b 913 161 1114 288 857 160 b NaN NaN 954 124 970 61 l NaN NaN l NaN NaN l NaN NaN z "},"ğ":{"ha":0,"x_min":0,"x_max":0,"o":""},"ǧ":{"ha":0,"x_min":0,"x_max":0,"o":""},"ĝ":{"ha":0,"x_min":0,"x_max":0,"o":""},"ģ":{"ha":12,"x_min":0,"x_max":0,"o":"m 27 472 l 193 472 l 195 559 b 243 742 195 643 225 714 l 125 789 b 27 567 62 753 27 679 z "},"ɡ":{"ha":12,"x_min":0,"x_max":0,"o":""},"ġ":{"ha":0,"x_min":0,"x_max":0,"o":""},"ɠ":{"ha":43,"x_min":0,"x_max":0,"o":"m 425 -292 l 425 -293 l 434 -293 b 544 -237 435 -248 496 -237 b 602 -241 563 -237 560 -237 l 602 -52 b 473 -43 571 -49 536 -43 b 179 -293 338 -43 178 -67 "},"ʔ":{"ha":-59,"x_min":0,"x_max":0,"o":"m 391 377 l 293 377 l 293 0 l 533 0 l 533 210 b 736 551 667 262 736 389 l 736 633 b 382 996 736 844 616 996 b 66 720 203 996 65 893 l 293 720 b 391 803 292 774 328 803 b 494 633 488 803 493 724 l 494 551 b 391 377 493 441 475 377 z "},"ʡ":{"ha":-59,"x_min":0,"x_max":0,"o":"m 667 216 l 545 216 b 736 551 671 270 736 394 l 736 633 b 382 996 736 844 616 996 b 66 720 203 996 65 893 l 293 720 b 391 803 292 774 328 803 b 494 633 488 803 493 724 l 494 551 b 391 377 493 441 475 377 l 293 377 l 293 216 l 160 216 l 160 83 l 293 83 l 293 0 l 533 0 l 533 83 l 667 83 z "},"ƾ":{"ha":-56,"x_min":0,"x_max":0,"o":"m 502 205 b 410 148 502 165 465 149 b 296 229 356 149 300 168 l 71 229 b 404 -14 72 120 188 -14 b 734 209 606 -14 734 82 b 490 541 734 432 499 354 l 612 541 l 612 713 l 490 713 l 490 895 l 247 895 l 247 713 l 156 713 l 156 541 l 247 541 b 502 205 256 277 502 298 z "},"ʢ":{"ha":0,"x_min":0,"x_max":0,"o":"l 0 -59 l -19 -59 l -19 -195 l -159 -195 l -159 -59 l -205 -59 l -205 184 l -159 184 l -159 317 l -19 317 l -19 184 l 174 184 "},"ʖ":{"ha":-59,"x_min":0,"x_max":0,"o":"m 391 636 b 494 464 491 636 494 544 l 494 351 b 391 180 494 279 491 181 b 293 282 322 181 292 224 l 66 282 b 385 -14 65 89 200 -14 b 736 351 616 -14 736 141 l 736 464 b 514 810 736 632 661 762 l 514 982 l 271 982 l 271 636 z "},"ʕ":{"ha":0,"x_min":0,"x_max":0,"o":"l 0 -59 l -205 -59 l -205 184 l 174 184 "},"ḡ":{"ha":0,"x_min":0,"x_max":0,"o":""},"ȝ":{"ha":-55,"x_min":0,"x_max":0,"o":"m 172 254 l 172 81 b 475 197 295 117 395 155 b 486 142 481 182 486 163 b 172 -114 485 47 411 -18 l 172 -288 b 728 129 540 -202 728 -61 b 625 303 728 211 692 269 b 715 511 686 364 715 433 b 401 746 715 667 609 746 b 77 503 197 746 76 656 l 320 503 b 397 570 319 545 347 570 b 473 488 450 570 473 545 b 172 254 473 391 399 333 z "},"h":{"ha":7,"x_min":0,"x_max":0,"o":""},"ħ":{"ha":0,"x_min":0,"x_max":0,"o":""},"ḫ":{"ha":0,"x_min":0,"x_max":0,"o":""},"ḩ":{"ha":0,"x_min":0,"x_max":0,"o":"l 7 0 l 7 326 l 84 326 l 84 412 "},"ĥ":{"ha":0,"x_min":0,"x_max":0,"o":""},"ḧ":{"ha":0,"x_min":0,"x_max":0,"o":""},"ḣ":{"ha":0,"x_min":0,"x_max":0,"o":""},"ḥ":{"ha":0,"x_min":0,"x_max":0,"o":""},"ɧ":{"ha":6,"x_min":0,"x_max":0,"o":"m 545 416 l 545 -26 b 446 -83 546 -72 492 -82 b 388 -79 424 -82 407 -81 l 388 -269 b 514 -277 416 -271 452 -276 b 802 -26 671 -276 802 -238 l 1297 -26 l 1297 -34 l 1446 -34 b 1553 20 1446 12 1507 20 b 1611 16 1575 20 1592 18 l 1611 206 b 1485 214 1582 209 1546 214 b 1203 -34 1349 214 1202 193 l 1203 -781 l 1459 -781 l 1459 -365 z "},"ɦ":{"ha":6,"x_min":0,"x_max":0,"o":"m 312 598 l 312 747 b 419 802 312 793 373 802 b 477 798 441 802 458 800 l 477 987 b 351 996 448 990 412 996 b 69 747 215 996 68 974 l 69 0 l 326 0 l 326 416 z "},"ẖ":{"ha":7,"x_min":0,"x_max":0,"o":""},"ɥ":{"ha":7,"x_min":0,"x_max":0,"o":"m 543 320 b 431 199 543 245 498 199 b 321 320 361 199 321 244 l 321 736 l 65 736 l 65 267 b 323 -9 65 104 167 -9 b 544 138 431 -9 511 45 l 552 138 l 552 -245 l 799 -245 l 799 736 l 543 736 z "},"ʯ":{"ha":0,"x_min":0,"x_max":0,"o":"l 135 0 l 135 -164 b 417 -415 134 -376 258 -414 b 546 -407 479 -414 514 -409 l 546 -217 b 488 -221 527 -219 505 -220 b 382 -164 439 -220 382 -210 l 382 598 l 125 598 l 125 182 "},"ʮ":{"ha":0,"x_min":0,"x_max":0,"o":"l 120 0 l 120 -415 l 367 -415 l 367 598 l 111 598 l 111 182 "},"ƕ":{"ha":494,"x_min":0,"x_max":0,"o":"m 69 0 l 326 0 l 326 416 l 326 285 b 652 -14 326 106 433 -14 b 1065 666 957 -14 1065 221 l 1065 736 l 808 736 l 808 666 b 661 195 808 370 771 195 b 582 285 613 195 582 227 l 766 285 l 766 669 l 519 669 z "},"i":{"ha":-467,"x_min":0,"x_max":0,"o":""},"ı":{"ha":-467,"x_min":0,"x_max":0,"o":""},"í":{"ha":0,"x_min":0,"x_max":0,"o":""},"ɨ":{"ha":-467,"x_min":0,"x_max":0,"o":"m 0 597 z "},"ĭ":{"ha":0,"x_min":0,"x_max":0,"o":""},"ǐ":{"ha":0,"x_min":0,"x_max":0,"o":""},"î":{"ha":0,"x_min":0,"x_max":0,"o":""},"ȉ":{"ha":0,"x_min":0,"x_max":0,"o":""},"ï":{"ha":0,"x_min":0,"x_max":0,"o":""},"ḯ":{"ha":0,"x_min":0,"x_max":0,"o":""},"ị":{"ha":0,"x_min":0,"x_max":0,"o":""},"ì":{"ha":-467,"x_min":0,"x_max":0,"o":""},"ỉ":{"ha":0,"x_min":0,"x_max":0,"o":""},"ȋ":{"ha":0,"x_min":0,"x_max":0,"o":""},"ĳ":{"ha":0,"x_min":0,"x_max":0,"o":""},"ī":{"ha":-467,"x_min":0,"x_max":0,"o":""},"į":{"ha":-450,"x_min":0,"x_max":0,"o":"m 214 -267 b NaN NaN 951 -524 234 NaN "},"ĩ":{"ha":-465,"x_min":0,"x_max":0,"o":"m 71 0 "},"ḭ":{"ha":0,"x_min":0,"x_max":0,"o":""},"j":{"ha":0,"x_min":0,"x_max":0,"o":""},"ȷ":{"ha":-467,"x_min":0,"x_max":0,"o":"m 69 736 l 69 -22 l 833 -22 z "},"ǰ":{"ha":-467,"x_min":0,"x_max":0,"o":"m 69 736 l 69 -22 l 833 -22 "},"ĵ":{"ha":-467,"x_min":0,"x_max":0,"o":"m 69 736 l 69 -22 l 833 -22 "},"ʝ":{"ha":0,"x_min":0,"x_max":0,"o":""},"ɟ":{"ha":-467,"x_min":0,"x_max":0,"o":"m 69 736 l 69 526 l -339 526 l -339 940 l -213 940 l -213 1080 l -339 1080 l -339 1290 z "},"ʄ":{"ha":-186,"x_min":0,"x_max":0,"o":"m 214 766 "},"k":{"ha":-47,"x_min":0,"x_max":0,"o":""},"ḱ":{"ha":0,"x_min":0,"x_max":0,"o":""},"ǩ":{"ha":0,"x_min":0,"x_max":0,"o":""},"ķ":{"ha":0,"x_min":0,"x_max":0,"o":""},"ḳ":{"ha":0,"x_min":0,"x_max":0,"o":""},"ĸ":{"ha":0,"x_min":0,"x_max":0,"o":""},"ƙ":{"ha":-48,"x_min":0,"x_max":0,"o":"m 544 0 l 818 0 l 537 422 l 808 736 l 515 736 l 335 521 l 326 521 l 326 746 b 425 802 326 791 378 802 b 483 798 444 802 463 800 l 483 987 b 357 996 454 990 411 996 b 69 746 222 996 69 972 l 69 0 l 326 0 l 326 174 l 387 240 z "},"ḵ":{"ha":-47,"x_min":0,"x_max":0,"o":""},"ʞ":{"ha":-47,"x_min":0,"x_max":0,"o":"m 745 736 l 488 736 l 488 524 l 447 472 l 290 736 l -4 736 l 257 323 l 4 0 l 293 0 l 479 252 l 488 252 l 488 -245 l 745 -245 z "},"l":{"ha":-467,"x_min":0,"x_max":0,"o":""},"ĺ":{"ha":0,"x_min":0,"x_max":0,"o":""},"ƛ":{"ha":70,"x_min":0,"x_max":0,"o":"m 612 905 l 502 872 l 487 907 b 289 1024 455 983 390 1025 b 149 1008 255 1025 189 1019 l 157 829 b 202 830 178 830 190 830 b 277 806 237 830 260 821 l 144 766 l 144 624 l 317 677 l 71 0 l 328 0 l 457 389 l 544 146 b 774 -14 575 65 644 -14 b 863 -11 811 -14 840 -15 l 864 178 l 841 178 b 764 262 801 178 777 229 l 555 749 l 612 766 z "},"ƚ":{"ha":-467,"x_min":0,"x_max":0,"o":"m 326 982 l 69 982 l 69 582 l -373 582 l -373 838 l 69 838 l 69 964 l 209 964 l 209 838 z "},"ɬ":{"ha":-116,"x_min":0,"x_max":0,"o":"m 251 345 l 328 345 l 328 0 l 585 0 l 585 345 l 728 345 l 728 500 l 585 500 l 585 982 l 328 982 l 328 745 b 288 746 315 745 302 746 b 18 532 101 746 17 646 b 251 345 17 425 87 345 z m 225 538 b 283 576 224 557 250 576 b 328 505 315 576 328 552 l 328 500 l 281 500 b 225 538 241 500 224 521 z "},"ľ":{"ha":0,"x_min":0,"x_max":0,"o":""},"ḽ":{"ha":0,"x_min":0,"x_max":0,"o":""},"ļ":{"ha":0,"x_min":0,"x_max":0,"o":""},"ȴ":{"ha":-231,"x_min":0,"x_max":0,"o":"m 50 982 l 50 16 b -68 -54 9 -7 -31 -31 l -149 -107 l -34 -245 l 100 -148 b 357 -277 164 -241 276 -276 b 587 -64 499 -276 587 -163 b 377 129 587 35 504 129 b 307 121 355 129 331 126 l 307 982 z m 307 -39 l 307 -39 b 355 -34 323 -35 338 -34 b 396 -71 380 -34 395 -61 b 361 -113 395 -92 379 -113 b 307 -39 317 -113 306 -85 z "},"ŀ":{"ha":-231,"x_min":0,"x_max":0,"o":"m 332 982 "},"ḷ":{"ha":0,"x_min":0,"x_max":0,"o":""},"ḹ":{"ha":0,"x_min":0,"x_max":0,"o":""},"ǉ":{"ha":0,"x_min":0,"x_max":0,"o":""},"ḻ":{"ha":-467,"x_min":0,"x_max":0,"o":""},"ɫ":{"ha":-391,"x_min":0,"x_max":0,"o":"m 368 982 l 111 982 l 111 618 b -83 415 2 615 -83 548 l 76 415 b 111 483 75 450 89 473 z "},"ɭ":{"ha":-378,"x_min":0,"x_max":0,"o":"m 326 -26 l 326 982 l 69 982 l 69 -26 b 195 -18 130 -25 166 -20 l 195 172 b 137 168 176 170 157 169 b 38 225 91 169 37 179 z "},"ł":{"ha":-467,"x_min":0,"x_max":0,"o":"m 408 654 l 326 629 l 326 982 l 69 982 l 69 554 l -15 529 l -15 400 l 69 425 l 69 0 l 326 0 l 326 499 l 408 524 z "},"ɮ":{"ha":159,"x_min":0,"x_max":0,"o":"m 66 982 l 66 50 l 304 50 l 304 534 l 646 534 l 646 528 l 435 338 l 435 165 l 570 165 b 713 43 667 165 714 118 b 585 -83 714 -39 662 -83 b 468 -38 533 -83 492 -66 l 281 -189 b 582 -292 351 -254 457 -292 b 986 18 819 -292 984 -169 b 681 307 989 145 909 278 l 681 313 l 955 567 l 954 736 l 304 736 l 304 982 z "},"m":{"ha":404,"x_min":0,"x_max":0,"o":""},"ḿ":{"ha":0,"x_min":0,"x_max":0,"o":""},"ṁ":{"ha":0,"x_min":0,"x_max":0,"o":""},"ṃ":{"ha":0,"x_min":0,"x_max":0,"o":""},"ɱ":{"ha":404,"x_min":0,"x_max":0,"o":"m 943 433 l 943 -26 b 842 -47 942 -72 889 -82 b 837 302 837 14 836 173 b NaN NaN 875 302 1087 NaN l NaN NaN l NaN NaN l NaN NaN l NaN NaN b NaN NaN NaN NaN NaN NaN b NaN NaN NaN NaN NaN NaN l NaN NaN l NaN NaN l NaN NaN b NaN NaN NaN NaN NaN NaN b NaN NaN NaN NaN NaN NaN z "},"ɯ":{"ha":404,"x_min":0,"x_max":0,"o":"m 1195 736 l 1438 736 z "},"ɰ":{"ha":404,"x_min":0,"x_max":0,"o":"m 951 -277 l 1195 -277 l 1195 736 l 1194 736 z "},"n":{"ha":6,"x_min":0,"x_max":0,"o":""},"ń":{"ha":0,"x_min":0,"x_max":0,"o":""},"ň":{"ha":0,"x_min":0,"x_max":0,"o":""},"ṋ":{"ha":0,"x_min":0,"x_max":0,"o":""},"ņ":{"ha":0,"x_min":0,"x_max":0,"o":""},"ȵ":{"ha":253,"x_min":0,"x_max":0,"o":"m 326 416 l 326 114 b 236 24 297 91 267 62 l 153 -72 l 271 -172 l 341 -89 b 593 -228 380 -193 488 -229 b 863 -16 760 -228 863 -139 b 633 193 862 106 762 193 l 582 193 l 582 469 z m 1058 471 l 1058 518 b 1096 521 1074 521 1088 521 b 1147 469 1123 520 1147 502 b 1105 419 1147 438 1131 418 b 1058 471 1077 418 1059 438 z "},"ṅ":{"ha":0,"x_min":0,"x_max":0,"o":""},"ṇ":{"ha":0,"x_min":0,"x_max":0,"o":""},"ǌ":{"ha":0,"x_min":0,"x_max":0,"o":""},"ƞ":{"ha":6,"x_min":0,"x_max":0,"o":""},"ɲ":{"ha":66,"x_min":0,"x_max":0,"o":"m 127 0 l 127 -19 b 52 -84 128 -62 102 -84 b -23 -75 22 -84 -1 -81 l -45 -281 b 80 -290 -2 -289 37 -291 b 384 -19 266 -291 385 -202 l 384 0 l 385 0 l 385 416 b 496 537 385 492 429 538 b 605 416 566 538 606 492 l 605 0 l 861 0 l 861 469 z "},"ṉ":{"ha":6,"x_min":0,"x_max":0,"o":""},"ɳ":{"ha":60,"x_min":0,"x_max":0,"o":"m 802 -26 l 802 469 l 1218 469 l 1218 27 b 1504 -224 1219 -185 1347 -223 b 1633 -216 1568 -223 1602 -218 l 1633 -26 b 1575 -30 1592 -29 1594 -29 b 1474 27 1527 -29 1475 -19 z "},"ñ":{"ha":0,"x_min":0,"x_max":0,"o":""},"ŋ":{"ha":10,"x_min":0,"x_max":0,"o":"m 545 416 l 545 -4 b 469 -69 546 -47 520 -70 b 395 -61 440 -70 418 -66 l 373 -267 b 498 -277 416 -275 456 -276 b 802 -4 684 -276 802 -188 l 802 469 l 1218 469 z "},"o":{"ha":-20,"x_min":0,"x_max":0,"o":""},"ó":{"ha":0,"x_min":0,"x_max":0,"o":""},"ɵ":{"ha":-20,"x_min":0,"x_max":0,"o":""},"ŏ":{"ha":-20,"x_min":0,"x_max":0,"o":""},"ǒ":{"ha":-20,"x_min":0,"x_max":0,"o":""},"ô":{"ha":-20,"x_min":0,"x_max":0,"o":""},"ố":{"ha":0,"x_min":0,"x_max":0,"o":""},"ộ":{"ha":0,"x_min":0,"x_max":0,"o":""},"ồ":{"ha":-20,"x_min":0,"x_max":0,"o":""},"ổ":{"ha":0,"x_min":0,"x_max":0,"o":""},"ỗ":{"ha":-20,"x_min":0,"x_max":0,"o":""},"ȍ":{"ha":0,"x_min":0,"x_max":0,"o":""},"ö":{"ha":0,"x_min":0,"x_max":0,"o":""},"ọ":{"ha":0,"x_min":0,"x_max":0,"o":""},"ò":{"ha":-20,"x_min":0,"x_max":0,"o":""},"ỏ":{"ha":0,"x_min":0,"x_max":0,"o":""},"ơ":{"ha":18,"x_min":0,"x_max":0,"o":""},"ớ":{"ha":0,"x_min":0,"x_max":0,"o":""},"ợ":{"ha":0,"x_min":0,"x_max":0,"o":""},"ờ":{"ha":18,"x_min":0,"x_max":0,"o":""},"ở":{"ha":0,"x_min":0,"x_max":0,"o":""},"ỡ":{"ha":18,"x_min":0,"x_max":0,"o":""},"ő":{"ha":0,"x_min":0,"x_max":0,"o":""},"ƣ":{"ha":229,"x_min":0,"x_max":0,"o":"m 404 180 b 297 351 301 181 297 269 l 297 363 b 400 553 298 471 307 554 b 487 510 444 554 469 538 l 487 212 b 404 180 471 191 442 181 z m 58 351 b 410 -14 58 139 174 -14 b 728 159 597 -14 680 67 l 728 460 l 791 479 l 791 -277 l 1034 -277 l 1034 736 l 876 736 l 654 648 b 410 746 597 701 514 746 b 58 363 174 746 58 592 z "},"ȏ":{"ha":-20,"x_min":0,"x_max":0,"o":""},"ō":{"ha":-20,"x_min":0,"x_max":0,"o":""},"ṓ":{"ha":0,"x_min":0,"x_max":0,"o":""},"ṑ":{"ha":-20,"x_min":0,"x_max":0,"o":""},"ɷ":{"ha":498,"x_min":0,"x_max":0,"o":"m 681 553 b 982 312 898 554 983 436 b 901 180 981 222 954 181 b 811 336 847 181 810 222 l 811 463 l 549 463 l 549 336 b 460 180 550 222 513 181 b 378 312 408 181 380 222 b 681 553 378 436 463 554 z m 140 313 b 439 -14 140 140 224 -14 b 680 121 550 -14 631 33 b 921 -14 729 33 810 -14 b 1221 313 1137 -14 1221 140 b 681 746 1222 599 996 746 b 140 313 366 746 139 599 z "},"ǫ":{"ha":-20,"x_min":0,"x_max":0,"o":""},"ǭ":{"ha":-20,"x_min":0,"x_max":0,"o":""},"ɔ":{"ha":0,"x_min":0,"x_max":0,"o":""},"ø":{"ha":-20,"x_min":0,"x_max":0,"o":"m 71 -178 l 232 50 b 235 0 234 34 235 18 b 119 -191 235 -117 191 -191 b 71 -178 101 -191 85 -186 z "},"ǿ":{"ha":-20,"x_min":0,"x_max":0,"o":"m -56 -855 l -23 -394 l 138 -166 b 141 -216 140 -182 141 -198 b 26 -407 142 -332 98 -406 b -23 -394 7 -407 -9 -402 z "},"õ":{"ha":-20,"x_min":0,"x_max":0,"o":""},"ṍ":{"ha":0,"x_min":0,"x_max":0,"o":""},"ṏ":{"ha":-20,"x_min":0,"x_max":0,"o":"m -290 1187 b -184 1093 -291 1135 -242 1093 b -77 1187 -126 1093 -77 1135 b -184 1279 -77 1239 -128 1279 b -290 1187 -240 1279 -291 1239 z m -270 854 l -137 848 b -85 902 -136 888 -113 903 b 107 848 -15 903 22 848 b 269 1035 202 848 269 939 l 136 1040 b 83 986 136 1000 111 986 b -110 1038 16 986 -39 1038 b -270 854 -203 1038 -270 947 "},"œ":{"ha":447,"x_min":0,"x_max":0,"o":"m 425 -14 b 679 69 529 -14 615 16 b 936 -14 743 16 830 -14 b 686 -98 834 -14 749 -44 "},"p":{"ha":10,"x_min":0,"x_max":0,"o":""},"ṕ":{"ha":0,"x_min":0,"x_max":0,"o":""},"ṗ":{"ha":0,"x_min":0,"x_max":0,"o":""},"ɸ":{"ha":237,"x_min":0,"x_max":0,"o":"m 100 374 l 100 358 b 429 -7 100 106 245 17 l 429 -260 l 669 -260 l 669 -7 b 996 358 867 19 996 117 l 996 374 b 669 739 996 615 867 713 l 669 982 l 429 982 l 429 739 b 100 374 231 714 101 616 z m 345 358 l 345 374 b 429 537 344 473 380 517 l 429 195 b 345 358 380 214 344 258 z m 669 195 l 669 537 b 753 374 719 517 753 471 l 753 358 b 669 195 753 258 718 214 z "},"ƥ":{"ha":10,"x_min":0,"x_max":0,"o":"m 69 736 l 69 -277 l 326 -277 l 326 121 l 330 121 b 393 167 330 153 347 168 b 476 153 429 165 465 157 l 476 313 b 349 328 452 319 407 328 b 76 121 155 328 75 275 z m 327 -247 b NaN NaN 326 -246 437 NaN z "},"þ":{"ha":0,"x_min":0,"x_max":0,"o":""},"q":{"ha":10,"x_min":0,"x_max":0,"o":"m 545 -277 l 802 -277 l 802 736 l 548 736 l 548 609 l 541 609 l 545 609 "},"ʠ":{"ha":111,"x_min":0,"x_max":0,"o":"m 548 736 l 548 609 l 541 609 l 545 609 l 545 212 l 802 212 l 802 1225 b 867 1271 802 1257 820 1272 b 948 1257 902 1270 937 1261 l 948 1417 b 821 1432 924 1423 880 1432 b 548 1225 627 1432 548 1379 "},"ɋ":{"ha":100,"x_min":0,"x_max":0,"o":"m 831 -277 b 960 -269 889 -276 935 -271 l 960 -79 b 902 -83 940 -81 921 -82 b 802 -26 856 -82 802 -72 l 802 736 l 548 736 l 548 609 l 541 609 l 545 609 l 545 463 b 831 212 546 250 674 212 "},"r":{"ha":-281,"x_min":0,"x_max":0,"o":""},"ŕ":{"ha":0,"x_min":0,"x_max":0,"o":""},"ř":{"ha":0,"x_min":0,"x_max":0,"o":""},"ŗ":{"ha":0,"x_min":0,"x_max":0,"o":""},"ȑ":{"ha":0,"x_min":0,"x_max":0,"o":""},"ṙ":{"ha":0,"x_min":0,"x_max":0,"o":""},"ṛ":{"ha":0,"x_min":0,"x_max":0,"o":""},"ṝ":{"ha":0,"x_min":0,"x_max":0,"o":""},"ɾ":{"ha":-298,"x_min":0,"x_max":0,"o":"m 309 0 l 309 499 b 427 585 309 569 375 585 b 486 581 450 585 467 583 l 486 736 b 355 746 450 743 412 746 b 61 498 218 746 61 726 l 61 0 z "},"ɿ":{"ha":-294,"x_min":0,"x_max":0,"o":"m 506 -274 l 506 498 b 210 746 505 726 348 746 b 83 736 154 746 118 743 l 83 581 b 141 585 98 583 122 585 b 258 499 191 585 258 569 l 258 -274 z "},"ȓ":{"ha":0,"x_min":0,"x_max":0,"o":""},"ṟ":{"ha":-281,"x_min":0,"x_max":0,"o":""},"ɹ":{"ha":-281,"x_min":0,"x_max":0,"o":"m 510 736 l 254 736 l 254 349 l 115 349 l 115 597 z "},"ɺ":{"ha":-318,"x_min":0,"x_max":0,"o":"m 43 229 l 41 -5 b 104 -14 58 -13 81 -14 b 270 93 176 -14 233 25 l 277 0 l 503 0 l 503 1013 l 262 1013 l 262 284 b 122 224 241 243 197 224 b 43 229 105 224 62 227 z "},"ɻ":{"ha":-189,"x_min":0,"x_max":0,"o":"m 559 -288 b 688 -278 610 -288 648 -284 l 688 -118 b 627 -121 665 -119 652 -121 b 511 -24 547 -121 511 -92 l 511 0 l 510 0 l 510 736 l 254 736 l 254 349 l 76 349 b 373 100 76 135 213 100 z "},"s":{"ha":-73,"x_min":0,"x_max":0,"o":""},"ś":{"ha":0,"x_min":0,"x_max":0,"o":""},"ṥ":{"ha":-73,"x_min":0,"x_max":0,"o":"m 9 -384 l -210 -384 l -210 312 l -12 312 l 179 522 l -73 522 z "},"š":{"ha":0,"x_min":0,"x_max":0,"o":""},"ṧ":{"ha":-73,"x_min":0,"x_max":0,"o":"m -410 517 l -511 600 l -719 600 "},"ş":{"ha":-73,"x_min":0,"x_max":0,"o":"m 498 499 l 243 499 b 559 253 257 361 368 267 b NaN NaN 540 170 567 NaN l NaN NaN z "},"ŝ":{"ha":0,"x_min":0,"x_max":0,"o":""},"ș":{"ha":0,"x_min":0,"x_max":0,"o":""},"ṡ":{"ha":0,"x_min":0,"x_max":0,"o":""},"ṣ":{"ha":0,"x_min":0,"x_max":0,"o":""},"ṩ":{"ha":0,"x_min":0,"x_max":0,"o":""},"ß":{"ha":66,"x_min":0,"x_max":0,"o":"m 66 719 l 66 0 l 323 0 l 323 671 b 444 787 322 743 369 787 b 559 685 517 787 559 745 b 468 590 557 631 522 591 l 423 590 l 423 401 l 494 401 b 635 301 580 401 633 364 b 509 202 635 240 585 201 l 419 202 l 419 0 l 562 0 b 894 270 755 0 893 89 b 689 519 895 409 818 513 l 689 530 b 822 723 774 551 823 627 b 435 996 823 908 642 996 b 66 719 209 996 66 891 z "},"ẛ":{"ha":0,"x_min":0,"x_max":0,"o":""},"ẜ":{"ha":-323,"x_min":0,"x_max":0,"o":"m 16 385 l 110 416 l 110 0 l 366 0 l 366 499 l 499 543 l 499 736 l 366 694 l 366 762 l 366 612 l 273 582 z "},"ʂ":{"ha":-73,"x_min":0,"x_max":0,"o":"m 35 235 l 35 -50 b 283 -294 36 -203 130 -295 b 382 -285 321 -295 347 -293 l 382 -129 b 320 -133 359 -132 342 -133 b 222 -34 258 -133 222 -100 l 222 14 z "},"ſ":{"ha":-356,"x_min":0,"x_max":0,"o":"m 312 0 l 312 766 b 400 834 311 813 342 834 b 469 829 433 834 447 832 l 486 1013 b 369 1027 445 1021 407 1026 b 69 766 178 1026 68 937 l 69 0 z "},"t":{"ha":-318,"x_min":0,"x_max":0,"o":""},"ŧ":{"ha":-318,"x_min":0,"x_max":0,"o":"m 22 350 l 22 445 l -118 445 l -118 559 l 11 559 l 11 662 l -118 662 l -118 760 l 11 760 l 11 945 l -175 945 l -175 1040 l -273 1040 l -273 945 z "},"ť":{"ha":0,"x_min":0,"x_max":0,"o":""},"ʨ":{"ha":389,"x_min":0,"x_max":0,"o":"m 502 736 l 316 736 l 316 831 l -20 831 b 227 609 -22 688 55 609 b 476 677 331 610 411 639 b 723 604 539 630 623 604 b 1067 863 943 604 1068 731 b 842 1032 1067 968 985 1032 b 602 972 766 1032 686 1015 l 602 986 b 723 1171 602 1109 650 1171 b 831 1051 785 1171 824 1128 l 1070 1051 b 719 1363 1067 1240 932 1363 b 340 983 481 1363 340 1210 b 372 814 340 921 351 864 b 288 787 340 795 314 787 b 236 837 253 787 236 803 l 236 1168 l 365 1168 z m 680 817 b 795 850 722 838 763 851 b 833 827 822 851 833 840 b 770 799 833 810 817 800 b 680 817 736 799 706 804 z "},"ţ":{"ha":0,"x_min":0,"x_max":0,"o":"b -109 -218 -318 -134 -245 -201 b NaN NaN -129 -305 -100 NaN l NaN NaN l NaN NaN l NaN NaN l NaN NaN l NaN NaN l NaN NaN l NaN NaN l NaN NaN l NaN NaN "},"ṱ":{"ha":0,"x_min":0,"x_max":0,"o":""},"ț":{"ha":0,"x_min":0,"x_max":0,"o":""},"ȶ":{"ha":-108,"x_min":0,"x_max":0,"o":"m 184 913 l 184 736 l 90 736 l 90 551 l 184 551 l 184 273 b 22 137 130 236 74 191 l 122 3 b 222 96 155 38 189 69 b 469 -15 277 5 385 -16 b 720 198 669 -16 721 110 b 511 391 721 308 636 390 b 441 383 490 391 466 388 l 441 551 l 568 551 l 568 736 l 441 736 l 441 913 z m 441 199 l 441 219 b 488 227 459 224 475 227 b 529 190 513 227 530 211 b 491 148 530 165 513 148 b 441 199 461 148 440 170 z "},"ẗ":{"ha":0,"x_min":0,"x_max":0,"o":""},"ṫ":{"ha":0,"x_min":0,"x_max":0,"o":""},"ṭ":{"ha":0,"x_min":0,"x_max":0,"o":""},"ʧ":{"ha":257,"x_min":0,"x_max":0,"o":"m 189 895 l 189 713 l 96 713 l 96 541 l 189 541 l 189 243 b 429 -14 189 91 233 -14 b 654 23 515 -14 606 9 l 654 -16 b 552 -85 653 -59 618 -85 b 496 -80 524 -85 509 -83 l 498 -262 b 608 -277 526 -269 564 -276 b 898 -16 782 -276 898 -184 l 898 768 b 1001 837 898 814 936 836 b 1057 830 1029 836 1041 834 l 1055 1012 b 944 1027 1026 1020 990 1027 b 654 768 768 1027 653 937 l 654 713 l 429 713 l 429 895 z m 429 243 l 429 541 l 654 541 l 654 199 b 510 182 628 193 562 181 b 429 243 451 181 428 197 z "},"ƭ":{"ha":-150,"x_min":0,"x_max":0,"o":"m 555 713 l 431 713 l 431 774 b 555 861 431 848 506 862 b 610 856 578 862 600 858 l 610 1015 b 484 1027 577 1023 545 1026 b 191 774 326 1026 192 994 l 191 713 l 99 713 l 99 541 l 191 541 l 191 209 b 431 -14 192 52 277 -14 b 566 7 477 -14 521 -9 l 566 183 b 507 182 549 182 534 181 b 431 243 451 181 431 195 l 431 541 l 555 541 z "},"ṯ":{"ha":-318,"x_min":0,"x_max":0,"o":""},"ƽ":{"ha":112,"x_min":0,"x_max":0,"o":"m 419 300 b 511 311 433 307 464 311 b 614 248 575 311 614 286 b 517 183 614 206 583 183 b 406 228 452 183 412 193 l 165 220 b 517 -11 165 56 329 -12 b 856 227 756 -12 855 89 b 586 460 855 374 755 460 b 433 433 515 460 463 446 l 450 530 l 798 530 l 798 713 l 117 713 l 117 530 l 229 530 l 197 308 z "},"ƅ":{"ha":222,"x_min":0,"x_max":0,"o":"m 281 0 l -218 0 l -218 -209 l 24 -209 "},"ƨ":{"ha":-73,"x_min":0,"x_max":0,"o":"m 54 499 l 290 499 b 393 574 295 545 339 574 b 480 522 441 574 481 555 b 406 468 481 500 464 479 l 259 441 b 35 241 109 414 37 350 b 387 -14 37 85 184 -14 b 753 235 609 -14 737 85 l 498 235 b 385 160 490 187 447 161 b 296 212 334 161 297 179 b 382 269 297 241 323 258 l 511 292 b 735 507 661 319 735 393 b 399 746 735 660 606 746 b 54 499 189 746 62 653 z "},"ƫ":{"ha":0,"x_min":0,"x_max":0,"o":"b -64 -220 -309 -144 -223 -212 l -64 -236 b -183 -320 -63 -308 -137 -320 b -243 -316 -208 -320 -225 -318 l -243 -473 b -145 -484 -208 -481 -182 -485 b 98 -236 7 -485 97 -395 l 98 -4 l 1 -24 b -50 26 -34 -22 -50 -8 l -50 340 l 79 340 "},"ʈ":{"ha":-314,"x_min":0,"x_max":0,"o":"m 502 736 l 316 736 l 316 831 l -289 831 b -16 610 -291 677 -195 602 b 109 633 41 614 87 625 l 72 814 b 20 807 62 812 36 807 b -33 856 -16 807 -33 822 l -33 1436 l 96 1436 z "},"ʦ":{"ha":357,"x_min":0,"x_max":0,"o":"m 163 895 l 163 736 l 72 736 l 72 564 l 163 564 l 163 256 b 404 0 162 60 262 0 l 821 0 b 1152 213 1021 0 1150 82 b 883 437 1150 342 1055 407 b 739 522 802 450 739 463 b 822 589 739 569 778 588 b 911 492 878 588 910 557 l 1153 492 b 822 746 1152 652 1023 746 b 725 736 787 746 754 743 l 404 736 l 404 895 z m 404 256 l 404 564 l 518 564 b 511 510 513 547 511 528 b 776 273 511 382 605 304 b 918 227 861 257 918 254 b 827 194 918 205 886 195 l 480 194 b 404 256 414 195 404 216 z "},"ʇ":{"ha":-318,"x_min":0,"x_max":0,"o":"m 41 0 l 170 0 l 170 -176 l 426 -176 l 426 0 l 521 0 l 521 186 l 426 186 l 426 526 b 153 747 428 680 332 747 b 31 738 96 747 55 743 l 31 547 b 117 551 60 549 98 551 b 170 500 153 549 170 535 l 170 186 l 41 186 z "},"u":{"ha":10,"x_min":0,"x_max":0,"o":""},"ú":{"ha":0,"x_min":0,"x_max":0,"o":""},"ʉ":{"ha":89,"x_min":0,"x_max":0,"o":"m 949 490 l 841 490 l 841 736 l 585 736 l 585 490 l 365 490 l 365 736 l 109 736 l 109 490 l 0 490 l 0 354 l 109 354 l 109 267 l -31 267 l -31 510 l 323 510 l 323 618 z m -262 585 l -262 618 l -42 618 l -42 586 z "},"ŭ":{"ha":0,"x_min":0,"x_max":0,"o":""},"ǔ":{"ha":0,"x_min":0,"x_max":0,"o":""},"û":{"ha":0,"x_min":0,"x_max":0,"o":""},"ṷ":{"ha":0,"x_min":0,"x_max":0,"o":""},"ȕ":{"ha":0,"x_min":0,"x_max":0,"o":""},"ü":{"ha":0,"x_min":0,"x_max":0,"o":""},"ǘ":{"ha":0,"x_min":0,"x_max":0,"o":""},"ṳ":{"ha":10,"x_min":0,"x_max":0,"o":"m 378 0 z "},"ǚ":{"ha":10,"x_min":0,"x_max":0,"o":"m 363 0 b 828 -749 860 -418 879 -749 b 934 -790 829 -749 878 -790 b 1042 -698 994 -790 1042 -749 b 934 -604 1042 -646 994 -604 b 828 -698 878 -604 829 -646 z "},"ǜ":{"ha":0,"x_min":0,"x_max":0,"o":""},"ǖ":{"ha":0,"x_min":0,"x_max":0,"o":""},"ụ":{"ha":0,"x_min":0,"x_max":0,"o":""},"ù":{"ha":0,"x_min":0,"x_max":0,"o":""},"ủ":{"ha":0,"x_min":0,"x_max":0,"o":""},"ư":{"ha":163,"x_min":0,"x_max":0,"o":""},"ứ":{"ha":0,"x_min":0,"x_max":0,"o":""},"ự":{"ha":0,"x_min":0,"x_max":0,"o":""},"ừ":{"ha":163,"x_min":0,"x_max":0,"o":""},"ử":{"ha":0,"x_min":0,"x_max":0,"o":""},"ữ":{"ha":0,"x_min":0,"x_max":0,"o":""},"ű":{"ha":0,"x_min":0,"x_max":0,"o":""},"ȗ":{"ha":0,"x_min":0,"x_max":0,"o":""},"ū":{"ha":10,"x_min":0,"x_max":0,"o":""},"ṻ":{"ha":10,"x_min":0,"x_max":0,"o":"m 50 -273 l -350 -273 l -350 111 l 130 111 l 130 231 l -350 231 z m -37 382 b 71 290 -37 332 14 290 b 176 382 127 290 176 332 b 71 476 176 436 126 476 b -37 382 14 476 -37 436 z "},"ǹ":{"ha":6,"x_min":0,"x_max":0,"o":""},"ȟ":{"ha":0,"x_min":0,"x_max":0,"o":""},"ȡ":{"ha":108,"x_min":0,"x_max":0,"o":"m 340 -9 b 544 117 444 -10 513 45 l 544 -2 l 362 -133 l 460 -282 l 596 -186 b 852 -277 642 -243 723 -276 b 1122 -107 1036 -276 1123 -212 b 837 85 1123 5 1024 85 b 806 85 826 85 816 85 l 806 982 l 549 982 l 549 609 l 545 609 z m 1034 160 l 1034 133 l 1412 133 l 1412 154 b 1449 163 1426 159 1438 162 b 1523 113 1502 165 1524 140 b 1470 73 1524 89 1500 73 b 1412 133 1439 73 1413 89 z "},"ȣ":{"ha":74,"x_min":0,"x_max":0,"o":"m 461 442 l 475 442 b 606 312 566 441 607 385 b 475 180 607 237 566 181 l 461 180 b 327 311 374 181 327 237 b 461 442 327 385 374 441 z m 84 311 b 461 -14 84 102 239 -14 l 475 -14 b 850 312 694 -14 850 102 b 751 536 850 415 813 488 b 850 754 814 581 850 652 b 549 1027 850 939 729 1028 l 549 840 b 610 749 579 832 610 804 b 473 633 610 670 570 634 l 461 633 b 327 749 366 634 327 669 b 385 840 327 804 355 832 l 385 1027 b 84 754 203 1028 84 935 b 183 536 84 652 121 582 b 84 311 121 488 84 414 z "},"ȧ":{"ha":-66,"x_min":0,"x_max":0,"o":""},"ȩ":{"ha":-43,"x_min":0,"x_max":0,"o":"m 41 366 b -178 350 41 366 -178 487 b -344 325 -178 552 -199 325 b -724 NaN -496 325 -724 324 "},"ȫ":{"ha":0,"x_min":0,"x_max":0,"o":""},"ȭ":{"ha":-20,"x_min":0,"x_max":0,"o":"m -271 854 l -137 848 b -87 902 -137 888 -114 903 b 106 848 -15 903 22 848 b 269 1035 201 848 269 939 z m 298 1305 l 779 1305 l 779 1424 l 298 1424 z "},"ȯ":{"ha":-20,"x_min":0,"x_max":0,"o":""},"ȱ":{"ha":0,"x_min":0,"x_max":0,"o":""},"ȳ":{"ha":-48,"x_min":0,"x_max":0,"o":""},"ȸ":{"ha":463,"x_min":0,"x_max":0,"o":"m 1240 358 l 1240 372 b 959 746 1239 597 1132 746 b 784 671 884 746 827 718 l 784 982 l 540 982 l 540 671 b 365 746 497 718 440 746 b 84 372 192 746 85 597 l 84 358 b 363 -14 85 140 192 -14 b 553 77 448 -14 509 21 l 564 0 z m -347 0 l -347 220 l -286 220 l -286 233 b -176 416 -286 347 -260 417 b -74 351 -128 417 -94 395 l -74 102 b -177 41 -94 62 -129 41 b -286 220 -271 41 -286 121 z m 170 102 l 170 351 b 273 416 191 395 225 417 b 383 233 356 417 382 347 l 383 220 b 273 41 382 121 367 41 b 170 102 225 41 191 62 z "},"ȹ":{"ha":463,"x_min":0,"x_max":0,"o":"m 540 -274 l 540 -30 l 876 -30 l 876 -16 b 595 358 875 209 768 358 b 412 275 515 358 456 327 l 402 349 l 208 349 l 191 266 b 1 358 146 323 85 358 b -280 -16 -172 358 -279 209 l -280 -30 b -1 -401 -279 -248 -172 -401 b 176 -326 75 -401 132 -373 z m -36 -30 l -36 -16 b 74 167 -37 98 -10 168 b 176 102 121 168 155 145 l 176 -147 b 73 -209 155 -188 121 -209 b -36 -30 -21 -209 -37 -128 z m 420 -147 l 420 102 b 523 167 440 145 475 168 b 633 -16 606 168 632 98 l 633 -30 b 523 -209 632 -128 616 -209 b 420 -147 475 -209 440 -188 z "},"ȼ":{"ha":-47,"x_min":0,"x_max":0,"o":"m 675 982 l 541 982 l 467 744 b 420 746 452 745 437 746 b 41 366 183 746 41 593 b 243 22 41 204 114 79 l 151 -277 l 283 -277 l 366 -11 b 420 -14 384 -13 401 -14 b 772 302 635 -14 768 111 l 533 302 b 427 182 527 225 484 183 l 521 486 b 533 434 527 471 531 454 l 772 434 b 592 713 770 566 704 665 z m 302 369 b 408 553 303 482 344 544 l 319 264 b 302 369 309 292 302 327 z "},"ȿ":{"ha":-68,"x_min":0,"x_max":0,"o":"m 498 499 l 243 499 b 298 366 248 448 267 403 l 401 191 b 667 -12 454 99 528 -12 b 892 85 769 -12 839 43 l 821 210 b 678 153 787 182 743 153 b 557 253 637 153 610 167 b 609 251 574 252 591 251 b 960 506 812 251 959 350 b 736 705 959 614 886 678 l 590 732 b 515 787 532 743 515 764 b 602 838 515 819 554 839 b 705 764 656 839 701 810 z "},"ɀ":{"ha":68,"x_min":0,"x_max":0,"o":"m 395 194 l 395 189 l 260 189 l 260 439 b 674 163 437 439 441 163 b 897 260 771 163 843 212 l 815 427 b 699 369 793 409 743 368 b 330 633 567 368 563 634 z "},"ɂ":{"ha":-55,"x_min":0,"x_max":0,"o":"m 80 450 l 324 450 b 404 553 323 522 346 554 b 483 458 459 554 481 522 b 363 339 481 376 443 339 l 281 339 l 281 0 l 524 0 l 524 218 b 726 463 652 241 725 329 b 400 746 725 637 599 746 b 80 450 209 746 80 628 z "},"ɇ":{"ha":-43,"x_min":0,"x_max":0,"o":"m 675 982 l 541 982 l 467 743 b 414 746 450 745 432 746 b 41 366 186 746 41 594 b 243 20 41 196 115 75 l 151 -277 l 283 -277 l 366 -11 b 419 -14 383 -13 401 -14 b 776 235 621 -14 751 83 l 541 235 b 425 168 525 192 481 168 l 422 168 l 465 308 l 777 308 l 777 369 b 590 709 777 534 707 652 z m 294 298 l 294 308 l 332 308 l 309 233 b 294 298 299 252 294 274 z m 294 452 b 412 564 296 515 347 562 l 376 452 z m 510 452 l 527 505 b 540 452 535 489 540 471 z "},"ɉ":{"ha":-467,"x_min":0,"x_max":0,"o":"m 69 736 l 69 526 l -339 526 l -339 940 l -213 940 l -213 1080 l -339 1080 l -339 1290 "},"ɍ":{"ha":-281,"x_min":0,"x_max":0,"o":"m 69 0 l 326 0 l 326 289 l 452 289 l 452 429 l 330 429 b 464 530 345 491 397 530 b 560 517 492 530 535 526 l 560 738 b 494 746 540 743 516 747 b 326 598 414 747 352 700 l 317 598 l 317 736 l 69 736 l 69 429 l -60 429 l -60 289 l 69 289 z "},"ɏ":{"ha":-36,"x_min":0,"x_max":0,"o":"m 815 480 l 727 480 l 814 736 l 545 736 l 482 480 l 349 480 l 288 736 l 20 736 l 107 480 l 9 480 l 9 369 l 144 369 b NaN NaN 279 -31 426 401 l NaN NaN l NaN NaN z m NaN NaN l NaN NaN l NaN NaN l NaN NaN z "},"ʙ":{"ha":0,"x_min":0,"x_max":0,"o":""},"ʜ":{"ha":0,"x_min":0,"x_max":0,"o":"l -55 0 l -55 240 l 682 240 l 682 0 l 412 0 l 412 -194 "},"ʫ":{"ha":265,"x_min":0,"x_max":0,"o":"m 1048 194 l 730 194 l 1040 601 l 1040 736 l 326 736 l 326 982 l 868 982 l 868 1377 l 557 968 l 557 834 l 1196 834 z "},"ʬ":{"ha":-17,"x_min":0,"x_max":0,"o":"m 271 962 l 113 962 l 217 575 l 345 575 l 422 766 l 499 575 l 627 575 l 731 962 l 571 962 l 538 802 l 482 953 l 484 962 l 361 962 l 362 958 l 305 798 z m 113 385 l 217 0 l 345 0 l 422 191 l 499 0 l 627 0 l 731 385 l 571 385 l 537 225 l 482 376 l 484 385 l 361 385 l 362 381 l 305 224 l 271 385 z "},"ẝ":{"ha":-322,"x_min":0,"x_max":0,"o":"m 363 0 l 363 652 l 509 652 l 509 791 l 368 791 b 468 836 380 821 416 836 b 525 830 493 836 511 833 l 524 1012 b 412 1027 494 1019 454 1026 b 121 791 245 1026 132 945 l 15 791 l 15 652 l 121 652 l 121 0 z "},"ẟ":{"ha":109,"x_min":0,"x_max":0,"o":"m 283 817 b 407 640 284 747 323 690 l 408 636 b 199 349 287 605 199 485 l 199 336 b 568 -14 199 127 346 -14 b 935 354 787 -14 934 134 l 935 368 b 587 755 934 553 821 680 b 509 811 530 774 509 791 b 605 850 509 838 537 850 b 758 825 663 850 720 840 l 758 1000 b 582 1027 694 1018 640 1026 b 283 817 399 1026 283 944 z m 438 372 l 438 381 b 568 560 438 488 489 560 b 694 381 640 547 694 469 l 694 372 b 568 179 694 254 647 179 b 438 372 488 179 438 254 z "},"ỻ":{"ha":262,"x_min":0,"x_max":0,"o":"m 1034 933 l 857 933 l 857 982 l 601 982 l 601 933 l 490 933 l 490 982 l 232 982 l 232 933 l 90 933 l 90 800 l 232 800 l 232 0 l 490 0 l 490 800 l 601 800 l 601 0 l 857 0 l 857 800 l 1034 800 z "},"ỽ":{"ha":109,"x_min":0,"x_max":0,"o":"m 633 637 l 513 472 b 609 300 577 423 609 370 b 491 180 609 224 560 181 b 365 336 395 181 365 240 l 365 410 b 731 864 365 675 565 807 l 656 1048 b 122 422 368 997 122 760 l 122 378 b 498 -14 122 113 287 -14 b 852 316 699 -14 852 102 b 633 637 852 457 748 574 z "},"ỿ":{"ha":64,"x_min":0,"x_max":0,"o":"m 411 736 l 151 736 l 310 307 b 16 7 146 300 15 167 b 315 -288 15 -153 151 -288 b 640 -7 469 -288 557 -224 l 918 736 l 661 736 l 528 310 l 524 336 z m 222 7 b 321 107 221 73 265 108 b 416 7 375 108 415 73 b 321 -87 415 -56 373 -87 b 222 7 267 -87 221 -56 z "},"ↄ":{"ha":0,"x_min":0,"x_max":0,"o":""},"ų":{"ha":10,"x_min":0,"x_max":0,"o":"m 545 321 l 444 321 l 444 286 l 403 286 l 403 275 l 329 275 l 329 294 l 264 294 l 264 317 l 184 317 l 184 380 l 138 380 l 138 468 l 138 468 l 138 1204 l -118 1204 z "},"ʊ":{"ha":75,"x_min":0,"x_max":0,"o":"m 469 179 b 321 293 359 179 321 231 b 388 600 321 389 387 475 b 104 746 387 715 304 746 l 104 567 b 137 536 132 566 138 548 b 81 225 138 459 82 375 b 469 -14 82 136 155 -14 b 857 225 781 -14 857 136 b 799 536 857 375 798 459 b 830 567 798 548 804 566 l 830 746 b 552 600 637 746 552 715 b 614 293 552 475 614 389 b 469 179 614 231 581 179 z "},"ů":{"ha":0,"x_min":0,"x_max":0,"o":""},"ũ":{"ha":0,"x_min":0,"x_max":0,"o":""},"ṹ":{"ha":0,"x_min":0,"x_max":0,"o":""},"ṵ":{"ha":0,"x_min":0,"x_max":0,"o":""},"v":{"ha":-48,"x_min":0,"x_max":0,"o":""},"ṿ":{"ha":0,"x_min":0,"x_max":0,"o":""},"ʋ":{"ha":-56,"x_min":0,"x_max":0,"o":"m 400 -14 b 746 274 604 -14 745 69 l 746 513 b 533 746 745 666 673 746 b 370 718 488 746 437 738 l 395 552 b 418 553 401 553 410 553 b 505 456 473 553 504 517 l 505 274 b 400 179 504 216 471 179 b 300 274 328 179 299 216 l 300 736 l 57 736 l 57 274 b 400 -14 56 69 197 -14 z "},"ṽ":{"ha":0,"x_min":0,"x_max":0,"o":""},"ʌ":{"ha":-48,"x_min":0,"x_max":0,"o":"m 9 0 l 278 0 l 403 492 l 410 492 l 533 0 l 803 0 l 555 736 l 258 736 z "},"w":{"ha":315,"x_min":0,"x_max":0,"o":""},"ẃ":{"ha":0,"x_min":0,"x_max":0,"o":""},"ŵ":{"ha":0,"x_min":0,"x_max":0,"o":""},"ẅ":{"ha":0,"x_min":0,"x_max":0,"o":""},"ẇ":{"ha":0,"x_min":0,"x_max":0,"o":""},"ẉ":{"ha":0,"x_min":0,"x_max":0,"o":""},"ẁ":{"ha":0,"x_min":0,"x_max":0,"o":""},"ẘ":{"ha":0,"x_min":0,"x_max":0,"o":""},"ʍ":{"ha":315,"x_min":0,"x_max":0,"o":"m 975 736 l 699 736 l 591 332 l 585 332 l 477 736 l 201 736 l 15 0 l 271 0 l 357 452 l 362 452 l 463 0 l 712 0 l 810 456 l 817 456 l 905 0 l 1161 0 z "},"ƿ":{"ha":82,"x_min":0,"x_max":0,"o":"m 122 -274 l 365 -274 l 365 -119 b 821 351 660 -41 821 92 l 821 387 b 530 746 821 602 718 746 b 357 668 454 746 399 716 l 350 736 l 122 736 z m 365 67 l 365 507 b 469 555 383 541 416 555 b 578 387 556 555 578 478 l 578 351 b 365 67 578 204 495 106 z "},"x":{"ha":-60,"x_min":0,"x_max":0,"o":""},"ẍ":{"ha":0,"x_min":0,"x_max":0,"o":""},"ẋ":{"ha":0,"x_min":0,"x_max":0,"o":""},"y":{"ha":-48,"x_min":0,"x_max":0,"o":""},"ý":{"ha":0,"x_min":0,"x_max":0,"o":""},"ŷ":{"ha":0,"x_min":0,"x_max":0,"o":""},"ÿ":{"ha":0,"x_min":0,"x_max":0,"o":""},"ẏ":{"ha":0,"x_min":0,"x_max":0,"o":""},"ỵ":{"ha":0,"x_min":0,"x_max":0,"o":""},"ỳ":{"ha":-48,"x_min":0,"x_max":0,"o":""},"ƴ":{"ha":3,"x_min":0,"x_max":0,"o":"m 225 -277 b 541 -64 406 -276 503 -186 l 766 654 b 802 699 774 678 785 692 b 850 697 812 703 828 703 l 890 899 b 761 914 853 909 807 915 b 534 704 640 915 570 838 l 408 222 l 400 222 l 277 736 l 9 736 l 269 -31 l 262 -47 b 126 -68 243 -92 192 -91 l 71 -251 b 225 -277 109 -267 165 -276 z "},"ỷ":{"ha":0,"x_min":0,"x_max":0,"o":""},"ẙ":{"ha":0,"x_min":0,"x_max":0,"o":""},"ỹ":{"ha":0,"x_min":0,"x_max":0,"o":""},"ʎ":{"ha":-48,"x_min":0,"x_max":0,"o":"m 597 1013 b 281 800 407 1013 321 922 l 9 0 l 278 0 l 404 514 l 412 514 l 536 0 l 803 0 l 544 768 l 549 781 b 627 821 564 817 590 821 b 723 818 655 821 688 821 l 723 1009 b 597 1013 690 1012 645 1013 z "},"z":{"ha":-66,"x_min":0,"x_max":0,"o":""},"ź":{"ha":0,"x_min":0,"x_max":0,"o":""},"ƶ":{"ha":-66,"x_min":0,"x_max":0,"o":"m 75 0 l 156 103 l 319 103 l 319 243 l 267 243 l 374 378 l 374 536 l -244 536 l -244 340 l 72 340 l 72 336 l -6 243 l -193 243 l -193 103 l -122 103 l -256 -58 z "},"ž":{"ha":0,"x_min":0,"x_max":0,"o":""},"ẑ":{"ha":0,"x_min":0,"x_max":0,"o":""},"ʑ":{"ha":172,"x_min":0,"x_max":0,"o":"m 75 0 l 359 0 l 288 -103 l 437 -191 l 578 0 l 743 0 b 1008 235 920 0 1007 120 b 812 429 1007 353 916 429 b 498 194 709 429 621 356 z m 1145 254 b 1086 318 1037 283 1074 299 b 1076 347 1086 333 1086 346 b 1038 292 1068 346 1046 335 b NaN NaN 1037 NaN NaN NaN z "},"ż":{"ha":0,"x_min":0,"x_max":0,"o":""},"ẓ":{"ha":0,"x_min":0,"x_max":0,"o":""},"ȥ":{"ha":-73,"x_min":0,"x_max":0,"o":"m 540 -137 l 540 -194 l 749 -194 l 749 -94 b 437 194 749 90 638 195 l 437 146 l -175 146 l -175 -47 l 122 -47 l -194 -456 l -194 -590 l 168 -590 b 271 -727 258 -590 272 -667 z "},"ẕ":{"ha":-66,"x_min":0,"x_max":0,"o":""},"ʐ":{"ha":33,"x_min":0,"x_max":0,"o":"m 557 0 l 557 -39 b 800 -288 557 -197 645 -288 b 894 -278 833 -288 859 -286 l 894 -121 b 834 -125 871 -123 858 -124 b 718 -39 785 -124 718 -107 l 718 197 l 406 197 l 406 201 l 406 58 z "},"ａ":{"ha":441,"x_min":0,"x_max":0,"o":""},"ｂ":{"ha":441,"x_min":0,"x_max":0,"o":"m 283 0 "},"ｃ":{"ha":441,"x_min":0,"x_max":0,"o":"m 665 -14 z "},"ｄ":{"ha":441,"x_min":0,"x_max":0,"o":"m 553 -9 l 297 -9 l 297 -382 l 293 -382 "},"ｅ":{"ha":441,"x_min":0,"x_max":0,"o":"m 662 -14 b 289 -393 435 -14 290 -165 b 667 -773 290 -631 433 -773 "},"ｆ":{"ha":441,"x_min":0,"x_max":0,"o":"m 886 736 l 750 736 l 750 762 b 834 833 750 813 783 832 b 898 829 844 832 865 831 l 898 1015 b 755 1028 854 1023 813 1028 b 494 762 596 1028 494 941 l 494 736 l 399 736 l 399 551 l 494 551 l 494 0 l 750 0 l 750 551 l 886 551 z "},"ｇ":{"ha":441,"x_min":0,"x_max":0,"o":"m 636 -292 "},"ｈ":{"ha":441,"x_min":0,"x_max":0,"o":"m 543 416 l 126 416 l 126 673 l 595 673 l 595 1057 l 349 1057 l 349 75 l 605 75 z "},"ｉ":{"ha":441,"x_min":0,"x_max":0,"o":"m 524 0 z "},"ｊ":{"ha":441,"x_min":0,"x_max":0,"o":"m 524 736 l 524 -22 l 1287 -22 "},"ｋ":{"ha":441,"x_min":0,"x_max":0,"o":"m 313 0 z "},"ｌ":{"ha":441,"x_min":0,"x_max":0,"o":"m 780 982 z "},"ｍ":{"ha":441,"x_min":0,"x_max":0,"o":"m 88 0 z "},"ｎ":{"ha":441,"x_min":0,"x_max":0,"o":"m 544 416 l 800 416 z "},"ｏ":{"ha":441,"x_min":0,"x_max":0,"o":"m 651 -14 z "},"ｐ":{"ha":441,"x_min":0,"x_max":0,"o":"m 285 -277 l 541 -277 l 541 121 l 545 121 l 292 121 z "},"ｑ":{"ha":441,"x_min":0,"x_max":0,"o":"m 761 -277 l 1017 -277 l 1017 736 l 764 736 l 764 609 l 757 609 l 761 609 "},"ｒ":{"ha":441,"x_min":0,"x_max":0,"o":"m 431 0 "},"ɼ":{"ha":-262,"x_min":0,"x_max":0,"o":"m 69 -277 l 326 -277 l 326 388 b 452 528 326 473 383 528 b 524 510 479 528 502 519 l 598 719 b 494 746 569 736 532 747 b 326 598 414 747 353 700 l 317 598 l 317 736 l 69 736 z "},"ɽ":{"ha":0,"x_min":0,"x_max":0,"o":"b 140 -205 0 -262 85 -205 b 208 NaN 209 -205 208 NaN b 280 NaN 235 NaN 258 NaN l 355 NaN b 250 NaN 326 NaN 288 NaN b 82 NaN 171 NaN 109 NaN l 74 NaN l 74 NaN l -174 NaN l -174 NaN "},"ｓ":{"ha":441,"x_min":0,"x_max":0,"o":"m 755 499 l 500 499 z "},"ｔ":{"ha":441,"x_min":0,"x_max":0,"o":"m 882 736 l 882 551 l 977 551 l 977 210 l 1291 210 l 1291 339 z "},"ｕ":{"ha":441,"x_min":0,"x_max":0,"o":"m 761 321 l 1497 321 l 1497 65 z "},"ｖ":{"ha":441,"x_min":0,"x_max":0,"o":"m 1048 736 l 779 736 z "},"ｗ":{"ha":441,"x_min":0,"x_max":0,"o":"m 264 0 l 541 0 l 648 404 l 655 404 l 762 0 l 1039 0 l 1225 736 l 968 736 l 883 285 l 878 285 l 777 736 l 528 736 l 430 281 l 423 281 l 335 736 l 79 736 z "},"ｘ":{"ha":441,"x_min":0,"x_max":0,"o":"m 540 736 l 330 368 z "},"ｙ":{"ha":441,"x_min":0,"x_max":0,"o":"m 461 -277 l 732 524 z "},"ｚ":{"ha":441,"x_min":0,"x_max":0,"o":"m 328 0 z "},"ₔ":{"ha":-181,"x_min":0,"x_max":0,"o":"m 311 260 b 95 170 205 261 130 213 l 171 76 b 301 126 206 116 260 127 b 433 38 366 127 418 92 l 81 38 l 81 -28 b 332 -288 81 -191 176 -288 b 597 -15 512 -288 597 -163 l 597 4 b 311 260 597 137 497 261 z m 241 -80 l 241 -65 l 433 -65 b 334 -153 422 -116 391 -153 b 241 -80 282 -153 242 -129 z "},"ₐ":{"ha":0,"x_min":0,"x_max":0,"o":""},"ₑ":{"ha":0,"x_min":0,"x_max":0,"o":""},"ᵢ":{"ha":-604,"x_min":0,"x_max":0,"o":"m 43 -170 l 213 -170 l 213 321 l 43 321 z m 37 457 b 127 369 37 408 80 369 b 220 457 178 369 219 408 b 127 545 219 506 178 545 b 37 457 79 545 37 505 z "},"ⱼ":{"ha":0,"x_min":0,"x_max":0,"o":""},"ₒ":{"ha":0,"x_min":0,"x_max":0,"o":""},"ᵣ":{"ha":-460,"x_min":0,"x_max":0,"o":"m 43 -170 l 213 -170 l 213 91 b 307 184 214 147 252 183 b 370 175 324 183 353 180 l 370 323 b 326 330 356 326 340 329 b 213 236 273 329 231 303 l 208 236 l 208 321 l 43 321 z "},"ᵤ":{"ha":0,"x_min":0,"x_max":0,"o":""},"ᵥ":{"ha":0,"x_min":0,"x_max":0,"o":""},"ₓ":{"ha":0,"x_min":0,"x_max":0,"o":""},"ʶ":{"ha":-185,"x_min":0,"x_max":0,"o":"m 326 431 b 578 617 479 431 578 511 b 484 772 578 677 544 735 l 597 963 l 415 963 l 329 815 l 324 815 l 240 815 l 240 963 l 79 963 l 79 431 z m 240 570 l 240 680 l 343 680 b 419 624 392 679 419 656 b 346 570 419 589 392 570 z "},"ʵ":{"ha":-321,"x_min":0,"x_max":0,"o":"m 46 598 l 46 431 b 80 427 54 429 64 427 b 210 500 134 427 179 454 l 210 423 b 397 228 211 265 276 228 b 494 233 431 228 489 233 l 494 372 b 457 366 479 368 467 366 b 372 444 395 366 372 405 l 372 963 l 210 963 l 210 627 b 111 590 191 601 155 589 b 46 598 90 589 64 591 z "},"ʱ":{"ha":-180,"x_min":0,"x_max":0,"o":"m 256 978 b 339 1054 255 1017 276 1055 b 380 1048 352 1055 362 1054 l 380 1188 b 281 1194 374 1189 304 1193 b 95 998 161 1193 94 1157 l 95 431 l 256 431 l 256 789 b 343 829 273 814 301 829 b 427 704 404 829 426 789 l 427 431 l 590 431 l 590 765 b 403 967 589 907 518 967 b 256 894 339 967 290 940 z "},"ʴ":{"ha":-447,"x_min":0,"x_max":0,"o":"m 43 598 l 43 431 b 79 427 50 429 61 427 b 216 512 136 427 184 459 l 239 431 l 369 431 l 369 963 l 206 963 l 206 625 b 109 590 186 600 152 589 b 43 598 79 589 58 593 z "},"ʰ":{"ha":0,"x_min":0,"x_max":0,"o":""},"ⁱ":{"ha":0,"x_min":0,"x_max":0,"o":"l -604 0 l -604 491 l -774 491 m -781 627 b -690 538 -780 578 -737 538 b -597 627 -640 538 -598 578 b -690 715 -598 675 -640 715 b -781 627 -739 715 -780 674 z "},"ʲ":{"ha":0,"x_min":0,"x_max":0,"o":""},"ˡ":{"ha":-604,"x_min":0,"x_max":0,"o":"m 213 1145 l 43 1145 l 43 491 l 213 491 z "},"ⁿ":{"ha":0,"x_min":0,"x_max":0,"o":""},"ʳ":{"ha":0,"x_min":0,"x_max":0,"o":"l -460 0 l -460 260 b -367 354 -460 317 -421 353 b -303 345 -349 353 -320 350 l -303 492 b -348 499 -317 496 -333 498 b -460 406 -401 498 -442 473 l -466 406 l -466 491 l -630 491 "},"ˢ":{"ha":0,"x_min":0,"x_max":0,"o":""},"ʷ":{"ha":0,"x_min":0,"x_max":0,"o":""},"ˣ":{"ha":0,"x_min":0,"x_max":0,"o":""},"ʸ":{"ha":0,"x_min":0,"x_max":0,"o":""},"ǃ":{"ha":-389,"x_min":0,"x_max":0,"o":"m 366 982 l 106 982 l 130 305 l 343 305 "},"ǀ":{"ha":-431,"x_min":0,"x_max":0,"o":"m 278 955 l 152 955 l 152 0 l 278 0 z "},"ǁ":{"ha":-302,"x_min":0,"x_max":0,"o":"m 264 955 l 138 955 l 138 0 l 264 0 z m 316 0 l 442 0 l 442 955 l 316 955 z "},"ǂ":{"ha":-121,"x_min":0,"x_max":0,"o":"m 433 955 l 307 955 l 307 707 l 114 707 l 114 567 l 307 567 l 307 399 l 114 399 l 114 259 l 307 259 l 307 0 l 433 0 l 433 259 l 625 259 l 625 399 l 433 399 l 433 567 l 625 567 l 625 707 l 433 707 z "},"ƻ":{"ha":0,"x_min":0,"x_max":0,"o":"l 9 66 b 193 241 91 136 150 192 l 328 241 l 328 381 l 275 381 b 329 393 275 389 302 393 b 335 368 357 393 335 388 b NaN NaN 335 360 317 NaN l NaN NaN l NaN NaN l NaN NaN l NaN NaN "},"ꟿ":{"ha":846,"x_min":0,"x_max":0,"o":"m 430 962 l 179 962 l 83 0 l 334 0 l 392 583 l 682 0 l 930 0 l 990 588 l 1280 5 l 1279 0 l 1529 0 l 1626 962 l 1375 962 l 1317 379 l 1028 962 l 779 962 l 720 378 z "},"ª":{"ha":0,"x_min":0,"x_max":0,"o":""},"º":{"ha":0,"x_min":0,"x_max":0,"o":""},"А":{"ha":0,"x_min":0,"x_max":0,"o":""},"Б":{"ha":0,"x_min":0,"x_max":0,"o":""},"В":{"ha":0,"x_min":0,"x_max":0,"o":""},"Г":{"ha":0,"x_min":0,"x_max":0,"o":""},"Ѓ":{"ha":0,"x_min":0,"x_max":0,"o":""},"Ґ":{"ha":-67,"x_min":0,"x_max":0,"o":"m 66 0 l 324 0 l 324 773 l 757 773 l 757 1232 l 514 1232 l 514 982 l 66 982 z "},"Ӷ":{"ha":-73,"x_min":0,"x_max":0,"o":"m 751 982 l 66 982 l 66 0 l 319 0 l 319 -236 l 566 -236 l 566 161 l 324 161 l 324 773 l 751 773 z "},"Ғ":{"ha":-73,"x_min":0,"x_max":0,"o":"m 751 982 l 66 982 l 66 594 l -388 594 l -388 852 l 66 852 l 66 1031 l 494 1031 z "},"Ҕ":{"ha":115,"x_min":0,"x_max":0,"o":"m 751 982 l 66 982 l 66 0 l 324 0 l 324 359 l 513 359 l 513 171 l 732 171 l 732 598 z "},"Д":{"ha":234,"x_min":0,"x_max":0,"o":"m 30 -236 l 279 -236 l 279 0 l 814 0 l 814 -236 l 1063 -236 l 1063 199 l 959 199 l 959 982 l 271 982 l 239 566 b 99 199 220 324 168 243 l 30 199 z m 395 199 b 488 566 438 274 475 384 l 503 773 l 711 773 l 711 199 z "},"Е":{"ha":-24,"x_min":0,"x_max":0,"o":""},"Ѐ":{"ha":0,"x_min":0,"x_max":0,"o":""},"Ё":{"ha":0,"x_min":0,"x_max":0,"o":""},"Ж":{"ha":710,"x_min":0,"x_max":0,"o":""},"З":{"ha":0,"x_min":0,"x_max":0,"o":""},"И":{"ha":117,"x_min":0,"x_max":0,"o":""},"Й":{"ha":0,"x_min":0,"x_max":0,"o":""},"Ѝ":{"ha":0,"x_min":0,"x_max":0,"o":""},"Ҋ":{"ha":0,"x_min":0,"x_max":0,"o":"l 117 0 l 117 66 l 309 66 l 309 -153 l -50 -681 l -58 -681 l -58 -153 "},"К":{"ha":142,"x_min":0,"x_max":0,"o":"m 670 0 l 994 0 l 598 0 l 598 510 l 971 510 l 971 910 l 1012 910 z "},"Ќ":{"ha":0,"x_min":0,"x_max":0,"o":""},"Л":{"ha":0,"x_min":0,"x_max":0,"o":"l 138 0 l 138 250 l 1120 250 l 1120 -456 l 1105 -871 b 950 -1234 1095 -1136 1050 -1219 l 923 -1238 "},"М":{"ha":394,"x_min":0,"x_max":0,"o":""},"Н":{"ha":150,"x_min":0,"x_max":0,"o":""},"О":{"ha":210,"x_min":0,"x_max":0,"o":""},"П":{"ha":0,"x_min":0,"x_max":0,"o":""},"Р":{"ha":22,"x_min":0,"x_max":0,"o":"m 66 0 z "},"С":{"ha":173,"x_min":0,"x_max":0,"o":""},"Т":{"ha":62,"x_min":0,"x_max":0,"o":""},"У":{"ha":82,"x_min":0,"x_max":0,"o":""},"Ў":{"ha":0,"x_min":0,"x_max":0,"o":""},"Ф":{"ha":361,"x_min":0,"x_max":0,"o":"m 741 883 l 732 883 l 732 1000 l 490 1000 l 490 883 l 483 883 b 60 473 239 883 60 726 b 483 81 60 231 235 81 l 490 81 l 490 -41 l 732 -41 l 732 81 l 741 81 b 1161 472 986 81 1162 233 b 741 883 1162 724 986 883 z m 294 473 b 483 671 295 616 380 671 l 490 671 l 490 293 l 483 293 b 294 473 383 294 295 343 z m 732 293 l 732 671 l 742 671 b 925 472 844 671 924 614 b 742 293 924 347 844 294 z "},"Х":{"ha":0,"x_min":0,"x_max":0,"o":""},"Ч":{"ha":155,"x_min":0,"x_max":0,"o":""},"Ц":{"ha":248,"x_min":0,"x_max":0,"o":"m 1076 197 l 920 197 l 920 982 l 667 982 l 667 199 l 315 199 l 315 982 l 66 982 l 66 0 l 823 0 l 823 -232 l 1065 -232 z "},"Ш":{"ha":507,"x_min":0,"x_max":0,"o":"m 66 982 l 66 0 l 1302 0 l 1302 982 l 1053 982 l 1053 199 l 812 199 l 812 982 l 563 982 l 563 199 l 317 199 l 317 982 z "},"Щ":{"ha":646,"x_min":0,"x_max":0,"o":"m 1476 193 l 1302 193 l 1302 982 l 1053 982 l 1053 199 l 812 199 l 812 982 l 563 982 l 563 199 l 317 199 l 317 982 l 66 982 l 66 0 l 1233 0 l 1233 -231 l 1462 -231 z "},"Џ":{"ha":125,"x_min":0,"x_max":0,"o":"m 66 0 l 368 0 l 368 -237 l 618 -237 l 618 0 l 920 0 l 920 982 l 667 982 l 667 199 l 315 199 l 315 982 l 66 982 z "},"Ь":{"ha":24,"x_min":0,"x_max":0,"o":""},"Ы":{"ha":379,"x_min":0,"x_max":0,"o":""},"Ъ":{"ha":250,"x_min":0,"x_max":0,"o":"m 38 788 l 292 788 l 292 0 l -220 0 "},"Љ":{"ha":687,"x_min":0,"x_max":0,"o":"m 84 0 l 144 0 b 502 467 365 0 483 88 l 517 779 l 730 779 l 730 0 l 22 0 l 5 -415 b -148 -779 -6 -717 -62 -772 l -174 -780 "},"Њ":{"ha":640,"x_min":0,"x_max":0,"o":"m 66 0 l 324 0 l 324 450 l 682 450 l 682 0 l 425 0 l 425 -334 l 66 -334 l 66 0 l -191 0 "},"Ѕ":{"ha":36,"x_min":0,"x_max":0,"o":""},"Є":{"ha":105,"x_min":0,"x_max":0,"o":"m 491 -14 b 907 331 741 -14 899 117 l 658 331 b 491 184 656 240 591 184 b 311 378 390 184 324 257 l 568 378 l 568 579 l 311 579 b 484 793 321 713 386 793 b 659 640 589 793 657 736 l 907 640 b 484 996 889 861 728 996 b 60 498 221 996 60 806 l 60 458 b 491 -14 60 166 223 -14 z "},"Э":{"ha":106,"x_min":0,"x_max":0,"o":""},"І":{"ha":-470,"x_min":0,"x_max":0,"o":""},"Ї":{"ha":0,"x_min":0,"x_max":0,"o":""},"Ј":{"ha":0,"x_min":0,"x_max":0,"o":""},"Ћ":{"ha":325,"x_min":0,"x_max":0,"o":"m 796 982 l 38 982 l 38 781 l 235 781 l 235 0 l 486 0 l 486 438 b 637 445 538 443 611 446 b 814 309 770 446 814 405 l 814 0 l 1063 0 l 1063 146 l 1374 146 z "},"Ю":{"ha":600,"x_min":0,"x_max":0,"o":"m 324 982 l 696 982 l 696 1118 b 492 1169 447 1118 492 1305 b 997 1193 492 1402 819 1193 b 485 847 732 1193 485 998 b NaN NaN 485 568 455 NaN l NaN NaN "},"Я":{"ha":75,"x_min":0,"x_max":0,"o":"m 869 0 l 869 982 l 450 982 b 88 650 232 982 87 857 b 255 368 87 514 150 418 l 54 0 l 336 0 l 510 327 l 610 327 l 610 0 z m 357 650 b 510 776 357 736 414 775 l 610 776 l 610 529 l 510 529 b 357 650 414 529 357 564 z "},"Ђ":{"ha":321,"x_min":0,"x_max":0,"o":"m 884 982 l 38 982 l 38 773 l 334 773 l 334 0 l 589 0 l 589 404 b 722 415 638 410 684 414 b 872 286 814 414 872 361 b 712 172 872 215 822 172 l 712 -15 b 1137 294 1053 -24 1136 136 b 741 591 1136 509 958 591 b 589 577 684 591 633 585 l 589 773 l 884 773 z "},"Ѡ":{"ha":541,"x_min":0,"x_max":0,"o":"m 66 345 b 452 -14 66 115 230 -14 b 701 96 555 -14 642 24 b 954 -14 762 24 851 -14 b 1335 345 1173 -14 1335 115 l 1335 982 l 1077 982 l 1077 345 b 954 187 1076 242 1043 186 b 827 345 865 186 828 242 l 827 982 l 572 982 l 572 345 l 1210 345 l 1210 87 z "},"Ѣ":{"ha":0,"x_min":0,"x_max":0,"o":""},"Ѥ":{"ha":549,"x_min":0,"x_max":0,"o":"m 968 579 l 736 579 b 924 769 755 716 825 768 b 1107 632 1013 768 1077 724 l 1355 674 b 924 996 1295 882 1126 996 b 475 579 688 996 508 845 l 324 579 l 324 982 l 709 982 l 709 1135 b 1156 736 747 878 926 736 b 1586 1050 1368 736 1527 855 l 1334 1093 b 1156 964 1303 1002 1241 963 b 970 1135 1062 963 994 1009 l 1201 1135 z "},"Ѧ":{"ha":229,"x_min":0,"x_max":0,"o":"m 768 0 l 1034 0 l 682 982 l 404 982 l 56 0 l 321 0 l 408 267 l 441 267 l 441 0 l 637 0 l 637 267 l 680 267 z m 459 426 l 543 685 l 628 426 z "},"Ѩ":{"ha":630,"x_min":0,"x_max":0,"o":"m 335 982 l 76 982 l 76 0 l 335 0 l 335 267 l 560 267 l 465 0 l 732 0 l 819 267 l 850 267 l 850 0 l 1047 0 l 1047 267 l 1090 267 l 1177 0 l 1443 0 l 1092 982 l 814 982 l 616 426 l 335 426 z m 869 426 l 952 684 l 1038 426 z "},"Ѫ":{"ha":496,"x_min":0,"x_max":0,"o":"m 115 206 l 377 -257 b 9 -570 117 -264 9 -370 z m 490 1 l 688 1 l 589 -193 z "},"Ѭ":{"ha":842,"x_min":0,"x_max":0,"o":"m 66 0 l 324 0 l 324 316 l 551 316 b 537 206 542 283 537 247 l 798 -256 l 218 -256 l 218 206 l -39 206 z m 911 1 l 1109 1 l 1010 -193 z "},"Ѯ":{"ha":-64,"x_min":0,"x_max":0,"o":"m 326 982 l 164 982 l 164 781 l 326 781 b 463 694 420 781 462 757 b 340 593 463 632 421 593 l 235 593 l 235 389 l 334 389 b 503 293 442 389 503 364 b 363 189 503 224 449 188 l 311 189 b 58 -28 151 188 58 115 b 309 -296 58 -176 145 -273 l 366 -156 b 275 -66 307 -132 275 -105 b 339 -14 275 -35 297 -14 l 384 -14 b 743 264 606 -14 743 98 b 545 494 743 380 673 457 b 703 738 650 537 703 621 b 326 982 703 909 581 982 z m 151 1260 l 382 1070 l 541 1070 l 766 1260 l 766 1265 l 557 1265 l 461 1187 l 365 1265 l 151 1265 z "},"Ѱ":{"ha":0,"x_min":0,"x_max":0,"o":""},"Ѳ":{"ha":0,"x_min":0,"x_max":0,"o":""},"Ѵ":{"ha":216,"x_min":0,"x_max":0,"o":""},"Ѷ":{"ha":0,"x_min":0,"x_max":0,"o":""},"Ѹ":{"ha":0,"x_min":0,"x_max":0,"o":""},"Җ":{"ha":0,"x_min":0,"x_max":0,"o":"l 710 0 l 710 184 l 500 184 l 298 548 l 581 1005 l 264 1005 l 73 618 l -31 618 "},"Ҙ":{"ha":48,"x_min":0,"x_max":0,"o":"m 52 296 b 407 -12 54 125 199 2 b NaN NaN 388 -95 416 NaN l NaN NaN z "},"Қ":{"ha":180,"x_min":0,"x_max":0,"o":"m 670 0 l 761 0 l 761 -225 l 1008 -225 l 1008 172 l 861 172 l 598 510 l 972 982 l 648 982 l 362 609 l 324 609 l 324 982 l 66 982 l 66 0 l 324 0 l 324 400 l 365 400 z "},"Ҝ":{"ha":140,"x_min":0,"x_max":0,"o":"m 366 772 l 366 600 l 320 600 l 320 982 l 66 982 l 66 0 l 320 0 l 320 359 l 366 359 l 366 214 l 487 214 l 487 359 l 515 359 l 677 0 l 993 0 l 708 534 l 963 982 l 658 982 l 495 600 l 487 600 l 487 772 z "},"Ҡ":{"ha":364,"x_min":0,"x_max":0,"o":"m 496 982 l 27 982 l 27 788 l 239 788 l 239 0 l 496 0 l 496 400 l 537 400 l 842 0 l 1166 0 l 770 0 l 770 510 z "},"Ң":{"ha":363,"x_min":0,"x_max":0,"o":"m 66 0 l 324 0 l 324 387 l 686 387 l 686 0 l 944 0 l 944 -245 l 1765 -245 l 1765 -505 z "},"Ҥ":{"ha":513,"x_min":0,"x_max":0,"o":"m 1336 982 l 686 982 l 686 0 l 944 0 l 944 387 l 1306 387 l 1306 0 l 1565 0 l 1565 773 l 1956 773 z "},"Ҧ":{"ha":720,"x_min":0,"x_max":0,"o":"m 937 982 l 87 982 l 87 0 l 342 0 l 342 777 l 684 777 l 684 0 l 937 0 l 937 358 l 1061 358 l 1061 235 z "},"Ҩ":{"ha":330,"x_min":0,"x_max":0,"o":"m 1127 -1 l 1127 184 b 1027 192 1092 184 1058 187 b 1122 486 1088 273 1122 374 l 1122 576 b 780 996 1121 823 981 996 b 476 633 597 996 477 838 l 476 500 b 593 195 476 382 518 277 l 583 195 b 332 427 425 196 333 291 l 332 614 b 456 787 333 712 379 787 l 456 996 b 64 613 222 996 64 828 l 64 427 b 583 -14 64 179 272 -14 b 842 41 680 -14 767 6 b 1127 -1 926 14 1021 -1 z m 708 500 l 708 635 b 787 787 708 734 736 787 b 868 617 840 787 868 728 l 868 486 b 802 292 868 410 844 342 b 708 500 741 348 708 421 z "},"Ҫ":{"ha":0,"x_min":0,"x_max":0,"o":""},"Ҭ":{"ha":62,"x_min":0,"x_max":0,"o":"m 38 773 l 334 773 l 334 0 l 578 0 l 578 -236 l 1190 -236 l 1190 60 l 1398 60 l 1398 -787 z "},"Ү":{"ha":163,"x_min":0,"x_max":0,"o":""},"Ұ":{"ha":163,"x_min":0,"x_max":0,"o":"m 23 982 l 314 444 l 255 444 l 255 304 l 384 304 l 384 0 l 640 0 l 640 304 l 766 304 l 766 444 l 710 444 "},"Ҳ":{"ha":-205,"x_min":0,"x_max":0,"o":"l 159 0 l 159 125 l -17 125 "},"Ҵ":{"ha":425,"x_min":0,"x_max":0,"o":"m 703 982 l 38 982 l 38 788 l 244 788 l 244 0 l 1001 0 l 1001 -232 l 1242 -232 l 1253 197 l 1097 197 l 1097 982 l 845 982 l 845 199 l 492 199 l 492 788 l 703 788 z "},"Ҷ":{"ha":0,"x_min":0,"x_max":0,"o":""},"Ҹ":{"ha":155,"x_min":0,"x_max":0,"o":"m 579 724 l 461 724 l 461 545 b 372 673 395 562 372 602 l 372 982 l 122 982 l 122 673 b 461 341 122 472 254 364 l 461 187 l 579 187 l 579 338 b 700 347 612 339 661 342 l 700 0 l 951 0 l 951 982 l 700 982 l 700 544 b 579 537 663 541 613 538 z "},"Һ":{"ha":155,"x_min":0,"x_max":0,"o":"m 894 0 l 894 347 l 643 347 l 643 -635 l 894 -635 l 894 -197 b 1046 -191 946 -193 1019 -190 b 1222 -326 1178 -190 1222 -231 l 1222 -635 z "},"Ҽ":{"ha":0,"x_min":0,"x_max":0,"o":"b -408 507 0 328 -254 507 b -108 NaN -109 507 -108 NaN b 195 NaN -1 NaN 134 NaN l 161 NaN b -97 NaN 79 NaN -26 NaN b -337 NaN -261 NaN -337 NaN l 250 NaN l 250 NaN b -151 NaN 251 NaN 102 NaN b -587 NaN -403 NaN -584 NaN b -654 NaN -631 NaN -654 NaN m -337 NaN b -150 NaN -332 NaN -257 NaN b 1 NaN -54 NaN 1 NaN l 1 NaN z "},"Ҿ":{"ha":0,"x_min":0,"x_max":0,"o":"b -345 444 0 328 -205 444 b -189 NaN -142 444 -189 NaN l -189 NaN l 58 NaN l 58 NaN b 274 NaN 143 NaN 229 NaN l 240 NaN b -18 NaN 158 NaN 54 NaN b -258 NaN -182 NaN -258 NaN l 330 NaN l 330 NaN b -72 NaN 330 NaN 182 NaN b -507 NaN -323 NaN -505 NaN b -575 NaN -551 NaN -574 NaN m -258 NaN b -71 NaN -252 NaN -178 NaN b 80 NaN 25 NaN 81 NaN l 80 NaN z "},"Ӏ":{"ha":-470,"x_min":0,"x_max":0,"o":""},"Ӂ":{"ha":0,"x_min":0,"x_max":0,"o":""},"Ӄ":{"ha":86,"x_min":0,"x_max":0,"o":"m 315 358 l 495 358 b 663 141 602 358 667 276 b 500 -68 661 12 600 -68 l 500 -258 b 913 157 758 -257 914 -100 b 595 523 912 357 794 490 l 898 982 l 598 982 l 358 593 l 315 593 l 315 982 l 66 982 l 66 0 l 315 0 z "},"Ӆ":{"ha":0,"x_min":0,"x_max":0,"o":"l 138 0 l 138 182 l -52 182 l -52 1031 l -758 1031 l -772 616 b -927 253 -783 351 -827 268 l -954 249 "},"Ӈ":{"ha":150,"x_min":0,"x_max":0,"o":"m 686 387 l 686 -11 b 557 -94 687 -81 617 -93 b 487 -90 539 -93 504 -90 l 487 -294 b 568 -300 492 -294 533 -300 b 945 -30 941 -300 945 -102 l 945 982 l 686 982 l 686 0 l 944 0 l 944 387 z "},"Ӊ":{"ha":307,"x_min":0,"x_max":0,"o":"m 66 0 l 324 0 l 324 387 l 686 387 l 686 0 l 880 0 l 880 -259 z "},"Ӌ":{"ha":0,"x_min":0,"x_max":0,"o":""},"Ӎ":{"ha":0,"x_min":0,"x_max":0,"o":"l 532 0 l 532 66 l 719 66 l 719 -255 l 486 -826 l 473 -826 l 240 -255 "},"Ӑ":{"ha":0,"x_min":0,"x_max":0,"o":""},"Ӓ":{"ha":0,"x_min":0,"x_max":0,"o":""},"Ӕ":{"ha":561,"x_min":0,"x_max":0,"o":""},"Ӗ":{"ha":0,"x_min":0,"x_max":0,"o":""},"Ә":{"ha":106,"x_min":0,"x_max":0,"o":""},"Ӛ":{"ha":0,"x_min":0,"x_max":0,"o":""},"Ӝ":{"ha":0,"x_min":0,"x_max":0,"o":""},"Ӟ":{"ha":0,"x_min":0,"x_max":0,"o":""},"Ӡ":{"ha":0,"x_min":0,"x_max":0,"o":""},"Ӣ":{"ha":117,"x_min":0,"x_max":0,"o":""},"Ӥ":{"ha":0,"x_min":0,"x_max":0,"o":""},"Ӧ":{"ha":0,"x_min":0,"x_max":0,"o":""},"Ө":{"ha":0,"x_min":0,"x_max":0,"o":""},"Ӫ":{"ha":0,"x_min":0,"x_max":0,"o":""},"Ӭ":{"ha":0,"x_min":0,"x_max":0,"o":""},"Ӯ":{"ha":82,"x_min":0,"x_max":0,"o":""},"Ӱ":{"ha":0,"x_min":0,"x_max":0,"o":""},"Ӳ":{"ha":0,"x_min":0,"x_max":0,"o":""},"Ӵ":{"ha":0,"x_min":0,"x_max":0,"o":""},"Ӹ":{"ha":500,"x_min":0,"x_max":0,"o":"m 445 648 l 336 648 l 336 982 l 79 982 l 79 0 l 445 0 b 852 328 690 0 852 134 b 445 648 852 522 690 648 z m 406 1584 b 12 1415 406 1476 -39 1415 b 26 1528 -38 1415 26 1477 b 36 1638 26 1577 87 1638 b 23 NaN 85 1638 23 1638 b -92 NaN -41 NaN -92 NaN z m 212 NaN b 326 NaN 211 NaN 262 NaN b 439 NaN 388 NaN 439 NaN b 326 NaN 439 NaN 388 NaN b 212 NaN 262 NaN 211 NaN z "},"Ӻ":{"ha":-73,"x_min":0,"x_max":0,"o":"m 751 982 l 751 297 l 363 297 l 363 -157 l 613 -157 l 613 -396 l 842 -396 l 842 -271 l 982 -271 l 982 -396 l 1161 -396 l 1161 31 z "},"Ӽ":{"ha":-168,"x_min":0,"x_max":0,"o":"l 0 159 l 159 159 l 159 -87 l 154 -87 "},"Ӿ":{"ha":159,"x_min":0,"x_max":0,"o":"m 339 982 l 49 982 l 296 567 l 252 567 l 252 427 l 302 427 l 39 0 l -227 427 l -178 427 l -178 567 l -220 567 z "},"Ҁ":{"ha":74,"x_min":0,"x_max":0,"o":"m 640 187 l 469 187 b 334 373 374 188 333 260 l 334 609 b 473 796 333 724 353 795 b 601 654 550 795 601 766 l 852 654 b 473 996 851 887 699 996 b 84 608 214 996 84 842 l 84 373 b 392 -7 84 168 199 23 l 392 -227 l 640 -227 z "},"Ҍ":{"ha":0,"x_min":0,"x_max":0,"o":""},"Ҏ":{"ha":52,"x_min":0,"x_max":0,"o":"m 475 652 l 389 597 l 454 498 b 431 496 446 497 439 496 l 331 496 l 331 776 l 431 776 b 585 637 528 775 585 723 b 549 538 585 597 572 563 z m 73 0 l 331 0 l 331 296 l 483 296 b 578 304 517 296 549 298 l 658 182 l 743 237 l 679 337 b 854 637 789 392 854 497 b 491 982 854 844 711 982 l 73 982 z "},"а":{"ha":-66,"x_min":0,"x_max":0,"o":""},"б":{"ha":-20,"x_min":0,"x_max":0,"o":"m 780 833 l 715 1004 b 491 982 673 978 595 983 b 41 445 198 982 41 816 l 41 396 b 420 -14 41 130 183 -14 b 799 351 658 -14 799 130 b 480 690 799 557 677 690 b 240 545 351 690 280 633 l 233 545 b 500 779 252 720 319 779 b 780 833 660 779 720 790 z m 302 340 b 422 505 303 446 348 505 b 537 340 493 505 537 446 b 422 176 537 237 493 177 b 302 340 347 177 303 237 z "},"в":{"ha":0,"x_min":0,"x_max":0,"o":""},"г":{"ha":-227,"x_min":0,"x_max":0,"o":""},"ѓ":{"ha":0,"x_min":0,"x_max":0,"o":""},"ґ":{"ha":-192,"x_min":0,"x_max":0,"o":"m 637 924 l 408 924 l 408 736 l 69 736 l 69 0 l 316 0 l 316 544 l 637 544 z "},"ӷ":{"ha":-227,"x_min":0,"x_max":0,"o":"m 601 736 l 69 736 l 69 0 l 312 0 l 312 -236 l 559 -236 l 559 161 l 316 161 l 316 544 l 601 544 z "},"ғ":{"ha":-227,"x_min":0,"x_max":0,"o":"m 601 736 l 69 736 l 69 483 l -64 483 l -64 343 l 69 343 l 69 0 l 316 0 l 316 343 l 448 343 l 448 483 l 316 483 l 316 544 l 601 544 z "},"ҕ":{"ha":-50,"x_min":0,"x_max":0,"o":"m 601 736 l 69 736 l 69 0 l 316 0 l 316 259 l 328 259 b 502 121 429 259 503 223 b 377 -41 500 39 439 0 l 494 -189 b 742 121 661 -111 745 9 b 328 448 741 353 570 448 l 316 448 l 316 544 l 601 544 z "},"д":{"ha":81,"x_min":0,"x_max":0,"o":"m 23 -218 l 271 -218 l 271 0 l 667 0 l 667 -218 l 910 -218 l 910 194 l 795 194 l 795 736 l 175 736 l 159 525 b 77 194 151 416 143 223 l 23 194 z m 323 194 b 385 525 362 263 378 366 l 387 549 l 556 549 l 556 194 z "},"е":{"ha":-43,"x_min":0,"x_max":0,"o":""},"ѐ":{"ha":0,"x_min":0,"x_max":0,"o":""},"ё":{"ha":0,"x_min":0,"x_max":0,"o":""},"ж":{"ha":364,"x_min":0,"x_max":0,"o":""},"з":{"ha":-125,"x_min":0,"x_max":0,"o":""},"и":{"ha":-25,"x_min":0,"x_max":0,"o":""},"й":{"ha":0,"x_min":0,"x_max":0,"o":""},"ҋ":{"ha":0,"x_min":0,"x_max":0,"o":"l 0 130 l 177 130 l -16 130 l -16 733 l -258 733 "},"ѝ":{"ha":0,"x_min":0,"x_max":0,"o":""},"к":{"ha":-33,"x_min":0,"x_max":0,"o":""},"ќ":{"ha":0,"x_min":0,"x_max":0,"o":""},"л":{"ha":0,"x_min":0,"x_max":0,"o":"l -33 0 l -33 736 l -633 736 l -645 411 b -740 194 -651 259 -681 195 l -763 194 "},"м":{"ha":0,"x_min":0,"x_max":0,"o":"l 0 189 l 239 189 l 239 926 l -61 926 "},"н":{"ha":0,"x_min":0,"x_max":0,"o":"l -55 0 l -55 240 l 682 240 l 682 0 l 412 0 l 412 -194 "},"о":{"ha":-20,"x_min":0,"x_max":0,"o":""},"п":{"ha":0,"x_min":0,"x_max":0,"o":"l -43 0 l -43 736 l -724 736 "},"р":{"ha":10,"x_min":0,"x_max":0,"o":""},"с":{"ha":-47,"x_min":0,"x_max":0,"o":""},"т":{"ha":-90,"x_min":0,"x_max":0,"o":"m 31 544 l 263 544 l 263 0 l 505 0 l 505 544 l 739 544 l 739 736 l 31 736 z "},"у":{"ha":-48,"x_min":0,"x_max":0,"o":""},"ў":{"ha":0,"x_min":0,"x_max":0,"o":""},"ф":{"ha":298,"x_min":0,"x_max":0,"o":"m 452 -250 l 708 -250 l 708 -14 b 1118 366 948 -14 1118 144 b 708 746 1118 589 948 746 l 708 982 l 452 982 l 452 746 b 41 366 211 746 41 589 b 452 -14 41 144 211 -14 z m 307 366 b 452 553 307 475 366 554 l 452 179 b 307 366 367 179 307 257 z m 708 179 l 708 553 b 852 366 793 554 852 475 b 708 179 852 257 793 179 z "},"х":{"ha":-60,"x_min":0,"x_max":0,"o":""},"ч":{"ha":-51,"x_min":0,"x_max":0,"o":""},"ц":{"ha":0,"x_min":0,"x_max":0,"o":"l 45 0 l 45 560 l -81 560 "},"ш":{"ha":330,"x_min":0,"x_max":0,"o":"m 69 736 l 69 0 l 1130 0 l 1130 736 z "},"щ":{"ha":484,"x_min":0,"x_max":0,"o":"m 1313 193 l 1130 193 l 1130 736 l 888 736 l 888 0 l 1889 0 l 1889 -212 l 2117 -212 z "},"џ":{"ha":0,"x_min":0,"x_max":0,"o":"l -43 0 l -43 218 l -280 218 l -280 464 l -43 464 l -43 681 "},"ь":{"ha":-41,"x_min":0,"x_max":0,"o":""},"ы":{"ha":296,"x_min":0,"x_max":0,"o":"m 393 -193 z "},"ъ":{"ha":130,"x_min":0,"x_max":0,"o":"m 239 736 l 60 736 l 60 543 l 239 543 "},"љ":{"ha":447,"x_min":0,"x_max":0,"o":"m 69 0 l 145 0 b 414 342 296 0 399 90 l 426 544 l 556 544 l 556 736 l 198 736 l 187 411 b 91 194 181 259 151 195 l 68 194 "},"њ":{"ha":394,"x_min":0,"x_max":0,"o":"m 69 0 l 311 0 l 311 277 l 505 277 l 505 0 l 875 0 b 748 228 1082 127 956 229 l 619 228 l 619 433 l 378 433 l 378 165 l 184 165 l 184 433 l -58 433 z m 619 -111 l 619 37 l 748 37 b 844 -39 804 36 844 5 b 748 -111 844 -81 804 -111 z "},"ѕ":{"ha":-73,"x_min":0,"x_max":0,"o":""},"є":{"ha":-48,"x_min":0,"x_max":0,"o":"m 475 435 l 305 435 b 425 548 317 505 351 549 b 544 438 496 549 524 511 l 776 488 b 427 746 741 647 609 746 b 58 369 195 746 58 591 b 425 -14 58 147 196 -14 b 773 229 599 -14 734 79 l 538 278 b 425 187 522 231 495 188 b 304 308 349 188 315 235 l 475 308 z "},"э":{"ha":-105,"x_min":0,"x_max":0,"o":""},"і":{"ha":-467,"x_min":0,"x_max":0,"o":""},"ї":{"ha":0,"x_min":0,"x_max":0,"o":""},"ј":{"ha":0,"x_min":0,"x_max":0,"o":""},"ћ":{"ha":0,"x_min":0,"x_max":0,"o":""},"ю":{"ha":273,"x_min":0,"x_max":0,"o":"m 294 736 l 38 736 l 38 0 l 294 0 l 294 269 l 368 269 b 724 -14 404 101 530 -14 b 1090 370 954 -14 1090 149 b 724 746 1090 589 954 746 b 367 464 528 746 400 633 l 294 464 z m 598 370 b 724 548 597 485 632 549 b 849 370 815 549 848 483 b 724 187 848 256 815 188 b 598 370 632 188 597 255 z "},"я":{"ha":-67,"x_min":0,"x_max":0,"o":"m 494 0 l 731 0 l 731 736 l 388 736 b 49 481 179 736 47 631 b 186 287 47 397 98 328 l 39 0 l 275 0 l 402 247 l 494 247 z m 290 472 b 388 544 289 506 321 545 l 494 544 l 494 403 l 393 403 b 290 472 322 403 289 438 z "},"ђ":{"ha":7,"x_min":0,"x_max":0,"o":"m 547 416 l 547 -26 b 446 -46 546 -72 494 -82 b 441 302 441 14 440 173 b NaN NaN 479 302 691 NaN l NaN NaN l NaN NaN l NaN NaN l NaN NaN l NaN NaN l NaN NaN l NaN NaN l NaN NaN l NaN NaN l NaN NaN l NaN NaN l NaN NaN l NaN NaN l NaN NaN z "},"ѡ":{"ha":389,"x_min":0,"x_max":0,"o":"m 69 346 b 406 -14 68 113 208 -14 b 631 88 500 -14 578 21 b 854 -14 684 21 760 -14 b 1188 346 1053 -14 1188 114 l 1188 736 l 945 736 l 945 346 b 854 179 946 239 926 179 b 751 346 777 179 752 239 l 751 736 l 511 736 l 511 346 b 406 179 512 239 486 179 b 311 346 334 179 311 245 l 311 736 l 69 736 z "},"ѣ":{"ha":31,"x_min":0,"x_max":0,"o":"m 528 845 l 381 845 l 381 1048 l 140 1048 l 140 845 l 45 845 l 45 712 l 140 712 l 140 0 l 510 0 b 384 229 718 126 592 229 l 255 229 l 255 408 l 401 408 "},"ѥ":{"ha":287,"x_min":0,"x_max":0,"o":"m 827 427 l 654 427 b 776 548 664 501 698 549 b 894 438 844 549 875 513 l 1127 488 b 777 746 1091 647 960 746 b 413 427 566 746 434 617 l 334 427 l 334 736 l 77 736 l 77 0 l 334 0 l 334 292 l 415 292 b 776 -14 444 111 574 -14 b 1123 229 949 -14 1084 79 l 888 278 b 776 187 873 229 844 188 b 657 292 705 188 671 229 l 827 292 z "},"ѧ":{"ha":104,"x_min":0,"x_max":0,"o":"m 458 392 l 484 515 l 510 392 l 538 307 l 431 307 z m 84 0 l 331 0 l 385 167 l 411 167 l 411 0 l 540 0 l 540 167 l 583 167 l 636 0 l 883 0 l 613 745 l 350 745 z "},"ѩ":{"ha":389,"x_min":0,"x_max":0,"o":"m 1008 0 l 1255 0 l 987 736 l 722 736 l 566 307 l 328 307 l 328 736 l 72 736 l 72 0 l 328 0 l 328 170 l 517 170 l 456 0 l 701 0 l 758 167 l 783 167 l 783 0 l 910 0 l 910 167 l 953 167 z m 804 307 l 830 384 l 856 507 l 882 384 l 907 307 z "},"ѫ":{"ha":201,"x_min":0,"x_max":0,"o":"m 317 0 l 317 132 b 416 231 317 210 355 229 l 416 0 l 655 0 l 655 230 b 746 132 722 227 745 197 l 746 0 l 987 0 l 987 132 b 743 403 987 299 897 380 l 943 736 l 133 736 l 332 405 b 75 132 169 385 74 304 l 75 0 z m 469 595 l 613 595 l 539 433 z "},"ѭ":{"ha":584,"x_min":0,"x_max":0,"o":"m 317 736 l 61 736 l 61 0 l 317 0 l 317 241 l 483 241 b 467 132 472 210 467 174 l 467 0 l 709 0 l 709 132 b 807 231 709 210 745 229 l 807 0 l 1047 0 l 1047 230 b 1138 132 1113 227 1138 197 l 1138 0 l 1379 0 l 1379 132 b 1134 403 1379 300 1288 381 l 1333 736 l 525 736 l 721 410 l 317 410 z m 860 595 l 1005 595 l 931 433 z "},"ѯ":{"ha":-79,"x_min":0,"x_max":0,"o":"m 278 736 l 118 736 l 118 570 l 278 570 b 404 510 368 570 403 557 b 313 438 405 467 375 439 l 189 438 l 189 308 l 304 308 b 445 235 395 308 444 288 b 302 153 446 181 398 154 l 256 153 b 37 -24 115 154 35 90 b 256 -277 37 -144 122 -243 l 312 -156 b 239 -68 263 -133 238 -103 b 319 -14 238 -33 266 -14 l 353 -14 b 688 212 564 -14 688 80 b 531 376 687 294 633 348 b 647 547 607 412 646 471 b 278 736 648 685 529 736 z m 115 1015 l 346 825 l 506 825 l 732 1015 l 732 1020 l 524 1020 l 426 941 l 330 1020 l 115 1020 z "},"ѱ":{"ha":0,"x_min":0,"x_max":0,"o":""},"ѳ":{"ha":-20,"x_min":0,"x_max":0,"o":""},"ѵ":{"ha":-14,"x_min":0,"x_max":0,"o":""},"ѷ":{"ha":0,"x_min":0,"x_max":0,"o":""},"ѹ":{"ha":0,"x_min":0,"x_max":0,"o":""},"җ":{"ha":-137,"x_min":0,"x_max":0,"o":"l 364 0 l 364 189 l 128 189 l 128 435 l 526 435 l 526 201 "},"ҙ":{"ha":-125,"x_min":0,"x_max":0,"o":"m 278 221 l 35 221 b 318 -12 40 77 155 1 b NaN NaN 298 -95 326 NaN l NaN NaN b NaN NaN NaN NaN NaN NaN b NaN NaN NaN NaN NaN NaN z "},"қ":{"ha":130,"x_min":0,"x_max":0,"o":"m 69 0 l 326 0 l 326 233 l 387 233 l 534 0 l 711 0 l 711 -231 z "},"ҝ":{"ha":43,"x_min":0,"x_max":0,"o":"m 69 0 l 326 0 l 326 233 l 376 233 l 376 123 l 476 123 l 476 233 l 521 233 l 610 0 l 907 0 l 724 365 l 906 736 l 613 736 l 506 471 l 476 471 l 476 579 l 376 579 l 376 471 l 326 471 l 326 736 l 69 736 z "},"ҡ":{"ha":200,"x_min":0,"x_max":0,"o":"m 559 736 l 31 736 l 31 543 l 302 543 l 302 0 z "},"ң":{"ha":0,"x_min":0,"x_max":0,"o":"l 161 0 l 161 237 l -83 237 l -83 812 l -323 812 l -323 543 l -517 543 "},"ҥ":{"ha":139,"x_min":0,"x_max":0,"o":"m 977 736 l 505 736 l 505 461 l 745 461 l 745 1005 l 977 1005 z "},"ҧ":{"ha":0,"x_min":0,"x_max":0,"o":"l 393 0 l 393 266 l 425 266 b 612 132 538 266 615 229 b 486 -34 610 50 557 15 l 602 -180 b 851 132 775 -103 850 21 b 425 458 850 361 678 458 l 393 458 l 393 736 l -288 736 "},"ҩ":{"ha":239,"x_min":0,"x_max":0,"o":"m 983 -26 l 983 83 b 882 91 947 83 913 85 b 981 294 945 144 981 215 l 981 433 b 718 746 981 609 875 746 b 472 477 572 746 472 624 l 472 327 b 509 172 472 271 484 218 b 377 327 428 187 378 254 l 377 434 b 449 548 378 498 404 536 l 449 746 b 119 434 251 746 119 612 l 119 327 b 545 -14 119 132 291 -14 b 722 9 610 -14 669 -5 b 983 -26 792 -13 879 -26 z m 625 313 l 625 453 b 684 545 625 510 648 545 b 742 453 719 545 741 509 l 742 312 b 667 199 741 269 714 226 b 625 313 640 233 625 272 z "},"ҫ":{"ha":0,"x_min":0,"x_max":0,"o":""},"ҭ":{"ha":-90,"x_min":0,"x_max":0,"o":"m 31 544 l 263 544 l 263 0 l 498 0 l 498 -240 l 880 -240 l 880 -5 l 1073 -5 l 1073 -713 z "},"ү":{"ha":0,"x_min":0,"x_max":0,"o":""},"ұ":{"ha":-113,"x_min":0,"x_max":0,"o":"m 9 736 l 202 157 l 119 157 l 119 18 l 248 18 l 254 1 l 254 -277 l 494 -277 l 494 1 l 499 18 l 631 18 l 631 157 l 545 157 "},"ҳ":{"ha":-60,"x_min":0,"x_max":0,"o":"m 289 736 l 79 368 l 176 368 l 176 132 l 423 132 l 423 529 l 241 529 l 123 736 l 323 1104 l 68 1104 l -49 872 z "},"ҵ":{"ha":159,"x_min":0,"x_max":0,"o":"m 549 736 l 61 736 l 61 543 l 184 543 l 184 0 l 747 0 l 747 -212 l 977 -212 l 989 193 l 865 193 l 865 736 l 628 736 l 628 193 l 427 193 l 427 543 l 549 543 z "},"ҷ":{"ha":0,"x_min":0,"x_max":0,"o":"l 0 162 l 235 162 l 235 -79 "},"ҹ":{"ha":-51,"x_min":0,"x_max":0,"o":"m 468 564 l 347 564 l 347 401 b 307 477 315 413 307 435 l 307 736 l 69 736 l 69 477 b 347 205 68 308 170 226 l 347 90 l 468 90 l 468 200 b 509 205 480 201 494 203 l 509 0 l 749 0 l 749 736 l 509 736 l 509 397 b 468 393 494 395 481 393 z "},"һ":{"ha":7,"x_min":0,"x_max":0,"o":""},"ҽ":{"ha":0,"x_min":0,"x_max":0,"o":"b 127 22 192 0 -11 22 b NaN NaN 8 22 223 NaN b NaN NaN NaN NaN NaN NaN b NaN NaN NaN NaN NaN NaN "},"ҿ":{"ha":0,"x_min":0,"x_max":0,"o":"b -109 320 192 20 7 136 b NaN NaN -127 300 -212 NaN l NaN NaN b NaN NaN NaN NaN NaN NaN l NaN NaN b NaN NaN NaN NaN NaN NaN b NaN NaN NaN NaN NaN NaN b NaN NaN NaN NaN NaN NaN "},"ӏ":{"ha":-470,"x_min":0,"x_max":0,"o":""},"ӂ":{"ha":0,"x_min":0,"x_max":0,"o":""},"ӄ":{"ha":16,"x_min":0,"x_max":0,"o":"m 69 0 l 326 0 l 326 233 l 399 233 b 586 90 516 233 587 178 b 460 -64 585 24 536 -35 l 578 -225 b 826 92 732 -153 826 -32 b 598 374 826 229 743 329 z "},"ӆ":{"ha":0,"x_min":0,"x_max":0,"o":"l 128 0 l 128 176 l -63 176 l -63 779 l -663 779 l -675 454 b -770 237 -681 302 -711 237 l -793 237 "},"ӈ":{"ha":-55,"x_min":0,"x_max":0,"o":"m 745 -12 l 745 736 l 505 736 l 505 449 b 425 366 504 387 476 366 b 351 373 394 366 383 366 l 342 183 b 458 174 383 176 417 174 b 745 449 634 174 744 264 z "},"ӊ":{"ha":0,"x_min":0,"x_max":0,"o":"l 106 0 l 106 174 l -85 174 l -85 778 l -325 778 l -325 508 l -519 508 "},"ӌ":{"ha":0,"x_min":0,"x_max":0,"o":"l 0 -51 l -43 -51 l -43 -298 l -441 -298 l -441 -51 l -205 -51 l -205 189 "},"ӎ":{"ha":0,"x_min":0,"x_max":0,"o":"l 0 351 l 173 351 l -18 351 l -18 954 l -318 954 "},"ӑ":{"ha":-66,"x_min":0,"x_max":0,"o":"m 665 1000 l 503 1000 z "},"ӓ":{"ha":0,"x_min":0,"x_max":0,"o":""},"ӕ":{"ha":0,"x_min":0,"x_max":0,"o":""},"ӗ":{"ha":0,"x_min":0,"x_max":0,"o":""},"ә":{"ha":0,"x_min":0,"x_max":0,"o":""},"ӛ":{"ha":0,"x_min":0,"x_max":0,"o":""},"ӝ":{"ha":0,"x_min":0,"x_max":0,"o":""},"ӟ":{"ha":0,"x_min":0,"x_max":0,"o":""},"ӡ":{"ha":0,"x_min":0,"x_max":0,"o":""},"ӣ":{"ha":-25,"x_min":0,"x_max":0,"o":""},"ӥ":{"ha":0,"x_min":0,"x_max":0,"o":""},"ӧ":{"ha":0,"x_min":0,"x_max":0,"o":""},"ө":{"ha":-20,"x_min":0,"x_max":0,"o":""},"ӫ":{"ha":0,"x_min":0,"x_max":0,"o":""},"ӭ":{"ha":0,"x_min":0,"x_max":0,"o":""},"ӯ":{"ha":-48,"x_min":0,"x_max":0,"o":""},"ӱ":{"ha":0,"x_min":0,"x_max":0,"o":""},"ӳ":{"ha":0,"x_min":0,"x_max":0,"o":""},"ӵ":{"ha":-51,"x_min":0,"x_max":0,"o":"m -609 935 b -494 825 -609 874 -558 825 b -381 935 -432 825 -381 874 b -494 1044 -381 995 -432 1044 b -609 935 -558 1044 -609 995 z m -305 935 b -191 825 -306 874 -255 825 b -77 935 -129 825 -78 874 b -191 1044 -78 995 -129 1044 b -305 935 -255 1044 -306 995 z "},"ӹ":{"ha":296,"x_min":0,"x_max":0,"o":"m 216 -935 z "},"ӻ":{"ha":-227,"x_min":0,"x_max":0,"o":"m 601 736 l 69 736 l 69 484 l -64 484 l -64 345 l 69 345 l 69 5 b 1 -57 68 5 1 -22 b 276 3 1 -109 179 3 b 469 NaN 467 3 469 NaN l 469 NaN l 469 NaN l 600 NaN l 600 NaN l 469 NaN l 469 NaN l 753 NaN z "},"ӽ":{"ha":-105,"x_min":0,"x_max":0,"o":"m 19 0 l 277 0 l 382 184 l 438 92 b 488 -43 484 16 496 -12 b 397 -99 477 -83 448 -99 b 342 -90 376 -99 359 -94 l 332 -278 b 445 -288 373 -286 405 -288 b 731 -71 626 -288 720 -186 b 628 214 742 49 661 152 l 544 369 l 736 736 l 480 736 l 382 555 l 289 736 l 31 736 l 222 369 z "},"ӿ":{"ha":-60,"x_min":0,"x_max":0,"o":"m 289 736 l 31 736 l 189 444 l 144 444 l 144 304 l 192 304 l 19 0 l -153 304 l -107 304 l -107 444 l -149 444 l 9 736 l -245 736 l -362 505 z "},"ҁ":{"ha":-59,"x_min":0,"x_max":0,"o":"m 590 179 l 423 179 b 307 351 322 179 306 260 l 307 372 b 416 553 306 471 322 554 b 510 431 486 554 510 508 l 738 431 b 420 746 738 644 612 746 b 66 372 186 746 66 592 l 66 351 b 347 -8 66 163 160 22 l 347 -229 l 590 -229 z "},"ҍ":{"ha":31,"x_min":0,"x_max":0,"o":"m 528 962 l 381 962 l 381 1048 l 140 1048 l 140 962 l 45 962 l 45 829 l 140 829 l 140 0 l 510 0 b 384 229 718 126 592 229 l 255 229 l 255 524 l 401 524 "},"ҏ":{"ha":-33,"x_min":0,"x_max":0,"o":"m 457 346 l 392 298 l 479 191 b 449 187 469 189 459 187 b 327 369 372 188 326 258 b 449 548 326 481 372 549 b 570 369 526 549 569 480 b 541 242 570 316 559 273 z m 76 -277 l 332 -277 l 332 121 l 336 121 b 425 134 367 121 397 125 l 471 77 l 538 125 l 499 173 b 628 498 576 232 628 340 b 339 876 628 763 487 876 b 132 739 227 876 159 812 l 125 739 l 125 867 l -129 867 z "},"ԯ":{"ha":0,"x_min":0,"x_max":0,"o":"l 185 0 l 185 -297 l 432 -297 l 432 100 l 185 100 l 185 736 l -414 736 l -427 411 b -522 194 -433 259 -463 195 l -545 194 "},"Α":{"ha":0,"x_min":0,"x_max":0,"o":""},"Β":{"ha":0,"x_min":0,"x_max":0,"o":""},"Γ":{"ha":0,"x_min":0,"x_max":0,"o":""},"Δ":{"ha":204,"x_min":0,"x_max":0,"o":"m 30 0 l 1034 0 z m 1050 -773 l 1204 -264 l 1213 -264 l 1369 -773 z "},"Ε":{"ha":-24,"x_min":0,"x_max":0,"o":""},"Ζ":{"ha":71,"x_min":0,"x_max":0,"o":""},"Η":{"ha":150,"x_min":0,"x_max":0,"o":""},"Θ":{"ha":210,"x_min":0,"x_max":0,"o":"m 682 567 l 388 567 l 388 415 l 682 415 z m 60 491 z m 326 491 z "},"Ι":{"ha":-470,"x_min":0,"x_max":0,"o":""},"Κ":{"ha":98,"x_min":0,"x_max":0,"o":""},"Λ":{"ha":204,"x_min":0,"x_max":0,"o":"m 309 0 l 528 718 l 536 718 l 755 0 l 1034 0 z "},"Μ":{"ha":394,"x_min":0,"x_max":0,"o":""},"Ν":{"ha":117,"x_min":0,"x_max":0,"o":""},"Ξ":{"ha":112,"x_min":0,"x_max":0,"o":"m 137 0 l 836 0 l 836 202 l 137 202 z m 164 777 l 793 777 l 793 982 l 164 982 z m 232 397 l 747 397 l 747 590 l 232 590 z "},"Ο":{"ha":210,"x_min":0,"x_max":0,"o":""},"Π":{"ha":0,"x_min":0,"x_max":0,"o":""},"Ρ":{"ha":22,"x_min":0,"x_max":0,"o":"m 66 0 z "},"Σ":{"ha":0,"x_min":0,"x_max":0,"o":""},"Τ":{"ha":62,"x_min":0,"x_max":0,"o":""},"Υ":{"ha":163,"x_min":0,"x_max":0,"o":""},"Φ":{"ha":361,"x_min":0,"x_max":0,"o":"m 738 982 l 490 982 l 490 867 b 87 480 247 857 87 711 b 490 115 86 261 250 125 l 490 0 l 738 0 l 738 115 b 1135 481 975 125 1136 265 b 738 867 1135 712 977 856 z m 332 480 b 490 647 332 589 401 639 l 490 337 b 332 480 401 344 332 386 z m 738 337 l 738 647 b 894 481 827 639 894 591 b 738 337 893 388 825 345 z "},"Χ":{"ha":0,"x_min":0,"x_max":0,"o":""},"Ψ":{"ha":0,"x_min":0,"x_max":0,"o":""},"Ω":{"ha":203,"x_min":0,"x_max":0,"o":""},"Ά":{"ha":0,"x_min":0,"x_max":0,"o":""},"Έ":{"ha":272,"x_min":0,"x_max":0,"o":"m 362 0 "},"Ή":{"ha":444,"x_min":0,"x_max":0,"o":"m 359 0 "},"Ί":{"ha":-275,"x_min":0,"x_max":0,"o":"m 519 982 "},"Ό":{"ha":242,"x_min":0,"x_max":0,"o":"m 1096 491 b 1040 519 771 491 772 699 "},"Ύ":{"ha":562,"x_min":0,"x_max":0,"o":"m 334 982 l 694 315 "},"Ώ":{"ha":290,"x_min":0,"x_max":0,"o":"m 140 0 "},"Ϊ":{"ha":0,"x_min":0,"x_max":0,"o":""},"Ϋ":{"ha":0,"x_min":0,"x_max":0,"o":""},"Ͱ":{"ha":82,"x_min":0,"x_max":0,"o":"m 812 589 l 385 589 l 385 982 l 130 982 l 130 0 l 385 0 l 385 389 l 812 389 z "},"Ͳ":{"ha":58,"x_min":0,"x_max":0,"o":"m 892 594 l 892 982 l 45 982 l 45 594 l 248 594 l 248 773 l 342 773 l 342 0 l 597 0 l 597 773 l 689 773 l 689 594 z "},"Ͷ":{"ha":201,"x_min":0,"x_max":0,"o":"m 109 982 l 109 0 l 324 0 l 689 530 l 696 530 l 696 0 l 954 0 l 954 982 l 734 982 l 374 454 l 366 454 l 366 982 z "},"Ϙ":{"ha":163,"x_min":0,"x_max":0,"o":"m 963 490 b 514 996 963 817 766 996 b 60 490 258 996 60 817 b 385 3 60 221 195 54 l 385 -274 l 644 -274 l 644 3 b 963 490 831 55 963 221 z m 321 490 b 514 769 321 696 400 768 b 701 490 626 768 701 697 b 514 214 701 279 626 214 b 321 490 401 214 321 279 z "},"Ϛ":{"ha":205,"x_min":0,"x_max":0,"o":"m 534 -73 l 536 -259 b 918 9 769 -262 918 -159 b 774 212 918 111 867 184 l 538 282 b 365 556 418 320 365 404 l 365 578 b 549 791 365 724 422 790 b 708 644 657 790 705 746 l 956 644 b 543 996 939 858 775 996 b 109 576 288 996 109 823 l 109 556 b 412 90 109 296 216 144 l 595 39 b 662 -14 644 26 661 13 b 534 -73 661 -55 617 -75 z "},"Ϝ":{"ha":82,"x_min":0,"x_max":0,"o":"m 779 570 l 749 570 l 749 595 l 374 595 l 374 773 l 819 773 l 819 982 l 117 982 l 117 0 l 374 0 l 374 387 l 574 387 l 574 225 l 779 225 z "},"Ϟ":{"ha":229,"x_min":0,"x_max":0,"o":"m 179 91 l 718 437 l 705 216 b 707 140 703 187 703 163 b 951 -14 720 27 806 -14 b 1024 -8 968 -14 1006 -11 l 1036 163 b 1009 161 1027 161 1015 161 b 898 209 951 161 913 174 b 892 273 891 224 889 245 l 932 815 l 914 852 l 366 482 l 384 757 b 381 846 385 791 385 821 b 144 996 365 957 292 996 b 66 991 126 996 86 995 l 57 821 b 94 823 65 822 73 823 b 197 758 162 823 192 806 b 197 726 198 749 198 738 l 152 125 z "},"Ϡ":{"ha":374,"x_min":0,"x_max":0,"o":"m 155 543 l 382 543 b 583 791 379 674 444 790 b 766 683 663 790 724 753 l 256 400 l 353 232 l 821 492 b 827 380 825 458 827 420 l 827 369 l 404 134 l 503 -34 l 812 139 b 600 -49 785 18 720 -49 l 600 -288 b 1084 307 917 -288 1082 -64 l 1084 378 b 601 996 1083 770 906 996 b 155 543 294 996 166 774 z "},"Ϗ":{"ha":239,"x_min":0,"x_max":0,"o":"m 376 982 l 126 982 l 126 0 l 376 0 l 376 238 l 476 342 l 674 7 l 549 -94 l 684 -241 l 975 0 l 646 532 l 993 982 l 681 982 l 460 677 l 376 549 z "},"ϒ":{"ha":128,"x_min":0,"x_max":0,"o":""},"ϓ":{"ha":379,"x_min":0,"x_max":0,"o":"m 624 0 l 873 0 l 873 286 l 1069 743 b 1139 789 1079 767 1102 789 b 1185 789 1151 789 1181 788 l 1210 978 b 1100 996 1181 985 1136 996 b 859 800 990 996 907 935 l 751 507 l 644 811 b 400 996 594 952 509 996 b 292 978 357 996 319 985 l 315 789 b 361 789 317 788 347 789 b 429 743 395 789 417 771 l 624 282 "},"ϔ":{"ha":0,"x_min":0,"x_max":0,"o":""},"ϴ":{"ha":0,"x_min":0,"x_max":0,"o":""},"Ϸ":{"ha":0,"x_min":0,"x_max":0,"o":""},"Ϲ":{"ha":173,"x_min":0,"x_max":0,"o":""},"Ϻ":{"ha":394,"x_min":0,"x_max":0,"o":""},"Ͻ":{"ha":238,"x_min":0,"x_max":0,"o":"m 376 339 l 126 339 b 540 -14 143 134 298 -14 b 972 461 811 -14 973 165 l 972 521 b 545 996 973 817 820 996 b 127 650 307 996 136 864 l 376 650 b 541 791 380 755 446 790 b 718 521 691 790 718 707 l 718 458 b 538 189 718 279 684 189 b 376 339 431 189 380 237 z "},"Ͼ":{"ha":0,"x_min":0,"x_max":0,"o":""},"Ͽ":{"ha":0,"x_min":0,"x_max":0,"o":""},"Ἀ":{"ha":0,"x_min":0,"x_max":0,"o":""},"Ἁ":{"ha":0,"x_min":0,"x_max":0,"o":""},"Ἂ":{"ha":204,"x_min":0,"x_max":0,"o":""},"Ἃ":{"ha":204,"x_min":0,"x_max":0,"o":""},"Ἄ":{"ha":0,"x_min":0,"x_max":0,"o":""},"Ἅ":{"ha":0,"x_min":0,"x_max":0,"o":""},"Ἆ":{"ha":0,"x_min":0,"x_max":0,"o":""},"Ἇ":{"ha":0,"x_min":0,"x_max":0,"o":""},"Ὰ":{"ha":0,"x_min":0,"x_max":0,"o":"l 204 -68 l 1 NaN l 1 NaN l -74 NaN l -219 NaN l -219 NaN l -60 NaN l -6 NaN l -258 NaN "},"Ά":{"ha":0,"x_min":0,"x_max":0,"o":""},"Ᾰ":{"ha":0,"x_min":0,"x_max":0,"o":""},"Ᾱ":{"ha":0,"x_min":0,"x_max":0,"o":""},"ᾼ":{"ha":0,"x_min":0,"x_max":0,"o":""},"ᾈ":{"ha":0,"x_min":0,"x_max":0,"o":""},"ᾉ":{"ha":0,"x_min":0,"x_max":0,"o":""},"ᾊ":{"ha":0,"x_min":0,"x_max":0,"o":""},"ᾋ":{"ha":0,"x_min":0,"x_max":0,"o":""},"ᾌ":{"ha":0,"x_min":0,"x_max":0,"o":""},"ᾍ":{"ha":0,"x_min":0,"x_max":0,"o":""},"ᾎ":{"ha":0,"x_min":0,"x_max":0,"o":""},"ᾏ":{"ha":0,"x_min":0,"x_max":0,"o":""},"Ἐ":{"ha":188,"x_min":0,"x_max":0,"o":"m 277 0 z "},"Ἑ":{"ha":196,"x_min":0,"x_max":0,"o":"m 286 0 z "},"Ἒ":{"ha":444,"x_min":0,"x_max":0,"o":"m 534 0 "},"Ἓ":{"ha":412,"x_min":0,"x_max":0,"o":"m 500 0 "},"Ἔ":{"ha":437,"x_min":0,"x_max":0,"o":"m 528 0 "},"Ἕ":{"ha":454,"x_min":0,"x_max":0,"o":"m 544 0 "},"Ὲ":{"ha":239,"x_min":0,"x_max":0,"o":"m 330 0 "},"Έ":{"ha":238,"x_min":0,"x_max":0,"o":"m 327 0 "},"Ἠ":{"ha":390,"x_min":0,"x_max":0,"o":"m 307 0 z "},"Ἡ":{"ha":368,"x_min":0,"x_max":0,"o":""},"Ἢ":{"ha":0,"x_min":0,"x_max":0,"o":""},"Ἣ":{"ha":0,"x_min":0,"x_max":0,"o":""},"Ἤ":{"ha":0,"x_min":0,"x_max":0,"o":""},"Ἥ":{"ha":0,"x_min":0,"x_max":0,"o":""},"Ἦ":{"ha":0,"x_min":0,"x_max":0,"o":""},"Ἧ":{"ha":534,"x_min":0,"x_max":0,"o":""},"Ὴ":{"ha":412,"x_min":0,"x_max":0,"o":"m 328 0 "},"Ή":{"ha":410,"x_min":0,"x_max":0,"o":"m 326 0 "},"ῌ":{"ha":0,"x_min":0,"x_max":0,"o":""},"ᾘ":{"ha":370,"x_min":0,"x_max":0,"o":"m 286 0 "},"ᾙ":{"ha":0,"x_min":0,"x_max":0,"o":""},"ᾚ":{"ha":0,"x_min":0,"x_max":0,"o":""},"ᾛ":{"ha":0,"x_min":0,"x_max":0,"o":""},"ᾜ":{"ha":0,"x_min":0,"x_max":0,"o":""},"ᾝ":{"ha":0,"x_min":0,"x_max":0,"o":""},"ᾞ":{"ha":0,"x_min":0,"x_max":0,"o":""},"ᾟ":{"ha":0,"x_min":0,"x_max":0,"o":""},"Ἰ":{"ha":-258,"x_min":0,"x_max":0,"o":"m 541 982 z "},"Ἱ":{"ha":-281,"x_min":0,"x_max":0,"o":"m 519 982 z "},"Ἲ":{"ha":-32,"x_min":0,"x_max":0,"o":"m 768 982 "},"Ἳ":{"ha":-66,"x_min":0,"x_max":0,"o":"m 734 982 "},"Ἴ":{"ha":-39,"x_min":0,"x_max":0,"o":"m 761 982 "},"Ἵ":{"ha":-24,"x_min":0,"x_max":0,"o":"m 777 982 "},"Ἶ":{"ha":-142,"x_min":0,"x_max":0,"o":"m 659 982 "},"Ἷ":{"ha":-116,"x_min":0,"x_max":0,"o":"m 685 982 z "},"Ὶ":{"ha":-238,"x_min":0,"x_max":0,"o":"m 563 982 z m 71 1952 l 229 1740 l 290 1740 l 290 1762 l 216 1964 l 71 1964 z "},"Ί":{"ha":-239,"x_min":0,"x_max":0,"o":"m 560 982 "},"Ῐ":{"ha":0,"x_min":0,"x_max":0,"o":""},"Ῑ":{"ha":-470,"x_min":0,"x_max":0,"o":""},"Ὀ":{"ha":245,"x_min":0,"x_max":0,"o":"m 1097 491 b 1041 519 772 491 773 699 "},"Ὁ":{"ha":290,"x_min":0,"x_max":0,"o":"m 1142 491 b 1086 519 817 491 818 699 "},"Ὂ":{"ha":0,"x_min":0,"x_max":0,"o":""},"Ὃ":{"ha":437,"x_min":0,"x_max":0,"o":"m 1290 491 b 1234 519 965 491 966 699 "},"Ὄ":{"ha":0,"x_min":0,"x_max":0,"o":""},"Ὅ":{"ha":0,"x_min":0,"x_max":0,"o":""},"Ὸ":{"ha":267,"x_min":0,"x_max":0,"o":"m 1119 491 b 1063 519 794 491 795 699 "},"Ό":{"ha":186,"x_min":0,"x_max":0,"o":"m 1040 491 b 984 519 715 491 716 699 "},"Ῥ":{"ha":256,"x_min":0,"x_max":0,"o":"m 274 0 "},"Ὑ":{"ha":448,"x_min":0,"x_max":0,"o":"m 218 982 l 579 315 z "},"Ὓ":{"ha":663,"x_min":0,"x_max":0,"o":"m 433 982 l 793 315 "},"Ὕ":{"ha":744,"x_min":0,"x_max":0,"o":"m 515 982 l 876 315 "},"Ὗ":{"ha":652,"x_min":0,"x_max":0,"o":"m 423 982 l 784 315 z "},"Ὺ":{"ha":471,"x_min":0,"x_max":0,"o":"m 243 982 l 604 315 "},"Ύ":{"ha":462,"x_min":0,"x_max":0,"o":"m 233 982 l 594 315 "},"Ῠ":{"ha":0,"x_min":0,"x_max":0,"o":""},"Ῡ":{"ha":163,"x_min":0,"x_max":0,"o":""},"Ὠ":{"ha":254,"x_min":0,"x_max":0,"o":""},"Ὡ":{"ha":338,"x_min":0,"x_max":0,"o":""},"Ὢ":{"ha":0,"x_min":0,"x_max":0,"o":""},"Ὣ":{"ha":0,"x_min":0,"x_max":0,"o":""},"Ὤ":{"ha":0,"x_min":0,"x_max":0,"o":""},"Ὥ":{"ha":0,"x_min":0,"x_max":0,"o":""},"Ὦ":{"ha":0,"x_min":0,"x_max":0,"o":""},"Ὧ":{"ha":454,"x_min":0,"x_max":0,"o":""},"Ὼ":{"ha":0,"x_min":0,"x_max":0,"o":""},"Ώ":{"ha":256,"x_min":0,"x_max":0,"o":"m 106 0 "},"ῼ":{"ha":0,"x_min":0,"x_max":0,"o":""},"ᾨ":{"ha":0,"x_min":0,"x_max":0,"o":""},"ᾩ":{"ha":0,"x_min":0,"x_max":0,"o":""},"ᾪ":{"ha":0,"x_min":0,"x_max":0,"o":""},"ᾫ":{"ha":0,"x_min":0,"x_max":0,"o":""},"ᾬ":{"ha":0,"x_min":0,"x_max":0,"o":""},"ᾭ":{"ha":0,"x_min":0,"x_max":0,"o":""},"ᾮ":{"ha":0,"x_min":0,"x_max":0,"o":""},"ᾯ":{"ha":0,"x_min":0,"x_max":0,"o":""},"Ϳ":{"ha":0,"x_min":0,"x_max":0,"o":""},"α":{"ha":26,"x_min":0,"x_max":0,"o":""},"β":{"ha":-25,"x_min":0,"x_max":0,"o":"m 420 996 b 69 673 228 996 69 877 l 69 -277 l 315 -277 l 315 35 l 320 37 b 499 -8 376 6 436 -8 b 803 281 665 -8 803 106 b 671 518 803 383 755 467 b 760 730 728 574 760 652 b 420 996 761 911 585 996 z m 315 332 l 315 652 b 420 776 315 736 357 776 b 513 678 482 776 513 736 b 416 581 513 642 503 581 l 378 581 l 378 408 l 425 408 b 559 308 492 408 559 383 b 441 201 559 245 511 201 b 315 332 360 201 315 260 z "},"γ":{"ha":0,"x_min":0,"x_max":0,"o":""},"δ":{"ha":109,"x_min":0,"x_max":0,"o":"m 202 817 b 326 640 203 747 242 690 l 327 636 b 118 349 205 605 117 485 l 118 336 b 487 -14 117 127 264 -14 b 853 354 706 -14 852 134 l 853 368 b 506 755 852 553 739 680 b 427 811 449 774 427 791 b 524 850 427 838 456 850 b 677 825 582 850 639 840 l 677 1000 b 500 1027 612 1018 558 1026 b 202 817 318 1026 201 944 z m 357 372 l 357 381 b 487 560 357 488 408 560 b 613 381 559 547 613 469 l 613 372 b 487 179 613 254 566 179 b 357 372 406 179 357 254 z "},"ε":{"ha":0,"x_min":0,"x_max":0,"o":""},"ζ":{"ha":-93,"x_min":0,"x_max":0,"o":"m 713 982 l 43 982 l 43 776 l 384 776 l 275 642 b 95 251 157 496 94 422 b 353 0 94 125 183 39 l 395 -9 b 456 -69 436 -19 457 -40 b 393 -174 453 -98 437 -134 l 515 -260 b 700 -16 636 -186 700 -102 b 487 175 700 71 628 138 l 454 184 b 334 301 374 205 333 245 b 454 543 333 367 375 446 l 713 853 z "},"η":{"ha":6,"x_min":0,"x_max":0,"o":""},"θ":{"ha":113,"x_min":0,"x_max":0,"o":"m 841 393 l 841 591 b 487 1002 840 867 692 1002 b 133 591 279 1002 132 866 l 133 393 b 488 -14 132 116 279 -14 b 841 393 696 -14 840 116 z m 380 365 l 380 406 l 595 406 l 595 365 b 488 189 595 214 554 188 b 380 365 410 188 380 229 z m 380 587 l 380 625 b 487 802 380 754 410 802 b 595 625 554 802 595 767 l 595 587 z "},"ɩ":{"ha":-386,"x_min":0,"x_max":0,"o":""},"κ":{"ha":0,"x_min":0,"x_max":0,"o":""},"λ":{"ha":-24,"x_min":0,"x_max":0,"o":"m 713 -14 b 811 0 747 -14 793 -7 l 796 179 b 780 178 791 178 786 178 b 705 267 747 178 734 193 l 495 808 b 216 996 450 927 347 996 b 91 972 173 996 137 989 l 146 781 b 278 727 229 807 248 796 l 291 694 l 26 0 l 286 0 l 411 365 l 421 365 l 507 119 b 713 -14 543 34 616 -14 z "},"μ":{"ha":73,"x_min":0,"x_max":0,"o":""},"ν":{"ha":39,"x_min":0,"x_max":0,"o":"m 305 0 l 545 0 b 833 736 722 205 823 469 l 585 736 b 456 245 572 513 545 396 l 448 245 l 288 736 l 26 736 z "},"ξ":{"ha":-59,"x_min":0,"x_max":0,"o":"m 651 770 l 688 956 b 477 996 614 984 549 996 b 136 731 264 996 135 896 b 260 549 135 640 174 581 b 66 294 131 507 66 422 b 266 52 66 167 121 101 l 435 -8 b 494 -71 471 -20 494 -44 b 434 -172 494 -98 469 -142 l 552 -259 b 736 -3 654 -195 734 -94 b 544 174 737 78 678 143 l 464 190 b 309 323 349 216 309 252 b 502 450 309 405 378 450 l 600 450 l 600 654 l 492 654 b 376 727 414 654 376 675 b 495 796 376 772 416 796 b 651 770 542 796 586 789 z "},"ο":{"ha":-20,"x_min":0,"x_max":0,"o":""},"π":{"ha":234,"x_min":0,"x_max":0,"o":"m 985 736 l 107 736 l 107 560 l 231 560 l 231 0 l 479 0 l 479 560 l 612 560 l 612 220 b 854 -8 612 60 703 -7 b 990 14 902 -7 947 0 l 990 189 b 932 189 973 189 956 189 b 857 258 873 189 857 205 l 857 560 l 985 560 z "},"ρ":{"ha":-47,"x_min":0,"x_max":0,"o":""},"ς":{"ha":-56,"x_min":0,"x_max":0,"o":"m 422 746 b 65 363 197 746 65 604 l 65 351 b 365 5 65 163 149 66 b 418 -54 402 -5 418 -28 b 355 -161 418 -87 390 -128 l 480 -247 b 659 9 581 -176 659 -94 b 442 187 659 83 618 137 b 311 351 333 218 311 247 l 311 363 b 420 553 311 494 345 554 b 511 431 484 554 511 517 l 738 431 b 422 746 737 629 619 746 z "},"σ":{"ha":75,"x_min":0,"x_max":0,"o":"m 87 365 l 87 349 b 453 -14 87 142 216 -14 b 799 323 675 -14 799 124 l 799 336 b 694 521 799 406 753 473 l 849 521 l 849 713 l 450 713 b 87 365 214 713 87 564 z m 330 349 l 330 365 b 450 521 330 450 359 521 b 556 365 535 521 556 450 l 556 349 b 453 179 556 253 535 179 b 330 349 355 179 330 253 z "},"τ":{"ha":-36,"x_min":0,"x_max":0,"o":"m 768 736 l 60 736 l 60 547 l 279 547 l 279 248 b 543 -14 280 77 379 -14 b 670 -3 599 -14 631 -9 l 656 184 b 586 180 630 182 619 181 b 528 250 543 181 527 206 l 528 547 l 768 547 z "},"υ":{"ha":-64,"x_min":0,"x_max":0,"o":""},"φ":{"ha":364,"x_min":0,"x_max":0,"o":"m 491 518 l 491 193 b 347 404 374 222 347 299 b 420 635 347 501 374 578 l 243 746 b 99 404 172 688 99 566 b 491 -5 100 215 197 36 l 491 -277 l 726 -277 l 726 -9 b 1124 376 1026 22 1125 192 b 762 746 1124 604 981 746 b 491 518 597 746 491 659 z m 726 187 l 726 469 b 785 553 726 522 747 554 b 882 376 842 554 881 486 b 726 187 881 271 842 208 z "},"χ":{"ha":-13,"x_min":0,"x_max":0,"o":"m 20 -277 l 275 -277 l 427 0 l 492 -119 b 779 -277 560 -242 623 -276 l 831 -277 l 831 -90 l 779 -90 b 696 -30 732 -90 726 -85 l 555 228 l 834 736 l 581 736 l 429 460 l 362 581 b 76 736 297 701 231 737 l 23 736 l 23 551 l 76 551 b 159 491 123 550 127 547 l 301 233 z "},"ψ":{"ha":0,"x_min":0,"x_max":0,"o":""},"ω":{"ha":498,"x_min":0,"x_max":0,"o":""},"ί":{"ha":0,"x_min":0,"x_max":0,"o":""},"ϊ":{"ha":0,"x_min":0,"x_max":0,"o":""},"ΐ":{"ha":0,"x_min":0,"x_max":0,"o":""},"ύ":{"ha":0,"x_min":0,"x_max":0,"o":""},"ϋ":{"ha":0,"x_min":0,"x_max":0,"o":""},"ΰ":{"ha":0,"x_min":0,"x_max":0,"o":""},"ό":{"ha":0,"x_min":0,"x_max":0,"o":""},"ώ":{"ha":0,"x_min":0,"x_max":0,"o":""},"ά":{"ha":0,"x_min":0,"x_max":0,"o":""},"έ":{"ha":0,"x_min":0,"x_max":0,"o":""},"ή":{"ha":0,"x_min":0,"x_max":0,"o":""},"ͱ":{"ha":-60,"x_min":0,"x_max":0,"o":"m 471 0 l 471 252 l 753 252 l 753 445 l 471 445 l 471 498 b 179 746 471 728 312 746 b 47 736 123 746 84 743 l 47 576 b 109 581 69 578 85 580 b 228 498 157 580 228 568 l 228 0 z "},"ͳ":{"ha":100,"x_min":0,"x_max":0,"o":"m 898 982 l 62 982 l 62 594 l 256 594 l 256 788 l 359 788 l 359 0 l 605 0 l 605 788 l 704 788 l 704 594 l 898 594 z "},"ͷ":{"ha":75,"x_min":0,"x_max":0,"o":"m 332 0 l 526 401 l 526 259 b 758 -14 526 79 616 -14 b 844 -3 789 -14 814 -12 l 825 180 b 815 178 823 178 821 178 b 769 259 780 178 769 206 l 769 736 l 526 736 l 332 336 l 332 736 l 90 736 l 90 0 z "},"ͻ":{"ha":0,"x_min":0,"x_max":0,"o":""},"ͼ":{"ha":-59,"x_min":0,"x_max":0,"o":"m 331 359 b 433 266 330 308 374 267 b 537 359 494 267 537 306 b 433 452 536 414 496 452 b 331 359 374 452 331 414 z m 66 361 b 419 -14 66 139 186 -14 b 736 274 597 -14 738 89 l 510 274 b 414 180 510 208 475 181 b 309 361 312 181 309 275 l 309 373 b 412 553 309 456 312 554 b 510 441 481 554 510 507 l 736 441 b 941 410 939 441 941 308 b NaN NaN 941 256 722 NaN z "},"ͽ":{"ha":-59,"x_min":0,"x_max":0,"o":"m 293 263 l 66 263 b 385 -14 64 89 197 -14 b 736 361 616 -14 736 141 l 736 373 b 382 746 736 594 616 746 b 66 430 205 746 64 644 l 293 430 b 388 552 292 525 327 552 b 492 373 490 552 493 458 l 492 361 b 391 179 493 277 490 179 b 293 263 321 179 292 227 z m 266 346 b 369 254 266 291 307 253 b 472 346 428 253 471 291 b 369 439 472 397 428 439 b 266 346 309 439 265 399 z "},"ϙ":{"ha":-48,"x_min":0,"x_max":0,"o":"m 415 187 b 290 370 323 188 290 255 b 415 548 290 483 323 549 b 538 370 507 549 540 485 b 415 187 540 255 507 188 z m 47 370 b 298 2 49 190 140 48 l 298 -277 l 537 -277 l 537 4 b 781 370 692 52 781 192 b 415 746 781 589 645 746 b 47 370 184 746 49 589 z "},"ϛ":{"ha":-56,"x_min":0,"x_max":0,"o":"m 416 -90 l 416 -271 b 749 -45 576 -269 748 -240 b 610 151 748 71 687 126 l 487 187 b 298 381 374 219 298 260 l 298 414 b 401 553 298 501 314 554 b 499 431 469 554 498 507 l 724 431 b 407 746 726 644 593 746 b 56 407 172 746 55 600 l 56 376 b 321 38 55 158 176 88 l 469 -12 b 506 -45 498 -19 505 -31 b 416 -90 505 -77 472 -90 z "},"ϝ":{"ha":-55,"x_min":0,"x_max":0,"o":"m 718 736 l 90 736 l 90 -274 l 332 -274 l 332 208 l 464 208 l 464 72 l 658 72 l 658 400 l 332 400 l 332 544 l 718 544 z "},"ϟ":{"ha":106,"x_min":0,"x_max":0,"o":"m 861 574 l 412 574 l 608 983 l 339 983 l 110 544 l 110 382 l 573 382 l 389 0 l 658 0 l 861 423 z "},"ϡ":{"ha":195,"x_min":0,"x_max":0,"o":"m 274 1048 l 49 926 b 514 644 250 847 402 758 l 107 419 l 206 251 l 632 490 b 682 391 650 458 667 425 l 254 155 l 353 -14 l 741 203 b 784 -288 771 66 784 -96 l 1008 -170 b 274 1048 1009 456 861 824 z "},"ϗ":{"ha":200,"x_min":0,"x_max":0,"o":"m 321 0 l 651 422 b 685 241 656 346 669 290 b 792 -15 726 115 793 52 b 661 -88 793 -56 761 -88 b 637 -85 657 -88 647 -88 l 637 -259 b 732 -263 674 -262 703 -263 b 996 -50 962 -263 996 -100 b 848 340 996 94 909 163 b 812 628 822 415 812 508 l 897 736 l 735 736 l 397 304 l 397 510 b 184 746 398 626 378 746 b 65 736 148 746 93 743 l 65 570 b 122 574 83 572 103 574 b 209 510 163 574 210 563 l 209 62 l 160 0 z "},"ϐ":{"ha":79,"x_min":0,"x_max":0,"o":"m 532 601 b 301 529 443 602 368 583 b 326 691 301 584 309 640 l 319 666 b 511 640 394 650 458 640 b 798 838 698 640 798 734 b 537 1027 798 936 720 1026 b 107 468 300 1026 107 835 l 107 433 b 487 -14 107 138 236 -14 b 833 297 705 -14 833 128 b 532 601 833 474 726 602 z m 345 297 b 469 407 345 376 391 407 b 593 297 549 407 593 374 b 471 179 593 220 550 179 b 345 297 393 179 345 220 z m 386 801 b 502 856 416 835 454 856 b 576 815 546 856 576 842 b 494 784 576 788 535 784 b 386 801 460 784 418 791 z "},"ϑ":{"ha":74,"x_min":0,"x_max":0,"o":"m 859 358 l 852 564 b 792 555 831 562 810 558 l 792 690 b 524 996 792 880 690 996 b 236 703 351 996 237 878 l 236 674 b 534 335 237 503 356 374 l 534 313 b 419 187 535 239 489 186 b 301 313 352 186 302 237 l 301 430 l 77 430 l 77 313 b 429 -14 76 127 220 -14 b 792 313 634 -14 792 121 l 792 342 b 859 358 812 347 834 352 z m 460 692 l 460 722 b 499 777 461 757 475 777 b 534 727 522 777 535 760 l 534 564 b 460 692 485 588 458 631 z "},"ϕ":{"ha":277,"x_min":0,"x_max":0,"o":"m 452 -277 l 686 -277 l 686 -10 b 1072 369 935 13 1072 157 b 686 744 1072 577 934 720 l 686 997 l 452 997 l 452 743 b 66 369 205 719 67 576 b 452 -10 67 157 204 14 z m 313 369 b 452 593 315 487 366 570 l 452 141 b 313 369 366 164 315 248 z m 686 140 l 686 593 b 825 369 774 570 825 488 b 686 140 825 248 774 163 z "},"ϖ":{"ha":498,"x_min":0,"x_max":0,"o":"m 1297 736 l 62 736 l 62 579 l 176 579 b 137 361 152 510 138 436 b 448 -14 135 105 259 -14 b 680 119 558 -14 634 36 b 911 -14 726 36 802 -14 b 1221 361 1100 -14 1224 105 b 1183 579 1221 436 1207 510 l 1297 579 z m 378 368 b 416 579 378 432 391 503 l 943 579 b 981 368 968 503 981 432 b 894 180 981 254 951 181 b 808 336 844 181 809 236 l 808 454 l 549 454 l 549 336 b 465 180 550 236 515 181 b 378 368 408 181 378 254 z "},"ϰ":{"ha":203,"x_min":0,"x_max":0,"o":"m 176 0 l 339 0 l 652 403 l 652 224 b 864 -14 653 127 657 -14 b 985 -4 899 -14 956 -9 l 985 163 b 929 161 965 161 944 161 b 840 222 878 161 840 174 l 840 644 l 911 736 l 750 736 l 412 303 l 412 510 b 202 746 413 626 397 746 b 80 736 162 746 108 743 l 81 570 b 137 574 98 572 117 574 b 224 510 178 574 224 563 l 227 66 z "},"ϱ":{"ha":79,"x_min":0,"x_max":0,"o":"m 564 -315 l 757 -315 b 486 -66 758 -199 720 -109 b 304 112 379 -48 327 12 b 515 41 368 58 437 40 b 833 381 724 40 833 186 l 833 406 b 471 746 833 608 707 746 b 107 353 238 746 111 588 l 107 330 l 107 328 b 444 -245 108 -23 229 -196 b 564 -315 545 -268 565 -280 z m 347 381 l 347 406 b 471 553 348 488 371 554 b 593 406 576 554 593 479 l 593 381 b 471 233 593 302 566 233 b 347 381 374 233 348 304 z "},"ϲ":{"ha":-47,"x_min":0,"x_max":0,"o":""},"ϳ":{"ha":0,"x_min":0,"x_max":0,"o":""},"ϵ":{"ha":-186,"x_min":0,"x_max":0,"o":"m 415 176 b 308 279 345 176 318 225 l 544 279 l 544 441 l 308 441 b 415 544 319 507 349 544 l 617 544 l 617 736 l 415 736 b 60 368 183 736 60 578 l 60 351 b 415 -16 60 139 183 -16 l 617 -16 l 617 176 z "},"ϸ":{"ha":0,"x_min":0,"x_max":0,"o":""},"ϻ":{"ha":200,"x_min":0,"x_max":0,"o":"m 525 269 l 365 736 l 72 736 l 72 -274 l 315 -274 l 315 366 l 448 0 l 608 0 l 750 395 l 750 0 l 993 0 l 993 736 l 688 736 z "},"ϼ":{"ha":-47,"x_min":0,"x_max":0,"o":"m 71 396 z "},"ἀ":{"ha":26,"x_min":0,"x_max":0,"o":""},"ἁ":{"ha":26,"x_min":0,"x_max":0,"o":""},"ἂ":{"ha":0,"x_min":0,"x_max":0,"o":""},"ἃ":{"ha":0,"x_min":0,"x_max":0,"o":""},"ἄ":{"ha":26,"x_min":0,"x_max":0,"o":""},"ἅ":{"ha":26,"x_min":0,"x_max":0,"o":""},"ἆ":{"ha":0,"x_min":0,"x_max":0,"o":""},"ἇ":{"ha":26,"x_min":0,"x_max":0,"o":""},"ὰ":{"ha":26,"x_min":0,"x_max":0,"o":""},"ά":{"ha":0,"x_min":0,"x_max":0,"o":""},"ᾶ":{"ha":26,"x_min":0,"x_max":0,"o":""},"ᾰ":{"ha":26,"x_min":0,"x_max":0,"o":""},"ᾱ":{"ha":26,"x_min":0,"x_max":0,"o":""},"ᾳ":{"ha":0,"x_min":0,"x_max":0,"o":""},"ᾲ":{"ha":0,"x_min":0,"x_max":0,"o":""},"ᾴ":{"ha":0,"x_min":0,"x_max":0,"o":""},"ᾀ":{"ha":26,"x_min":0,"x_max":0,"o":""},"ᾁ":{"ha":0,"x_min":0,"x_max":0,"o":""},"ᾂ":{"ha":0,"x_min":0,"x_max":0,"o":""},"ᾃ":{"ha":0,"x_min":0,"x_max":0,"o":""},"ᾄ":{"ha":26,"x_min":0,"x_max":0,"o":""},"ᾅ":{"ha":26,"x_min":0,"x_max":0,"o":""},"ᾆ":{"ha":0,"x_min":0,"x_max":0,"o":""},"ᾇ":{"ha":26,"x_min":0,"x_max":0,"o":""},"ᾷ":{"ha":0,"x_min":0,"x_max":0,"o":""},"ἐ":{"ha":0,"x_min":0,"x_max":0,"o":""},"ἑ":{"ha":0,"x_min":0,"x_max":0,"o":""},"ἒ":{"ha":-71,"x_min":0,"x_max":0,"o":""},"ἓ":{"ha":-71,"x_min":0,"x_max":0,"o":""},"ἔ":{"ha":-71,"x_min":0,"x_max":0,"o":""},"ἕ":{"ha":-71,"x_min":0,"x_max":0,"o":""},"ὲ":{"ha":0,"x_min":0,"x_max":0,"o":""},"έ":{"ha":0,"x_min":0,"x_max":0,"o":""},"ἠ":{"ha":6,"x_min":0,"x_max":0,"o":""},"ἡ":{"ha":6,"x_min":0,"x_max":0,"o":""},"ἢ":{"ha":0,"x_min":0,"x_max":0,"o":""},"ἣ":{"ha":0,"x_min":0,"x_max":0,"o":""},"ἤ":{"ha":0,"x_min":0,"x_max":0,"o":""},"ἥ":{"ha":0,"x_min":0,"x_max":0,"o":""},"ἦ":{"ha":0,"x_min":0,"x_max":0,"o":""},"ἧ":{"ha":6,"x_min":0,"x_max":0,"o":""},"ὴ":{"ha":0,"x_min":0,"x_max":0,"o":""},"ή":{"ha":0,"x_min":0,"x_max":0,"o":""},"ῆ":{"ha":0,"x_min":0,"x_max":0,"o":""},"ῃ":{"ha":6,"x_min":0,"x_max":0,"o":""},"ῂ":{"ha":0,"x_min":0,"x_max":0,"o":""},"ῄ":{"ha":0,"x_min":0,"x_max":0,"o":""},"ᾐ":{"ha":6,"x_min":0,"x_max":0,"o":""},"ᾑ":{"ha":6,"x_min":0,"x_max":0,"o":""},"ᾒ":{"ha":6,"x_min":0,"x_max":0,"o":"m 60 935 l 114 895 b 241 1078 194 937 242 1002 l 241 1133 l 115 1133 l 115 1082 b 60 935 116 1021 96 975 "},"ᾓ":{"ha":0,"x_min":0,"x_max":0,"o":""},"ᾔ":{"ha":0,"x_min":0,"x_max":0,"o":""},"ᾕ":{"ha":0,"x_min":0,"x_max":0,"o":""},"ᾖ":{"ha":0,"x_min":0,"x_max":0,"o":""},"ᾗ":{"ha":6,"x_min":0,"x_max":0,"o":""},"ῇ":{"ha":0,"x_min":0,"x_max":0,"o":""},"ἰ":{"ha":-386,"x_min":0,"x_max":0,"o":""},"ἱ":{"ha":-386,"x_min":0,"x_max":0,"o":""},"ἲ":{"ha":0,"x_min":0,"x_max":0,"o":""},"ἳ":{"ha":0,"x_min":0,"x_max":0,"o":""},"ἴ":{"ha":0,"x_min":0,"x_max":0,"o":""},"ἵ":{"ha":0,"x_min":0,"x_max":0,"o":""},"ἶ":{"ha":0,"x_min":0,"x_max":0,"o":""},"ἷ":{"ha":-386,"x_min":0,"x_max":0,"o":""},"ὶ":{"ha":0,"x_min":0,"x_max":0,"o":""},"ί":{"ha":0,"x_min":0,"x_max":0,"o":""},"ῖ":{"ha":0,"x_min":0,"x_max":0,"o":""},"ῐ":{"ha":0,"x_min":0,"x_max":0,"o":""},"ῑ":{"ha":-386,"x_min":0,"x_max":0,"o":""},"ῒ":{"ha":-386,"x_min":0,"x_max":0,"o":"m 136 218 l -269 441 l -179 330 l -58 330 l -113 441 "},"ΐ":{"ha":0,"x_min":0,"x_max":0,"o":""},"ῗ":{"ha":0,"x_min":0,"x_max":0,"o":""},"ὀ":{"ha":-20,"x_min":0,"x_max":0,"o":""},"ὁ":{"ha":-20,"x_min":0,"x_max":0,"o":""},"ὂ":{"ha":0,"x_min":0,"x_max":0,"o":""},"ὃ":{"ha":0,"x_min":0,"x_max":0,"o":""},"ὄ":{"ha":-20,"x_min":0,"x_max":0,"o":""},"ὅ":{"ha":-20,"x_min":0,"x_max":0,"o":""},"ὸ":{"ha":-20,"x_min":0,"x_max":0,"o":""},"ό":{"ha":0,"x_min":0,"x_max":0,"o":""},"ῤ":{"ha":-47,"x_min":0,"x_max":0,"o":""},"ῥ":{"ha":-47,"x_min":0,"x_max":0,"o":"m 71 396 z "},"ὐ":{"ha":-64,"x_min":0,"x_max":0,"o":""},"ὑ":{"ha":-64,"x_min":0,"x_max":0,"o":""},"ὒ":{"ha":0,"x_min":0,"x_max":0,"o":""},"ὓ":{"ha":0,"x_min":0,"x_max":0,"o":""},"ὔ":{"ha":0,"x_min":0,"x_max":0,"o":""},"ὕ":{"ha":0,"x_min":0,"x_max":0,"o":""},"ὖ":{"ha":0,"x_min":0,"x_max":0,"o":""},"ὗ":{"ha":-64,"x_min":0,"x_max":0,"o":""},"ὺ":{"ha":0,"x_min":0,"x_max":0,"o":""},"ύ":{"ha":-64,"x_min":0,"x_max":0,"o":"m 0 92 z "},"ῦ":{"ha":0,"x_min":0,"x_max":0,"o":""},"ῠ":{"ha":0,"x_min":0,"x_max":0,"o":""},"ῡ":{"ha":-64,"x_min":0,"x_max":0,"o":""},"ῢ":{"ha":-64,"x_min":0,"x_max":0,"o":"m 136 218 l -75 441 l 15 330 l 136 330 l 81 441 "},"ΰ":{"ha":0,"x_min":0,"x_max":0,"o":""},"ῧ":{"ha":0,"x_min":0,"x_max":0,"o":""},"ὠ":{"ha":498,"x_min":0,"x_max":0,"o":""},"ὡ":{"ha":498,"x_min":0,"x_max":0,"o":""},"ὢ":{"ha":0,"x_min":0,"x_max":0,"o":""},"ὣ":{"ha":0,"x_min":0,"x_max":0,"o":""},"ὤ":{"ha":0,"x_min":0,"x_max":0,"o":""},"ὥ":{"ha":0,"x_min":0,"x_max":0,"o":""},"ὦ":{"ha":0,"x_min":0,"x_max":0,"o":""},"ὧ":{"ha":498,"x_min":0,"x_max":0,"o":""},"ὼ":{"ha":0,"x_min":0,"x_max":0,"o":""},"ώ":{"ha":0,"x_min":0,"x_max":0,"o":""},"ῶ":{"ha":0,"x_min":0,"x_max":0,"o":""},"ῳ":{"ha":0,"x_min":0,"x_max":0,"o":""},"ῲ":{"ha":498,"x_min":0,"x_max":0,"o":"m 99 -1255 b 464 -1308 99 -1221 403 -1308 b 499 NaN 427 -1308 499 -1308 z "},"ῴ":{"ha":0,"x_min":0,"x_max":0,"o":""},"ᾠ":{"ha":0,"x_min":0,"x_max":0,"o":""},"ᾡ":{"ha":0,"x_min":0,"x_max":0,"o":""},"ᾢ":{"ha":0,"x_min":0,"x_max":0,"o":""},"ᾣ":{"ha":0,"x_min":0,"x_max":0,"o":""},"ᾤ":{"ha":498,"x_min":0,"x_max":0,"o":""},"ᾥ":{"ha":498,"x_min":0,"x_max":0,"o":""},"ᾦ":{"ha":0,"x_min":0,"x_max":0,"o":""},"ᾧ":{"ha":498,"x_min":0,"x_max":0,"o":""},"ῷ":{"ha":0,"x_min":0,"x_max":0,"o":""},"ι":{"ha":-437,"x_min":0,"x_max":0,"o":"m 243 -326 l 243 -461 b 376 -585 243 -549 304 -585 z "},"ͺ":{"ha":-437,"x_min":0,"x_max":0,"o":"m 243 -326 l 243 -461 b 376 -585 243 -549 304 -585 z "},"가":{"ha":0,"x_min":0,"x_max":0,"o":""},"각":{"ha":-724,"x_min":0,"x_max":0,"o":"m 172 -377 l 391 -377 l 391 -110 l -640 -110 l -640 -397 l 0 -397 l 0 -709 l 218 -709 l 218 -227 l -640 -227 z "},"갂":{"ha":0,"x_min":0,"x_max":0,"o":""},"갃":{"ha":0,"x_min":0,"x_max":0,"o":""},"간":{"ha":0,"x_min":0,"x_max":0,"o":"l 1032 0 l 1032 -221 l 145 -221 l 145 0 l 522 0 "},"갅":{"ha":121,"x_min":0,"x_max":0,"o":"l -675 0 l -675 217 l -431 217 m -1454 -69 l -1371 -239 b -785 414 -995 -151 -786 68 z "},"갆":{"ha":0,"x_min":0,"x_max":0,"o":"l -616 0 l -616 218 l -429 218 "},"갇":{"ha":0,"x_min":0,"x_max":0,"o":"l 256 0 "},"갈":{"ha":0,"x_min":0,"x_max":0,"o":""},"갉":{"ha":0,"x_min":0,"x_max":0,"o":"l -650 0 l -650 218 l -414 218 l -414 376 l -237 376 l -237 218 "},"갊":{"ha":0,"x_min":0,"x_max":0,"o":""},"갋":{"ha":0,"x_min":0,"x_max":0,"o":""},"갌":{"ha":0,"x_min":0,"x_max":0,"o":""},"갍":{"ha":0,"x_min":0,"x_max":0,"o":""},"갎":{"ha":0,"x_min":0,"x_max":0,"o":""},"갏":{"ha":0,"x_min":0,"x_max":0,"o":""},"감":{"ha":0,"x_min":0,"x_max":0,"o":"l 262 0 "},"갑":{"ha":0,"x_min":0,"x_max":0,"o":""},"값":{"ha":0,"x_min":0,"x_max":0,"o":""},"갓":{"ha":0,"x_min":0,"x_max":0,"o":"m 1188 814 l 1032 814 l 1032 1119 l 814 1119 l 814 294 l 1032 294 l 1032 637 l 1188 637 z m 9 509 l 99 334 b 692 1028 484 437 691 677 l 84 1028 l 84 856 l 449 856 b 9 509 418 703 275 576 z m 130 42 l 217 -130 b 618 91 414 -98 544 -17 b 1023 -130 693 -18 825 -100 l 1108 42 b 728 351 814 83 728 230 l 728 377 l 511 377 l 511 351 b 130 42 510 229 422 81 z "},"갔":{"ha":0,"x_min":0,"x_max":0,"o":""},"강":{"ha":0,"x_min":0,"x_max":0,"o":""},"갖":{"ha":0,"x_min":0,"x_max":0,"o":""},"갗":{"ha":111,"x_min":0,"x_max":0,"o":"m 1188 869 l 1032 869 l 1032 1120 l 814 1120 l 814 439 l 1032 439 l 1032 694 l 1188 694 z m 18 613 l 94 442 b 686 1054 480 513 686 709 l 81 1054 l 81 883 l 441 883 b 18 613 418 768 299 660 z "},"갘":{"ha":-1031,"x_min":0,"x_max":0,"o":"l 269 0 m 418 -434 l 113 -414 l -54 229 l -16 NaN l -16 NaN l 203 NaN l 203 NaN l -656 NaN l -656 NaN l -16 NaN l -16 NaN z "},"같":{"ha":0,"x_min":0,"x_max":0,"o":""},"갚":{"ha":0,"x_min":0,"x_max":0,"o":"l -667 0 l -667 218 l -419 218 l -419 374 l -247 374 l -247 218 "},"갛":{"ha":0,"x_min":0,"x_max":0,"o":""},"개":{"ha":0,"x_min":0,"x_max":0,"o":"l 1116 0 l 1116 -208 l 661 -208 l 661 -285 l 1084 -285 l 1084 -486 l -87 -486 l -87 -285 l 487 -285 l 487 -208 l -138 -208 l -138 0 m -1252 400 l -1127 251 b -678 1104 -778 457 -677 734 l -1179 1104 l -1179 932 l -890 932 b -1252 400 -916 698 -1020 541 z "},"객":{"ha":0,"x_min":0,"x_max":0,"o":"l -270 0 l -270 -75 l -20 -75 l -20 -278 l -727 -278 l -727 -75 l -446 -75 l -446 0 l -730 0 l -730 206 m -1843 361 l -1742 199 b -1271 856 -1409 324 -1270 528 l -1775 856 l -1775 682 l -1493 682 b -1843 361 -1520 539 -1623 435 z m -1622 -12 l -947 -12 l -947 -316 l -730 -316 l -730 163 l -1622 163 z "},"갞":{"ha":0,"x_min":0,"x_max":0,"o":"l 266 0 l 266 75 l -8 75 l -8 -197 l -83 -197 l -83 54 l -286 54 m -233 -860 l -19 -860 l -19 -1177 l 198 -1177 l 198 -692 l -233 -692 z "},"갟":{"ha":0,"x_min":0,"x_max":0,"o":""},"갠":{"ha":-339,"x_min":0,"x_max":0,"o":""},"갡":{"ha":0,"x_min":0,"x_max":0,"o":""},"갢":{"ha":-235,"x_min":0,"x_max":0,"o":""},"갣":{"ha":0,"x_min":0,"x_max":0,"o":"l 267 0 l 267 75 l -11 75 l -11 281 l 720 281 l 720 75 l 441 75 l 441 0 l 703 0 l 703 -203 "},"갤":{"ha":-235,"x_min":0,"x_max":0,"o":"m -214 107 l -289 321 l -492 -267 l -289 -62 l -214 38 l -370 356 b 228 NaN -266 490 -85 491 l -259 NaN l -259 NaN l -2 NaN b -326 NaN -26 NaN -117 NaN z m -100 NaN l 811 NaN l 811 NaN l 117 NaN l 117 NaN l 774 NaN l 774 NaN l -100 NaN l -100 NaN l 559 NaN l 559 NaN l -100 NaN z "},"갥":{"ha":0,"x_min":0,"x_max":0,"o":"l 220 0 l 220 75 l -4 75 l -4 -164 l -79 -164 l -79 54 l -282 54 "},"갦":{"ha":39,"x_min":0,"x_max":0,"o":"l 220 0 l 220 75 l -4 75 l -4 -164 l -79 -164 l -79 54 l -282 54 "},"갧":{"ha":-235,"x_min":0,"x_max":0,"o":"m 491 -555 z m 616 -958 l 616 -1032 l 830 -1032 l 830 -1236 l 228 -1236 l 228 -1032 l 444 -1032 l 444 -958 l 222 -958 l 222 -842 l -110 -842 l -110 -723 l -49 -723 l -49 -842 z "},"갨":{"ha":220,"x_min":0,"x_max":0,"o":""},"갩":{"ha":220,"x_min":0,"x_max":0,"o":""},"갪":{"ha":220,"x_min":0,"x_max":0,"o":"m 241 -1051 l 241 -977 l 18 -977 l 18 -770 l 652 -770 l 652 -547 l 692 -547 l 692 -770 z "},"갫":{"ha":0,"x_min":0,"x_max":0,"o":"l 202 0 l 202 75 l -11 75 l -11 281 l 608 281 l 608 75 l 374 75 l 374 0 l 587 0 l 587 -203 "},"갬":{"ha":-1099,"x_min":0,"x_max":0,"o":"l -271 0 l -271 -75 l -20 -75 l -20 -278 l -704 -278 l -704 -75 l -442 -75 l -442 0 l -711 0 l -711 206 m -486 -441 l -362 -441 l -362 433 l 111 433 l 111 -441 z m 326 -739 l 326 -609 l 772 -609 l 772 -739 z "},"갭":{"ha":872,"x_min":0,"x_max":0,"o":"l -259 0 l -259 -75 l -20 -75 l -20 -278 l -666 -278 l -666 -75 l -431 -75 l -431 0 l -673 0 l -673 206 l -1774 312 b -1322 968 -1454 439 -1322 644 l -1812 968 l -1812 792 l -1550 792 b -1880 469 -1576 650 -1670 547 m -1651 -198 z m -1556 -543 l -1556 -28 l -1771 -28 l -1771 -123 l -2214 -123 l -2214 -39 l -1771 -39 l -1771 -123 z "},"갮":{"ha":0,"x_min":0,"x_max":0,"o":""},"갯":{"ha":0,"x_min":0,"x_max":0,"o":""},"갰":{"ha":65,"x_min":0,"x_max":0,"o":"l -278 0 l -278 -75 l -20 -75 l -20 -278 l -689 -278 l -689 -75 l -450 -75 l -450 0 l -692 0 l -692 206 m -1797 320 l -1693 163 b -1233 818 -1365 287 -1232 490 l -1729 818 l -1729 642 l -1458 642 b -1797 320 -1486 499 -1584 397 z "},"갱":{"ha":0,"x_min":0,"x_max":0,"o":"l -274 0 l -274 -75 l -20 -75 l -20 -278 l -703 -278 l -703 -75 l -450 -75 l -450 0 l -741 0 l -741 206 m -1849 343 l -1744 184 b -1278 864 -1411 316 -1277 532 l -1771 864 l -1771 693 l -1503 693 b -1849 343 -1529 538 -1629 427 z m -1618 -49 b -1179 -300 -1617 -205 -1444 -300 b -734 -49 -910 -300 -734 -205 b -1179 202 -734 105 -910 203 b -1618 -49 -1444 203 -1617 105 z m -1401 -49 b -1179 38 -1402 12 -1324 39 b -952 -49 -1034 39 -953 12 b -1179 -136 -953 -109 -1034 -136 b -1401 -49 -1324 -136 -1402 -109 z "},"갲":{"ha":256,"x_min":0,"x_max":0,"o":""},"갳":{"ha":0,"x_min":0,"x_max":0,"o":""},"갴":{"ha":0,"x_min":0,"x_max":0,"o":""},"갵":{"ha":0,"x_min":0,"x_max":0,"o":"l 222 0 l 222 75 l -5 75 l -5 281 l 636 281 l 636 75 l 395 75 l 395 0 l 616 0 l 616 -203 "},"갶":{"ha":-1099,"x_min":0,"x_max":0,"o":"l 260 0 l 260 75 l -7 75 l -7 281 m 195 -366 l 311 -366 l 311 559 l 486 559 l 486 395 l 620 395 l 620 540 l 792 540 l 792 -354 l 620 -354 l 620 -209 l 486 -209 l 486 -366 z m 857 -366 l 857 -232 l 1036 -232 l 1036 -366 z "},"갷":{"ha":-233,"x_min":0,"x_max":0,"o":""},"갸":{"ha":0,"x_min":0,"x_max":0,"o":"m 1188 823 l 1029 823 l 1029 1120 l 811 1120 l 811 -132 l 1029 -132 l 1029 275 l 1222 275 l 1222 434 "},"갹":{"ha":-1187,"x_min":0,"x_max":0,"o":"m 1188 968 l 1032 968 l 1032 1120 l 814 1120 l 814 396 l 1032 396 l 1032 528 l 1127 528 l 1127 684 z m 1299 307 l 1057 307 l 1057 947 l 745 947 l 745 1165 l 1227 1165 l 1227 307 z "},"갺":{"ha":0,"x_min":0,"x_max":0,"o":"m 1190 986 l 1032 986 l 1032 1120 l 814 1120 l 814 414 l 1032 414 l 1032 551 l 1190 551 l 1190 722 l 1032 722 l 1032 814 l 1190 814 "},"갻":{"ha":0,"x_min":0,"x_max":0,"o":"l -700 0 l -700 218 l -566 218 l -566 374 l -396 374 l -396 218 l -301 218 "},"갼":{"ha":0,"x_min":0,"x_max":0,"o":"m 1188 924 l 1032 924 l 1032 1120 l 811 1120 l 811 233 l 1032 233 l 1032 450 l 1157 450 l 1157 606 "},"갽":{"ha":-548,"x_min":0,"x_max":0,"o":"m 675 1063 l 758 894 b 1344 1546 1135 982 1343 1201 z m 2029 1621 "},"갾":{"ha":0,"x_min":0,"x_max":0,"o":"l -616 0 l -616 218 l -533 218 l -533 376 l -359 376 l -359 218 l -293 218 l -293 376 l -121 376 l -121 218 "},"갿":{"ha":0,"x_min":0,"x_max":0,"o":"l 117 0 l 117 98 "},"걀":{"ha":0,"x_min":0,"x_max":0,"o":"m 1188 1013 l 1032 1013 l 1032 1120 l 814 1120 l 814 500 l 1032 500 l 1032 598 l 1105 598 l 1105 754 "},"걁":{"ha":0,"x_min":0,"x_max":0,"o":""},"걂":{"ha":0,"x_min":0,"x_max":0,"o":""},"걃":{"ha":0,"x_min":0,"x_max":0,"o":""},"걄":{"ha":0,"x_min":0,"x_max":0,"o":""},"걅":{"ha":0,"x_min":0,"x_max":0,"o":""},"걆":{"ha":0,"x_min":0,"x_max":0,"o":""},"걇":{"ha":0,"x_min":0,"x_max":0,"o":"l -612 0 l -612 218 l -526 218 l -526 374 l -358 374 l -358 218 l -289 218 l -289 374 l -117 374 l -117 218 "},"걈":{"ha":0,"x_min":0,"x_max":0,"o":""},"걉":{"ha":0,"x_min":0,"x_max":0,"o":""},"걊":{"ha":0,"x_min":0,"x_max":0,"o":""},"걋":{"ha":0,"x_min":0,"x_max":0,"o":"m 1185 947 l 1032 947 l 1032 1120 l 814 1120 l 814 294 l 1032 294 l 1032 479 l 1185 479 l 1185 655 l 1032 655 l 1032 770 l 1185 770 z m 9 509 l 99 334 b 692 1028 484 441 691 677 l 84 1028 l 84 856 l 449 856 b 9 509 418 703 275 576 z m 130 42 l 217 -129 b 618 92 414 -99 545 -16 l 618 168 l 510 168 l 510 298 l 427 298 l 427 496 l 395 496 l 395 582 l 571 582 l 571 606 l 354 606 l 354 582 b -27 271 353 460 265 311 z "},"걌":{"ha":0,"x_min":0,"x_max":0,"o":""},"걍":{"ha":0,"x_min":0,"x_max":0,"o":"m 1184 967 l 1032 967 l 1032 1120 l 814 1120 l 814 407 l 1032 407 l 1032 532 l 1184 532 l 1184 708 l 1032 708 l 1032 789 l 1184 789 "},"걎":{"ha":0,"x_min":0,"x_max":0,"o":""},"걏":{"ha":-557,"x_min":0,"x_max":0,"o":"m 686 1054 l 81 1054 l 81 883 l 441 883 b 18 613 418 768 299 660 l 94 442 b 686 1054 480 513 686 709 z m 1371 1461 "},"걐":{"ha":136,"x_min":0,"x_max":0,"o":"m 149 -434 l 305 -262 l -726 -696 l -705 -863 l -62 -824 l -62 -951 l 156 -951 l 156 -448 l -703 -448 l -703 -620 l -62 -620 l -62 -671 z "},"걑":{"ha":0,"x_min":0,"x_max":0,"o":"l -651 0 l -651 218 l -536 218 l -536 300 "},"걒":{"ha":0,"x_min":0,"x_max":0,"o":"l -667 0 l -667 218 l -553 218 l -553 308 "},"걓":{"ha":0,"x_min":0,"x_max":0,"o":"m 1188 1008 l 1032 1008 l 1032 1120 l 814 1120 l 814 473 l 1032 473 l 1032 585 l 1108 585 l 1108 741 "},"걔":{"ha":0,"x_min":0,"x_max":0,"o":"l 1116 0 l 1116 -208 l 826 -208 l 826 -285 l 1084 -285 l 1084 -486 l -87 -486 l -87 -285 l 305 -285 l 305 -208 l -138 -208 l -138 0 m -1252 400 l -1127 251 b -678 1104 -778 457 -677 734 l -1179 1104 l -1179 932 l -890 932 b -1252 400 -916 698 -1020 541 z m -423 616 l -423 792 l -346 792 l -346 616 z "},"걕":{"ha":0,"x_min":0,"x_max":0,"o":"l -137 0 l -137 -75 l -20 -75 l -20 -278 l -727 -278 l -727 -75 l -587 -75 l -587 0 l -730 0 l -730 206 m -1843 361 l -1742 199 b -1271 856 -1409 324 -1270 528 l -1775 856 l -1775 682 l -1493 682 b -1843 361 -1520 539 -1623 435 z m -1622 -12 l -947 -12 l -947 -316 l -730 -316 l -730 163 l -1622 163 z m -1010 519 l -1010 628 l -936 628 l -936 519 z "},"걖":{"ha":0,"x_min":0,"x_max":0,"o":"l 127 0 l 127 75 l -8 75 l -8 -68 l -83 -68 l -83 54 l -286 54 m -233 -860 l -19 -860 l -19 -1177 l 198 -1177 l 198 -692 l -233 -692 z m -83 -335 l -83 -243 l -8 -243 l -8 -335 z "},"걗":{"ha":127,"x_min":0,"x_max":0,"o":"m 117 -385 l 117 -311 l -18 -311 l -18 -104 l 693 -104 l 693 -311 l 556 -311 l 556 -385 l 656 -385 l 656 -311 l 556 -311 z "},"걘":{"ha":-209,"x_min":0,"x_max":0,"o":"m 594 323 l 594 248 l 783 248 l 783 45 l -98 45 l -98 248 l 130 248 l 130 323 l -133 323 l -133 444 l -58 444 l -58 323 z "},"걙":{"ha":122,"x_min":0,"x_max":0,"o":"m 117 -377 l 117 -302 l -9 -302 l -9 -439 l -84 -439 l -84 -353 l -9 -353 l -9 -439 z "},"걚":{"ha":-119,"x_min":0,"x_max":0,"o":"m 23 719 l 23 644 l 122 644 l 122 441 l -480 441 l -480 644 l -392 644 l -392 719 l -486 719 l -486 788 l -411 788 l -411 719 z "},"걛":{"ha":137,"x_min":0,"x_max":0,"o":"m 123 -393 l 123 -319 l -24 -319 l -24 -113 l 707 -113 l 707 -319 l 566 -319 l 566 -393 l 662 -393 l 662 -319 l 566 -319 z "},"걜":{"ha":-1100,"x_min":0,"x_max":0,"o":"l -125 0 l -125 -75 l -20 -75 l -20 -278 l -609 -278 l -609 -75 l -519 -75 l -519 0 l -618 0 l -618 206 m -393 -519 l -288 -519 l -288 392 l -119 392 l -119 -302 l -75 -302 l -75 355 l 288 355 l 288 -519 l 122 -519 l 122 140 l 81 140 l 81 -519 z m 675 -5 l 675 61 l 750 61 l 750 -5 z "},"걝":{"ha":106,"x_min":0,"x_max":0,"o":"m 109 -340 l 109 -266 l -1 -266 l -1 -395 l -76 -395 l -76 -323 l -1 -323 l -1 -395 z "},"걞":{"ha":0,"x_min":0,"x_max":0,"o":"l 106 0 l 106 75 l -4 75 l -4 -50 l -79 -50 l -79 54 l -282 54 m -243 -1166 l 202 -1166 l 202 -606 l -243 -606 z m -79 -286 l -79 -214 l -4 -214 l -4 -286 z m -58 -1009 l -58 -765 l 16 -765 l 16 -1009 z "},"걟":{"ha":-1100,"x_min":0,"x_max":0,"o":"l -121 0 l -121 -75 l -20 -75 l -20 -278 l -623 -278 l -623 -75 l -522 -75 l -522 0 l -628 0 l -628 206 m -137 -349 l -22 -349 l -22 -681 l 103 -681 l 103 -875 z m 270 -560 l 270 -487 l 345 -487 l 345 -560 z m 297 -1278 l 297 -1158 l 358 -1158 l 358 -1278 z "},"걠":{"ha":104,"x_min":0,"x_max":0,"o":"m 106 -340 l 106 -266 l -3 -266 l -3 -392 l -77 -392 l -77 -319 l -3 -319 l -3 -392 z "},"걡":{"ha":0,"x_min":0,"x_max":0,"o":"l 102 0 l 102 75 l -4 75 l -4 281 l 631 281 l 631 75 l 505 75 l 505 0 l 610 0 l 610 -203 m 814 -548 l 814 -471 l 888 -471 l 888 -548 z "},"걢":{"ha":106,"x_min":0,"x_max":0,"o":"m 104 -340 l 104 -266 l -5 -266 l -5 -391 l -80 -391 l -80 -319 l -5 -319 l -5 -391 z m -42 -1101 l -42 -878 l -3 -878 l -3 -1101 z "},"걣":{"ha":18,"x_min":0,"x_max":0,"o":"l 81 0 l 81 75 l -11 75 l -11 281 l 608 281 l 608 75 l 483 75 l 483 0 l 587 0 l 587 -203 m 773 517 l 773 -545 l 848 -545 l 848 -471 l 773 -471 z m 701 -1191 z "},"걤":{"ha":-1099,"x_min":0,"x_max":0,"o":"l -684 0 l -684 203 l -556 203 l -556 278 l -690 278 l -690 484 m -465 -163 l -342 -163 l -342 711 l 138 711 l 138 -163 z m 353 -468 l 353 -335 l 799 -335 l 799 -468 "},"걥":{"ha":872,"x_min":0,"x_max":0,"o":"l -130 0 l -130 -75 l -20 -75 l -20 -278 l -666 -278 l -666 -75 l -556 -75 l -556 0 l -673 0 l -673 206 l -1774 312 b -1322 968 -1454 439 -1322 644 l -1812 968 l -1812 792 l -1550 792 b -1880 469 -1576 650 -1670 547 m -1651 -198 z m -1556 -543 l -1556 -28 l -1771 -28 l -1771 -123 l -2214 -123 l -2214 -39 l -1771 -39 l -1771 -123 z m -1836 559 l -1836 637 l -1762 637 l -1762 559 z "},"걦":{"ha":0,"x_min":0,"x_max":0,"o":"l 114 0 l 114 75 l -9 75 l -9 -57 l -84 -57 l -84 54 l -288 54 m -84 -308 l -84 -229 l -9 -229 l -9 -308 z "},"걧":{"ha":0,"x_min":0,"x_max":0,"o":"l 121 0 l 121 75 l -119 75 l -119 281 l 696 281 l 696 75 l 553 75 l 553 0 l 675 0 l 675 -203 m 879 -587 l 879 -498 l 954 -498 l 954 -587 z "},"걨":{"ha":0,"x_min":0,"x_max":0,"o":"l -669 0 l -669 203 l -556 203 l -556 278 l -671 278 l -671 484 m -1777 598 l -1672 441 b -1213 1096 -1345 565 -1212 768 l -1709 1096 l -1709 920 l -1438 920 b -1777 598 -1466 777 -1563 675 "},"걩":{"ha":0,"x_min":0,"x_max":0,"o":"l -682 0 l -682 203 l -556 203 l -556 278 l -720 278 l -720 484 m -1828 621 l -1724 463 b -1257 1142 -1390 594 -1257 810 l -1751 1142 l -1751 971 l -1482 971 b -1828 621 -1509 817 -1609 705 z m -1598 229 b -1158 -22 -1597 73 -1423 -22 b -713 229 -890 -22 -714 73 b -1158 480 -714 383 -890 481 b -1598 229 -1423 481 -1597 383 z m -1381 229 b -1158 316 -1381 290 -1303 317 b -932 229 -1013 317 -932 290 b -1158 142 -932 170 -1013 142 b -1381 229 -1303 142 -1381 170 "},"걪":{"ha":0,"x_min":0,"x_max":0,"o":""},"걫":{"ha":94,"x_min":0,"x_max":0,"o":"m 103 -351 l 103 -277 l -60 -277 l -60 -400 l -134 -400 l -134 -324 l -60 -324 l -60 -400 z "},"걬":{"ha":0,"x_min":0,"x_max":0,"o":""},"걭":{"ha":0,"x_min":0,"x_max":0,"o":"l 96 0 l 96 75 l -5 75 l -5 281 l 636 281 l 636 75 l 521 75 l 521 0 l 616 0 l 616 -203 m 819 -551 l 819 -471 l 894 -471 l 894 -551 z "},"걮":{"ha":-1099,"x_min":0,"x_max":0,"o":"l -142 0 l -142 -75 l -20 -75 l -20 -278 l -696 -278 l -696 -75 l -575 -75 l -575 0 l -703 0 l -703 206 m -500 -441 l -385 -441 l -385 484 l -210 484 l -210 320 l -76 320 l -76 465 l 96 465 l 96 -429 l -76 -429 l -76 -283 l -210 -283 l -210 -441 z m 161 -441 l 161 -307 l 340 -307 l 340 -441 z m 406 214 l 406 304 l 480 304 l 480 214 z "},"걯":{"ha":-125,"x_min":0,"x_max":0,"o":"m 319 726 l 319 651 l 423 651 l 423 448 l -160 448 l -160 651 l -75 651 l -75 726 l -222 726 l -222 876 l -156 876 l -156 951 l -222 951 z "},"거":{"ha":-469,"x_min":0,"x_max":0,"o":"m -609 374 l -825 198 l -609 307 l -779 758 b 142 NaN -556 861 -250 863 l -461 NaN l -461 NaN l -78 NaN b -522 NaN -104 NaN -221 NaN z "},"걱":{"ha":0,"x_min":0,"x_max":0,"o":"m 684 1051 l 104 1051 l 104 880 l 450 880 b 34 553 420 739 288 619 l 117 385 b 684 1051 489 486 684 715 z m 224 176 l 879 176 l 879 -130 l 1096 -130 l 1096 350 l 224 350 z m 701 654 l 879 654 l 879 395 l 1096 395 l 1096 1118 l 879 1118 l 879 830 l 701 830 z "},"걲":{"ha":0,"x_min":0,"x_max":0,"o":""},"걳":{"ha":0,"x_min":0,"x_max":0,"o":"m NaN -871 l NaN -871 l NaN -1181 l NaN -1181 l NaN -1049 l NaN -970 l NaN -970 l NaN -1049 b NaN -1307 NaN -1162 NaN -1258 l NaN -983 l NaN -983 "},"건":{"ha":0,"x_min":0,"x_max":0,"o":"l -349 0 l -349 -190 l -525 -190 l -525 0 l -910 0 l -910 217 m -1964 502 l -1877 328 b -1301 1038 -1503 441 -1301 692 l -1898 1038 l -1898 861 l -1539 861 b -1964 502 -1575 703 -1723 573 "},"걵":{"ha":0,"x_min":0,"x_max":0,"o":"b -203 182 -125 35 -184 104 l -41 182 l -41 354 l -586 354 l -586 182 l -420 182 b -604 7 -437 109 -491 44 l -639 98 b -802 42 -683 71 -741 52 l -1134 42 l -1134 528 l -1371 528 l -1371 245 l -1558 245 "},"걶":{"ha":0,"x_min":0,"x_max":0,"o":"l -245 0 l -245 -193 l -420 -193 l -420 0 l -620 0 l -620 217 m -1679 327 l -1602 156 b -1047 799 -1223 252 -1048 458 l -1600 799 l -1600 627 l -1282 627 b -1679 327 -1308 494 -1419 388 z m -1538 -385 l -1538 -61 l -1748 -61 "},"걷":{"ha":0,"x_min":0,"x_max":0,"o":"m 684 1051 l 100 1051 l 100 880 l 446 880 b 30 551 415 734 283 616 l 113 381 b 684 1051 487 482 683 711 z m 256 -123 l 1124 -123 l 1124 50 l 469 50 l 469 205 l 1099 205 l 1099 376 l 256 376 z m 692 659 l 879 659 l 879 425 l 1096 425 l 1096 1118 l 879 1118 l 879 837 l 692 837 z "},"걸":{"ha":0,"x_min":0,"x_max":0,"o":"l -245 0 l -245 -193 l -420 -193 l -420 0 l -620 0 l -620 217 m -1674 350 l -1602 180 b -1047 799 -1227 265 -1046 463 l -1600 799 l -1600 627 l -1282 627 b -1674 350 -1308 505 -1418 403 "},"걹":{"ha":0,"x_min":0,"x_max":0,"o":""},"걺":{"ha":-264,"x_min":0,"x_max":0,"o":"m 491 -560 l 305 -560 l 305 -732 l 491 -732 l 491 -935 l 635 -935 l 635 -500 l 1195 -500 l 1195 -935 z m 1381 -1337 l 1381 -1093 l 1442 -1093 l 1442 -1337 z "},"걻":{"ha":-258,"x_min":0,"x_max":0,"o":"m 492 -560 l 492 -746 l 319 -746 l 319 -560 l 115 -560 l 115 -420 l 548 -420 l 548 149 l 359 149 l 359 24 l 301 24 l 301 149 l 420 149 l 420 208 l 301 208 z "},"걼":{"ha":0,"x_min":0,"x_max":0,"o":""},"걽":{"ha":0,"x_min":0,"x_max":0,"o":""},"걾":{"ha":-1070,"x_min":0,"x_max":0,"o":"m 355 -347 l 570 -347 l 570 -388 l 357 -388 l 357 -749 l 433 -749 b 806 -728 610 -749 698 -747 l 784 -566 b 566 -582 715 -576 654 -581 l 566 -540 l 780 -540 l 780 -189 l 355 -189 z m 878 58 l 1063 58 l 1063 -144 l 1280 -144 l 1280 495 l 1063 495 l 1063 231 l 878 231 z m 1042 -579 l 1042 -355 l 1081 -355 l 1081 -579 z "},"걿":{"ha":0,"x_min":0,"x_max":0,"o":"l -243 0 l -243 -186 l -416 -186 l -416 0 l -612 0 l -612 217 m -1668 340 l -1594 172 b -1021 791 -1210 251 -1022 452 l -1600 791 l -1600 618 l -1257 618 b -1668 340 -1282 496 -1399 391 "},"검":{"ha":-581,"x_min":0,"x_max":0,"o":"m 681 1051 z m 254 -121 l 83 -121 l 83 225 l 925 225 l 925 723 l 83 723 z m 297 393 l 297 553 l 709 553 l 709 393 z m 521 1006 l 708 1006 l 708 772 l 426 772 l 426 585 z "},"겁":{"ha":0,"x_min":0,"x_max":0,"o":"l -273 0 l -273 -193 l -445 -193 l -445 0 l -681 0 l -681 217 "},"겂":{"ha":-332,"x_min":0,"x_max":0,"o":"m 332 -533 l 332 -244 l 419 -244 l 419 -170 l 332 -170 z m 575 467 l 768 467 l 768 231 l 495 231 l 495 38 z "},"것":{"ha":0,"x_min":0,"x_max":0,"o":"l -316 0 l -316 -186 l -492 -186 l -492 0 l -821 0 l -821 217 m -1879 423 l -1785 255 b -1236 945 -1392 374 -1236 595 l -1808 945 l -1808 774 l -1472 774 b -1879 423 -1497 619 -1607 501 b -1856 245 -1746 -39 -1827 161 l -1684 NaN b -2064 NaN -1977 NaN -2065 NaN l -2064 NaN l -2281 NaN l -2281 NaN b -2662 NaN -2281 NaN -2367 NaN z "},"겄":{"ha":-582,"x_min":0,"x_max":0,"o":"m 681 1051 z m 1297 1675 l 1126 1675 l 1126 2022 l 522 2022 l 522 2208 l 289 2208 l 289 1925 l 103 1925 z "},"겅":{"ha":0,"x_min":0,"x_max":0,"o":"l -300 0 l -300 -178 l -477 -178 l -477 0 l -697 0 l -697 217 m -1762 336 l -1678 165 b -1109 836 -1284 267 -1108 485 l -1689 836 l -1689 663 l -1344 663 b -1762 336 -1369 520 -1485 404 z m -1553 -64 b -1120 -332 -1554 -229 -1377 -333 b -686 -64 -865 -333 -687 -229 b -1120 202 -687 100 -865 202 b -1553 -64 -1377 202 -1554 100 z m -1336 -64 b -1120 35 -1336 2 -1259 35 b -905 -64 -983 35 -905 2 b -1120 -161 -905 -134 -983 -162 b -1336 -64 -1259 -162 -1336 -134 z "},"겆":{"ha":-515,"x_min":0,"x_max":0,"o":"m 699 1051 l 107 1051 l 107 880 l 461 880 b 30 585 434 750 307 637 l 104 411 b 699 1051 495 494 699 709 z m 1206 1671 l 187 1671 l 187 1860 l -31 1860 l -31 2077 l 652 2077 l 652 1860 l 363 1860 l 363 1671 z "},"겇":{"ha":0,"x_min":0,"x_max":0,"o":"m 1107 359 l 768 359 l 768 473 l 544 473 l 544 359 l 201 359 l 201 202 l 534 202 b 153 33 505 131 402 51 l 221 -129 b 655 47 439 -112 579 -45 b 273 217 409 68 304 149 l 602 217 z m -475 598 l -400 427 b 194 1066 -9 511 194 725 l -397 1066 l -397 895 l -43 895 b -475 598 -71 766 -197 651 z m 186 671 l 374 671 l 374 446 l 591 446 l 591 1133 l 374 1133 l 374 845 l 186 845 z "},"겈":{"ha":0,"x_min":0,"x_max":0,"o":"l -1066 0 l -1066 686 l -1301 686 l -1301 404 l -1488 404 "},"겉":{"ha":0,"x_min":0,"x_max":0,"o":"m -1065 332 l -983 164 b -412 803 -600 252 -412 457 l -1000 803 l -1000 632 l -651 632 b -1065 332 -675 500 -790 390 z m -411 407 l -222 407 l -222 205 l -5 205 l -5 852 l -222 852 l -222 579 l -411 579 z "},"겊":{"ha":-480,"x_min":0,"x_max":0,"o":"m 686 1054 l 104 1054 l 104 883 l 450 883 b 35 572 420 747 290 630 l 115 401 b 686 1054 488 494 687 715 z m 627 1649 l -544 1649 l -544 1839 l -746 1839 l -746 2056 l -80 2056 l -80 1839 l -368 1839 l -368 1649 z "},"겋":{"ha":-454,"x_min":0,"x_max":0,"o":"m 663 1065 l 104 1065 l 104 895 l 428 895 b 31 614 406 768 306 668 l 103 446 b 663 1065 496 532 664 719 z m 830 1723 l 16 1723 l 16 1910 l -220 1910 l -220 2127 l 437 2127 l 437 1910 l 189 1910 l 189 1723 z "},"게":{"ha":0,"x_min":0,"x_max":0,"o":"l 1123 0 l 1123 -203 l -132 -203 l -132 0 m -1252 406 l -1131 254 b -768 618 -951 356 -837 477 l -602 618 l -602 50 l -1042 50 l -1042 -55 b -1008 267 -1018 43 -1008 151 l -1508 267 l -1508 94 l -1223 94 b -1586 -439 -1248 -139 -1345 -296 z "},"겍":{"ha":0,"x_min":0,"x_max":0,"o":"m NaN 644 l NaN 490 b NaN 757 NaN 558 NaN 645 l NaN 757 l NaN 525 l NaN 525 l NaN 1230 l NaN 1230 l NaN 932 l NaN 932 b NaN 1158 NaN 1000 NaN 1076 l NaN 1158 l NaN 986 l NaN 986 b NaN 644 NaN 836 NaN 730 "},"겎":{"ha":0,"x_min":0,"x_max":0,"o":"m 579 1024 l 96 1024 l 96 852 l 349 852 b 24 525 323 707 233 605 l 130 370 b 479 632 294 435 408 521 l 644 632 l 644 396 l 848 396 l 848 1096 l 644 1096 l 644 804 l 553 804 b 579 1024 570 871 578 944 "},"겏":{"ha":0,"x_min":0,"x_max":0,"o":"l 492 166 b 760 NaN 558 281 646 352 l 922 NaN l 922 NaN l 1125 NaN l 1125 NaN l 922 NaN l 922 NaN l 832 NaN b 857 NaN 848 NaN 857 NaN l 374 NaN l 374 NaN l 626 NaN b 302 NaN 600 NaN 509 NaN "},"겐":{"ha":0,"x_min":0,"x_max":0,"o":"l -926 0 l -926 206 m -2029 509 l -1922 349 b -1582 595 -1767 412 -1655 492 l -1396 595 l -1396 237 l -1192 237 l -1192 1112 l -1396 1112 l -1396 764 l -1500 764 b -1466 1020 -1477 840 -1466 925 l -1948 1020 l -1948 849 l -1693 849 b -2029 509 -1719 697 -1813 590 z m -1778 -102 "},"겑":{"ha":0,"x_min":0,"x_max":0,"o":""},"겒":{"ha":-212,"x_min":0,"x_max":0,"o":"m 408 391 z m 18 890 l -475 996 l -631 1162 b -389 NaN -570 1275 -492 1345 l -218 NaN l -218 NaN l -15 NaN l -15 NaN l -218 NaN l -218 NaN l -313 NaN b -290 NaN -298 NaN -290 NaN l -762 NaN l -762 NaN l -520 NaN b -845 NaN -543 NaN -629 NaN "},"겓":{"ha":0,"x_min":0,"x_max":0,"o":"m 1133 64 l 463 64 l 463 178 l 1123 178 l 1123 346 l 244 346 l 244 -111 l 1133 -111 l 23 -111 l 23 530 l -212 530 l -212 734 l 483 734 l 483 530 l 194 530 l 194 438 b 221 669 212 507 220 584 l -262 669 l -262 492 l -9 492 b -335 161 -35 345 -127 240 "},"겔":{"ha":-1089,"x_min":0,"x_max":0,"o":"l -618 0 l -618 206 m -404 -522 z "},"겕":{"ha":-1089,"x_min":0,"x_max":0,"o":"l -635 0 l -635 206 m -137 233 l -15 233 l -15 42 l 189 42 l 189 651 l 338 651 l 338 -77 l 563 -77 l 563 -473 l 780 -473 l 780 96 l 338 96 z "},"겖":{"ha":0,"x_min":0,"x_max":0,"o":""},"겗":{"ha":-836,"x_min":0,"x_max":0,"o":"m 685 -388 l 685 -104 l 494 -104 l 494 99 l 1103 99 l 1103 250 l 770 250 l 770 369 l 831 369 l 831 250 z m 818 689 z "},"겘":{"ha":-1089,"x_min":0,"x_max":0,"o":"l -636 0 l -636 206 m -486 -129 l -362 -129 l -362 -317 l -159 -317 l -159 289 l 61 289 l 61 250 l -157 250 l -157 -104 l -79 -104 z "},"겙":{"ha":-1100,"x_min":0,"x_max":0,"o":"m 732 45 l 1461 45 l 1461 -146 l 1664 -146 l 1664 463 l 1815 463 l 1815 137 z "},"겚":{"ha":0,"x_min":0,"x_max":0,"o":""},"겛":{"ha":149,"x_min":0,"x_max":0,"o":"l -621 0 l -621 206 m -1710 327 l -1610 167 b -1261 392 -1448 220 -1334 293 l -1090 392 l -1090 209 l -887 209 l -887 806 l -1090 806 l -1090 560 l -1182 560 b -1158 761 -1166 620 -1158 687 l -1637 761 l -1637 591 l -1392 591 b -1710 327 -1416 472 -1504 385 z m -1265 117 l -1605 117 l -1605 661 l -1453 661 l -1453 490 l -1615 490 "},"겜":{"ha":0,"x_min":0,"x_max":0,"o":"l -228 0 l -228 203 l 460 203 l 460 0 l 171 0 l 171 -92 b 198 138 189 -23 197 54 m -137 -1017 "},"겝":{"ha":872,"x_min":0,"x_max":0,"o":"m 572 1039 l 100 1039 l 100 868 l 343 868 b 18 570 321 736 237 639 l 123 411 b 473 651 289 471 401 548 l 644 651 l 644 441 l 848 441 l 848 1096 l 644 1096 l 644 825 l 549 825 b 572 1039 565 888 572 960 z m 241 -118 z m 338 -457 l 338 53 l 122 53 l 122 -43 l -320 -43 l -320 31 l 122 31 l 122 -43 "},"겞":{"ha":346,"x_min":0,"x_max":0,"o":"l -346 286 b 3 526 -180 346 -68 423 l 175 526 l 175 327 l 378 327 l 378 971 l 175 971 l 175 700 l 80 700 b 103 914 96 764 103 835 l -369 914 l -369 743 l -126 743 b -452 445 -149 612 -232 514 m 19 850 "},"겟":{"ha":0,"x_min":0,"x_max":0,"o":"m -803 175 l -692 15 b -338 305 -524 90 -409 184 l -172 305 l -172 106 l 31 106 l 31 781 l -172 781 l -172 477 l -269 477 b -244 705 -252 547 -244 623 l -731 705 l -731 533 l -469 533 b -803 175 -494 374 -591 262 z m -656 -275 l -574 -445 b -157 -229 -369 -417 -233 -336 b 263 -445 -79 -336 58 -417 l 346 -275 b -46 24 43 -237 -47 -91 l -46 54 l -264 54 l -264 24 b -656 -275 -266 -91 -351 -237 z "},"겠":{"ha":-510,"x_min":0,"x_max":0,"o":"m 583 1038 l 92 1038 l 92 864 l 355 864 b 22 530 330 715 235 610 l 127 369 b 484 639 295 437 410 526 l 644 639 l 644 427 l 848 427 l 848 1096 l 644 1096 l 644 811 l 557 811 b 583 1038 575 880 583 955 z m 1417 1415 l 415 1415 z "},"겡":{"ha":0,"x_min":0,"x_max":0,"o":"m 579 1035 l 85 1035 l 85 864 l 353 864 b 11 514 328 709 231 600 l 118 355 b 484 639 293 426 411 519 l 644 639 l 644 416 l 848 416 l 848 1096 l 644 1096 l 644 810 l 554 810 b 579 1035 571 878 579 953 z m 240 122 b 684 -129 240 -35 414 -130 b 1123 122 950 -130 1122 -35 b 684 373 1122 276 950 374 b 240 122 414 374 240 276 z m 457 122 b 684 209 456 183 538 210 b 905 122 827 210 905 183 b 684 31 905 62 827 31 b 457 122 538 31 456 62 z m 907 377 "},"겢":{"ha":0,"x_min":0,"x_max":0,"o":"b -545 -434 -209 203 460 -183 b -376 NaN -526 -532 -446 -553 b NaN NaN -58 NaN -937 NaN "},"겣":{"ha":0,"x_min":0,"x_max":0,"o":"m -780 203 l -670 49 b -321 302 -503 112 -391 194 l -149 302 l -149 134 l 54 134 l 54 747 l -149 747 l -149 475 l -248 475 b -224 696 -232 541 -224 614 l -693 696 l -693 522 l -451 522 b -780 203 -474 382 -560 280 "},"겤":{"ha":0,"x_min":0,"x_max":0,"o":"b 348 263 163 67 276 153 l 517 263 l 517 39 l 720 39 l 720 727 l 517 727 l 517 435 l 424 435 b 452 669 442 505 451 583 m 80 -262 l 100 -430 l 769 -392 l 769 -503 l 986 -503 l 986 -9 l 104 -9 l 104 -178 l 769 -178 l 769 -238 "},"겥":{"ha":0,"x_min":0,"x_max":0,"o":"m -1100 327 l -996 168 b -640 411 -829 227 -713 305 l -476 411 l -476 209 l -273 209 l -273 821 l -476 821 l -476 579 l -566 579 b -544 776 -551 638 -544 703 l -1023 776 l -1023 606 l -777 606 b -1100 327 -802 483 -890 392 z m -213 199 "},"겦":{"ha":-1100,"x_min":0,"x_max":0,"o":"m 1123 380 l 229 380 l 229 210 l 374 210 l 374 58 l 217 58 l 217 -117 l 1142 -117 l 1142 58 l 978 58 l 978 210 l 1123 210 z m 1689 -262 l 1689 58 l 1841 58 l 1841 237 l 1689 237 z m 1828 600 "},"겧":{"ha":286,"x_min":0,"x_max":0,"o":"m 1127 393 l 784 393 l 784 476 l 564 476 l 564 393 l 220 393 l 220 235 l 1127 235 z m 18 574 l 123 418 b 473 667 291 480 404 561 l 644 667 l 644 515 l 848 515 l 848 1096 l 644 1096 l 644 838 l 546 838 b 570 1055 562 903 570 975 l 100 1055 l 100 883 l 343 883 b 18 574 321 745 237 647 z m -517 981 "},"겨":{"ha":0,"x_min":0,"x_max":0,"o":"m 674 991 l 69 991 l 69 822 l 452 822 b 5 240 420 560 284 386 l 118 69 b 629 640 410 214 562 409 l 879 640 l 879 467 l 609 467 l 609 294 l 879 294 l 879 -136 l 571 -136 l 571 -351 b 582 -171 578 -293 582 -233 z "},"격":{"ha":0,"x_min":0,"x_max":0,"o":"m 705 1044 l 114 1044 l 114 869 l 471 869 b 39 540 441 727 304 605 l 119 368 b 650 761 388 437 566 569 l 879 761 l 879 665 l 625 665 l 625 492 l 879 492 l 879 376 l 1096 376 l 1096 1118 l 879 1118 l 879 929 l 697 929 b 705 1044 703 966 705 1004 z m 224 159 l 879 159 l 879 -130 l 1096 -130 l 1096 327 l 224 327 z "},"겪":{"ha":-526,"x_min":0,"x_max":0,"o":"m 703 1051 l 114 1051 l 114 880 l 469 880 b 42 556 439 740 302 618 l 123 388 b 650 777 389 456 567 587 l 879 777 l 879 680 l 628 680 l 628 507 l 879 507 l 879 406 l 712 406 l 712 223 b 718 323 716 256 718 289 z "},"겫":{"ha":0,"x_min":0,"x_max":0,"o":"m 1004 289 b 823 31 1003 176 959 80 l 823 355 l 393 355 l 393 183 l 610 183 l 610 -127 l 823 -127 l 823 5 z m -138 272 l -57 104 b 469 493 209 172 387 303 l 699 493 l 699 395 l 448 395 l 448 223 l 699 223 l 699 128 l 916 128 l 916 833 l 699 833 l 699 667 l 516 667 b 522 767 520 699 522 732 l -66 767 l -66 596 l 289 596 b -138 272 258 456 122 334 z "},"견":{"ha":0,"x_min":0,"x_max":0,"o":"l -231 0 l -231 -180 b -218 -41 -222 -136 -218 -90 l -817 -41 l -817 -213 l -455 -213 b -886 -578 -490 -371 -637 -501 l -798 -746 b -286 -353 -549 -674 -374 -538 l -50 -353 l -50 -460 l -304 -460 l -304 -632 l -50 -632 l -50 -867 l 165 -867 "},"겭":{"ha":0,"x_min":0,"x_max":0,"o":"b -202 179 -123 35 -183 102 l -41 179 l -41 350 l -586 350 l -586 179 l -420 179 b -604 7 -438 107 -492 43 l -639 98 b -802 42 -683 71 -741 52 l -1133 42 l -1133 528 l -1249 528 l -1249 745 l -552 745 l -552 528 l -699 528 l -699 327 b -694 407 -696 353 -694 380 "},"겮":{"ha":-210,"x_min":0,"x_max":0,"o":"m 388 399 z m 37 948 l -464 1024 l -635 1301 b -273 NaN -574 1472 -458 1548 l -30 NaN l -30 NaN l -285 NaN l -285 NaN l -30 NaN l -30 NaN l 187 NaN l 187 NaN l -30 NaN l -30 NaN l -232 NaN b -458 NaN -229 NaN -353 NaN b NaN NaN -512 NaN NaN NaN "},"겯":{"ha":0,"x_min":0,"x_max":0,"o":"m 688 1051 l 100 1051 l 100 880 l 454 880 b 33 556 422 739 288 622 l 115 388 b 640 789 382 457 559 593 l 879 789 l 879 685 l 624 685 l 624 514 l 879 514 l 879 425 l 1096 425 l 1096 1118 l 879 1118 l 879 960 l 682 960 b 688 1051 686 989 688 1020 z m 256 -123 l 1124 -123 l 1124 50 l 469 50 l 469 205 l 1099 205 l 1099 376 l 256 376 z "},"결":{"ha":0,"x_min":0,"x_max":0,"o":"l -142 0 l -142 -203 b -356 -603 -138 -226 -258 -333 b NaN NaN -404 -531 -579 NaN l NaN NaN b NaN NaN NaN NaN NaN NaN l NaN NaN l NaN NaN l NaN NaN l NaN NaN l NaN NaN l NaN NaN l NaN NaN "},"겱":{"ha":0,"x_min":0,"x_max":0,"o":""},"겲":{"ha":-88,"x_min":0,"x_max":0,"o":"m 491 -560 l 708 -560 l 708 79 l 199 79 l 199 -723 l 633 -723 l 633 -163 l 199 -163 z m 385 -566 l 385 -321 l 446 -321 l 446 -566 z "},"겳":{"ha":246,"x_min":0,"x_max":0,"o":"l 1096 0 l 1096 -564 l 924 -564 l 924 -239 b 519 -511 900 -357 793 -460 l 595 -686 b 1116 -331 870 -626 1040 -513 m 1608 -891 l 1608 -974 l 1353 -974 l 1353 -1137 l 1608 -1137 l 1608 -1221 l 1400 -1221 l 1400 -788 l 1970 -788 l 1970 -977 l 1845 -977 l 1845 -1035 l 1970 -1035 l 1970 -916 l 2028 -916 l 2028 -1035 z "},"겴":{"ha":0,"x_min":0,"x_max":0,"o":""},"겵":{"ha":0,"x_min":0,"x_max":0,"o":""},"겶":{"ha":0,"x_min":0,"x_max":0,"o":"m -1073 358 l -997 186 b -476 545 -721 248 -551 361 l -231 545 l -231 457 l -14 457 l -14 1096 l -231 1096 l -231 954 l -435 954 b -430 1055 -432 986 -430 1020 l -994 1055 l -994 883 l -669 883 b -1073 604 -692 761 -799 658 z m -939 254 l -724 254 l -724 213 l -937 213 l -937 -148 l -861 -148 b -488 -127 -684 -148 -596 -146 l -510 35 b -728 19 -579 24 -640 20 l -728 61 l -514 61 l -514 412 l -939 412 z m -252 22 l -252 245 l -213 245 l -213 22 z "},"겷":{"ha":0,"x_min":0,"x_max":0,"o":"l -138 0 l -138 -203 b -132 -100 -134 -170 -132 -136 l -699 -100 l -699 -272 l -374 -272 b -774 -535 -397 -386 -505 -487 l -702 -707 b -180 -363 -429 -652 -258 -543 l 64 -363 l 64 -446 l -191 -446 l -191 -606 l 64 -606 l 64 -676 l 281 -676 "},"겸":{"ha":0,"x_min":0,"x_max":0,"o":"m 682 1051 l 564 1051 l 564 1268 l 1263 1268 l 1263 1051 l 1116 1051 l 1116 850 b 1120 930 1119 876 1120 903 z m 692 -241 l 1534 -241 l 1534 254 l 692 254 z m 906 -73 l 906 84 l 1318 84 l 1318 -73 z "},"겹":{"ha":0,"x_min":0,"x_max":0,"o":"m 690 1054 l 104 1054 l 104 883 l 454 883 b 39 572 429 748 313 635 l 118 403 b 647 796 398 472 572 601 l 879 796 l 879 709 l 633 709 l 633 533 l 879 533 l 879 439 l 727 439 l 727 247 b 731 332 730 275 731 303 "},"겺":{"ha":0,"x_min":0,"x_max":0,"o":"m -330 289 l -251 119 b 278 513 29 189 203 317 l 510 513 l 510 427 l 264 427 l 264 254 l 510 254 l 510 155 l 727 155 l 727 837 l 510 837 l 510 685 l 317 685 b 321 770 320 713 321 741 l -264 770 l -264 600 l 85 600 b -330 289 60 465 -56 352 z m 0 -244 l 0 -157 l 75 -157 l 75 -244 z "},"겻":{"ha":235,"x_min":0,"x_max":0,"o":"l -190 0 l -190 -199 b -186 -102 -187 -168 -186 -136 l -761 -102 l -761 -273 l -420 -273 b -829 -624 -445 -428 -558 -547 l -738 -792 b -226 -370 -456 -709 -294 -571 m -428 -623 l -519 -869 l -692 -623 l -610 -793 b -204 -571 -411 -761 -279 -679 b 201 -789 -130 -679 1 -760 l 286 -621 b -94 -312 -7 -581 -96 -433 l -94 -285 l -311 -285 l -311 -312 b -692 -623 -311 -433 -398 -579 z "},"겼":{"ha":-612,"x_min":0,"x_max":0,"o":"m 689 1051 l 99 1051 l 99 880 l 454 880 b 34 553 422 739 288 618 l 115 385 b 642 791 386 456 564 593 l 879 791 l 879 703 l 629 703 l 629 528 l 879 528 l 879 426 l 724 426 l 724 231 b 729 319 728 260 729 289 z "},"경":{"ha":0,"x_min":0,"x_max":0,"o":"l -180 0 l -180 -195 b -175 -94 -177 -163 -175 -129 l -760 -94 l -760 -266 l -412 -266 b -829 -593 -438 -409 -552 -526 l -745 -764 b -220 -365 -465 -691 -296 -560 l 15 -365 l 15 -452 l -232 -452 l -232 -624 l 15 -624 l 15 -718 l 232 -718 m -624 -997 b -191 -1261 -625 -1158 -448 -1262 b 243 -997 64 -1262 242 -1158 b -191 -734 242 -837 64 -734 b -624 -997 -448 -734 -625 -837 z m -407 -997 b -191 -902 -407 -930 -330 -901 b 24 -997 -54 -901 24 -930 b -191 -1090 24 -1063 -54 -1091 b -407 -997 -330 -1091 -407 -1063 z "},"겾":{"ha":-913,"x_min":0,"x_max":0,"o":"l -146 0 l -146 -201 b -142 -121 -144 -175 -142 -148 l -245 -121 l -245 96 "},"겿":{"ha":0,"x_min":0,"x_max":0,"o":"m 1107 359 l 768 359 l 768 469 l 544 469 l 544 359 l 201 359 l 201 202 l 534 202 b 153 33 505 131 402 51 l 221 -129 b 655 47 439 -112 579 -45 b 273 217 409 68 304 149 l 602 217 z m -471 598 l -392 425 b 127 822 -111 502 55 629 l 374 822 l 374 735 l 119 735 l 119 572 l 374 572 l 374 438 l 591 438 l 591 1133 l 374 1133 l 374 987 l 166 987 b 172 1095 170 1021 172 1057 l -389 1095 l -389 922 l -64 922 b -471 598 -87 779 -195 665 z "},"곀":{"ha":0,"x_min":0,"x_max":0,"o":"l -1065 0 l -1065 686 l -1176 686 l -1176 540 l -1377 540 b -1373 620 -1374 566 -1373 593 "},"곁":{"ha":0,"x_min":0,"x_max":0,"o":"m -1062 332 l -983 164 b -459 544 -707 227 -534 351 l -222 544 l -222 458 l -477 458 l -477 294 l -222 294 l -222 205 l -5 205 l -5 852 l -222 852 l -222 708 l -420 708 b -415 803 -416 739 -415 770 l -1000 803 l -1000 632 l -650 632 b -1062 332 -675 500 -791 390 z "},"곂":{"ha":-890,"x_min":0,"x_max":0,"o":"l -146 0 l -146 -197 b -142 -117 -144 -171 -142 -144 l -728 -117 l -728 -288 l -380 -288 b -793 -579 -411 -413 -543 -524 l -715 -749 b -190 -368 -452 -686 -271 -559 l 50 -368 l 50 -461 l -201 -461 l -201 -635 l 50 -635 l 50 -716 l 267 -716 "},"곃":{"ha":-887,"x_min":0,"x_max":0,"o":"l -136 0 l -136 -201 b -131 -106 -132 -171 -131 -140 l -698 -106 l -698 -276 l -372 -276 b -777 -557 -394 -397 -500 -501 l -701 -730 b -175 -364 -422 -670 -250 -553 l 66 -364 l 66 -441 l -189 -441 l -189 -603 l 66 -603 l 66 -722 l 283 -722 "},"계":{"ha":0,"x_min":0,"x_max":0,"o":"l 1123 0 l 1123 -203 l -132 -203 l -132 0 m -1256 406 l -1131 254 b -720 760 -899 391 -776 557 l -602 760 l -602 624 l -745 624 l -745 449 l -602 449 l -602 50 l -399 50 l -399 1229 l -602 1229 l -602 935 l -687 935 b -678 1111 -681 991 -678 1050 l -1173 1111 l -1173 939 l -893 939 b -1256 406 -917 705 -1015 549 z "},"곅":{"ha":0,"x_min":0,"x_max":0,"o":"m NaN 648 l NaN 490 b NaN 898 NaN 585 NaN 716 l NaN 898 l NaN 727 l NaN 727 b NaN 381 NaN 574 NaN 467 "},"곆":{"ha":0,"x_min":0,"x_max":0,"o":"m 579 1031 l 96 1031 l 96 860 l 350 860 b 24 514 326 707 234 600 l 127 355 b 542 764 355 451 484 582 "},"곇":{"ha":0,"x_min":0,"x_max":0,"o":"m NaN 500 l NaN 347 b NaN 724 NaN 433 NaN 553 l NaN 724 l NaN 636 l NaN 636 l NaN 465 l NaN 465 l NaN 372 l NaN 372 l NaN 1051 l NaN 1051 l NaN 892 l NaN 892 l NaN 410 l NaN 410 l NaN 663 b NaN 338 NaN 519 NaN 418 "},"곈":{"ha":0,"x_min":0,"x_max":0,"o":"l -928 0 l -928 206 m -2035 498 l -1926 340 b -1518 720 -1710 430 -1581 553 l -1394 720 l -1394 613 l -1548 613 l -1548 444 l -1394 444 l -1394 239 l -1194 239 l -1194 1114 l -1394 1114 l -1394 892 l -1478 892 b -1470 1021 -1472 933 -1470 977 l -1949 1021 l -1949 850 l -1699 850 b -2035 498 -1724 696 -1820 585 "},"곉":{"ha":0,"x_min":0,"x_max":0,"o":"m 377 346 b -28 -3 167 -103 39 -68 b NaN NaN -48 62 NaN NaN l NaN NaN l NaN NaN l NaN NaN l NaN NaN l NaN NaN b NaN NaN NaN NaN NaN NaN l NaN NaN b NaN NaN NaN NaN NaN NaN z m NaN NaN l NaN NaN b NaN NaN NaN NaN NaN NaN l NaN NaN l NaN NaN l NaN NaN l NaN NaN l NaN NaN l NaN NaN l NaN NaN l NaN NaN l NaN NaN l NaN NaN l NaN NaN b NaN NaN NaN NaN NaN NaN l NaN NaN l NaN NaN l NaN NaN b NaN NaN NaN NaN NaN NaN z m NaN NaN "},"곊":{"ha":-212,"x_min":0,"x_max":0,"o":"m 408 395 z m 20 917 l -476 1019 l -633 1243 b -271 NaN -554 1375 -440 1433 l -161 NaN l -161 NaN l -291 NaN l -291 NaN l -161 NaN l -161 NaN l 40 NaN l 40 NaN l -161 NaN l -161 NaN l 81 NaN b -238 NaN 57 NaN -30 NaN z m 307 NaN l 912 NaN l 912 NaN l 717 NaN l 717 NaN z m 771 NaN b 1018 NaN 771 NaN 873 NaN b 1266 NaN 1161 NaN 1266 NaN b 1018 NaN 1266 NaN 1161 NaN b 771 NaN 873 NaN 771 NaN z m 961 NaN b 1018 NaN 961 NaN 986 NaN b 1072 NaN 1047 NaN 1072 NaN b 1018 NaN 1072 NaN 1047 NaN b 961 NaN 986 NaN 961 NaN "},"곋":{"ha":0,"x_min":0,"x_max":0,"o":"m NaN -1164 l NaN -1164 l NaN -990 l NaN -990 l NaN -865 l NaN -865 l NaN -694 l NaN -694 z m NaN -648 "},"곌":{"ha":111,"x_min":0,"x_max":0,"o":"l -617 0 l -617 206 m -1710 311 l -1606 153 b -1195 507 -1384 229 -1253 340 z m -977 -220 z "},"곍":{"ha":0,"x_min":0,"x_max":0,"o":""},"곎":{"ha":0,"x_min":0,"x_max":0,"o":""},"곏":{"ha":-840,"x_min":0,"x_max":0,"o":"m 685 -388 l 685 -90 l 840 -90 l 840 -437 l 959 -437 l 959 -376 l 840 -376 "},"곐":{"ha":-990,"x_min":0,"x_max":0,"o":"m 887 -138 l 1169 -138 l 1169 68 l 1805 68 l 1805 -138 z "},"곑":{"ha":-1093,"x_min":0,"x_max":0,"o":"l -636 0 l -636 206 m -140 -355 l -1 -355 l -1 -201 l -342 -201 l -342 252 l -175 252 z "},"곒":{"ha":0,"x_min":0,"x_max":0,"o":""},"곓":{"ha":152,"x_min":0,"x_max":0,"o":"m 1162 378 l 991 378 l 991 460 l 781 460 l 781 378 l 618 378 l 618 227 l 1162 227 z m 22 624 l 125 465 b 538 821 349 541 480 652 l 647 821 l 647 742 l 517 742 l 517 583 l 647 583 l 647 507 l 848 507 l 848 1103 l 647 1103 l 647 981 l 570 981 b 572 1058 572 1006 572 1031 l 98 1058 l 98 890 l 340 890 b 22 624 315 772 227 686 z m 94 1088 l -252 1088 l -252 1561 l -654 1561 l -654 1767 l -35 1767 l -35 1561 z "},"곔":{"ha":869,"x_min":0,"x_max":0,"o":"m NaN -1154 z m NaN -818 "},"곕":{"ha":-103,"x_min":0,"x_max":0,"o":"m -328 -1156 z m -239 -1478 l -239 -1278 l 423 -1278 l 423 -406 l 921 -406 l 921 -621 l 831 -621 l 831 -1063 l 901 -1063 l 901 -621 l 831 -621 "},"곖":{"ha":-91,"x_min":0,"x_max":0,"o":"m -404 -1162 l -203 -1162 l -203 -513 l 267 -513 l 267 -413 l 340 -521 b 530 -350 430 -485 491 -425 b 728 -521 568 -427 631 -487 l 834 -359 b 642 -73 688 -309 641 -203 l 642 5 l 427 5 l 427 -73 b 267 -341 427 -178 383 -277 l 267 -3 l 68 -3 l 68 -106 l -5 -106 l -5 -3 l -203 -3 z m 267 397 "},"곗":{"ha":0,"x_min":0,"x_max":0,"o":"l -826 0 l -826 206 m -1929 400 l -1815 241 b -1407 665 -1591 342 -1464 479 l -1295 665 l -1295 581 l -1420 581 l -1420 408 l -1295 408 l -1295 317 l -1092 317 l -1092 1010 l -1295 1010 l -1295 831 l -1375 831 b -1370 937 -1372 865 -1370 901 l -1854 937 l -1854 762 l -1597 762 b -1929 400 -1623 602 -1718 490 z m -1780 -47 l -1701 -214 b -1280 -5 -1493 -189 -1356 -111 b -856 -214 -1202 -111 -1064 -189 l -777 -47 b -1169 241 -1084 -9 -1170 129 l -1169 269 l -1388 269 l -1388 241 b -1780 -47 -1389 129 -1474 -9 z "},"곘":{"ha":0,"x_min":0,"x_max":0,"o":"m 509 335 b 800 287 617 178 728 217 b 846 581 843 399 804 511 b 923 741 923 623 1015 666 b 970 NaN 852 859 813 962 l NaN NaN b NaN NaN NaN NaN NaN NaN l NaN NaN l NaN NaN l NaN NaN b NaN NaN NaN NaN NaN NaN b NaN NaN NaN NaN NaN NaN l NaN NaN b NaN NaN NaN NaN NaN NaN l NaN NaN l NaN NaN l NaN NaN l NaN NaN l NaN NaN l NaN NaN l NaN NaN l NaN NaN l NaN NaN l NaN NaN l NaN NaN b NaN NaN NaN NaN NaN NaN l NaN NaN l NaN NaN l NaN NaN b NaN NaN NaN NaN NaN NaN "},"곙":{"ha":0,"x_min":0,"x_max":0,"o":"m 684 351 b 240 110 414 352 240 260 b 684 -137 240 -45 414 -137 b 1123 110 950 -137 1122 -45 b 684 351 1122 260 950 352 z m 24 525 l 130 370 b 541 770 354 465 482 593 l 647 770 l 647 670 l 517 670 l 517 498 l 647 498 l 647 396 l 848 396 l 848 1096 l 647 1096 l 647 940 l 574 940 b 579 1040 578 972 579 1006 l 96 1040 l 96 868 l 349 868 b 24 525 324 718 233 610 z m 457 110 b 684 191 456 166 534 192 b 905 110 827 192 905 166 b 684 20 905 48 827 20 b 457 110 534 20 456 48 z m 907 365 z "},"곚":{"ha":-1103,"x_min":0,"x_max":0,"o":"m 1127 372 b NaN NaN 248 202 319 41 l NaN NaN b NaN NaN NaN NaN NaN NaN b NaN NaN NaN NaN NaN NaN l NaN NaN b NaN NaN NaN NaN NaN NaN l NaN NaN z m NaN NaN "},"곛":{"ha":0,"x_min":0,"x_max":0,"o":"m 793 431 l 575 431 l 575 338 l 248 338 l 248 170 l 551 170 b 194 30 513 107 413 47 b -159 170 -16 50 -119 110 l 142 170 l 142 338 l -191 338 z m -971 555 l -861 399 b -452 781 -635 487 -509 607 l -338 781 l -338 704 l -461 704 l -461 540 l -338 540 l -338 469 l -137 469 l -137 1096 l -338 1096 l -338 941 l -420 941 b -415 1043 -417 974 -415 1008 l -884 1043 l -884 871 l -642 871 b -971 555 -666 731 -752 631 z m -77 400 z "},"곜":{"ha":0,"x_min":0,"x_max":0,"o":""},"곝":{"ha":0,"x_min":0,"x_max":0,"o":"m 1120 422 l 254 422 l 254 -129 l 1141 -129 l 1141 31 l 471 31 l 471 73 l 1104 73 l 1104 224 l 471 224 l 471 260 l 1120 260 z m 15 586 l 123 429 b 531 787 347 508 473 621 l 647 787 l 647 711 l 524 711 l 524 545 l 647 545 l 647 465 l 848 465 l 848 1096 l 647 1096 l 647 947 l 564 947 l 564 477 l 391 477 l 391 719 b 64 429 366 591 278 498 "},"곞":{"ha":-1099,"x_min":0,"x_max":0,"o":"m 1123 358 l 229 358 l 229 189 l 374 189 l 374 58 l 217 58 l 217 -117 l 1142 -117 l 1142 58 l 978 58 l 978 189 l 1123 189 z m 1687 -289 l 1687 58 l 1817 58 l 1817 237 l 1687 237 "},"곟":{"ha":289,"x_min":0,"x_max":0,"o":"m 1127 396 l 784 396 l 784 472 l 564 472 l 564 396 l 220 396 l 220 235 l 1127 235 z m 15 582 l 123 429 b 533 798 349 510 476 626 l 647 798 l 647 728 l 524 728 l 524 563 l 647 563 l 647 507 l 848 507 l 848 1096 l 647 1096 l 647 959 l 565 959 b 570 1055 568 989 570 1022 l 100 1055 l 100 883 l 342 883 b 15 582 319 751 232 655 z m -528 994 "},"고":{"ha":0,"x_min":0,"x_max":0,"o":"m 1080 1023 l 144 1023 l 144 852 l 860 852 b 807 315 859 710 854 539 l 1027 294 b 1080 907 1079 570 1079 749 z m 28 4 l 1173 4 l 1173 179 l 629 179 l 629 598 l 414 598 l 414 179 l 28 179 z "},"곡":{"ha":0,"x_min":0,"x_max":0,"o":"m 1169 557 l 646 557 l 646 779 l 430 779 l 430 557 l 33 557 l 33 385 l 1169 385 z m 145 127 l 804 127 l 804 -134 l 1023 -134 l 1023 300 l 145 300 z m 156 892 l 821 892 b 791 627 819 819 812 734 l 1009 608 b 1039 975 1039 762 1039 884 l 1039 1061 l 156 1061 z "},"곢":{"ha":-1029,"x_min":0,"x_max":0,"o":"m 1169 556 l 646 556 l 646 779 l 430 779 l 430 556 l 33 556 l 33 384 l 1169 384 z m 1185 972 l 935 972 l 935 1637 b 905 1374 932 1565 926 1480 l 1123 1354 b 1153 1718 1153 1506 1153 1629 l 1153 1805 l 270 1805 "},"곣":{"ha":-1069,"x_min":0,"x_max":0,"o":"m 1173 572 l 646 572 l 646 779 l 430 779 l 430 572 l 28 572 l 28 397 l 1173 397 z m 1225 966 l 982 966 l 982 1630 b 952 1374 980 1560 973 1477 l 1171 1355 b 1200 1714 1200 1504 1200 1624 l 1200 1799 l 317 1799 z "},"곤":{"ha":0,"x_min":0,"x_max":0,"o":"m 1039 1053 l 156 1053 l 156 884 l 821 884 b 788 617 819 809 812 726 l 1005 594 b 1039 963 1039 745 1039 867 z m 33 365 l 1169 365 l 1169 538 l 646 538 l 646 758 l 430 758 l 430 538 l 33 538 "},"곥":{"ha":0,"x_min":0,"x_max":0,"o":"m 345 326 b -38 -20 136 -110 24 -77 b NaN NaN -57 42 NaN NaN l NaN NaN l NaN NaN l NaN NaN l NaN NaN l NaN NaN b NaN NaN NaN NaN NaN NaN l NaN NaN b NaN NaN NaN NaN NaN NaN z m NaN NaN l NaN NaN l NaN NaN l NaN NaN l NaN NaN l NaN NaN l NaN NaN l NaN NaN "},"곦":{"ha":0,"x_min":0,"x_max":0,"o":"m -313 394 l 826 394 l 826 568 l 301 568 l 301 759 l 85 759 l 85 568 l -313 568 z m -189 846 l 475 846 b 448 622 473 786 466 713 l 661 602 b 694 942 694 751 694 867 l 694 1015 l -189 1015 "},"곧":{"ha":0,"x_min":0,"x_max":0,"o":"m 1039 1067 l 156 1067 l 156 898 l 821 898 b 791 652 820 825 814 750 l 1005 628 b 1039 966 1039 760 1039 869 l 33 966 l 33 422 l -491 422 l -491 613 l -707 613 l -707 422 l -1104 422 z m -981 -296 l -87 -296 l -87 -123 l -762 -123 l -762 3 l -103 3 l -103 172 l -981 172 z "},"골":{"ha":0,"x_min":0,"x_max":0,"o":"m 1039 1076 l 156 1076 l 156 906 l 820 906 b 803 722 818 854 814 794 l 1020 704 b 1039 1005 1039 831 1039 934 "},"곩":{"ha":0,"x_min":0,"x_max":0,"o":"m 570 404 l 570 -30 l 419 -30 "},"곪":{"ha":0,"x_min":0,"x_max":0,"o":"l 178 0 l 178 -216 l 0 -216 l 0 -613 "},"곫":{"ha":-772,"x_min":0,"x_max":0,"o":"m 804 422 l 623 422 l 623 -129 l 1043 -129 l 1043 422 l 859 422 l 859 293 l 804 293 z m 982 -476 l 982 -431 l 1191 -431 l 1191 -91 l 770 -91 l 770 -247 l 977 -247 l 977 -285 l 770 -285 z m 785 399 l 1450 399 b 1427 202 1448 342 1442 279 l 1641 178 b 1670 481 1670 300 1670 405 l 1670 566 l 785 566 z m 1434 -471 l 1434 -373 l 1488 -373 l 1488 -471 z "},"곬":{"ha":0,"x_min":0,"x_max":0,"o":"m 944 304 l 944 427 l 742 427 l 742 304 l 1082 304 l 1082 -117 l 926 -117 l 926 90 l 888 90 l 888 -117 l 540 -117 l 540 -38 l -372 -38 l -372 129 l -895 129 l -895 308 l -1111 308 l -1111 129 l -1508 129 z m -1385 395 l -720 395 b -743 194 -722 338 -728 273 l -526 171 b -502 476 -502 292 -502 400 l -502 562 l -1385 562 z "},"곭":{"ha":0,"x_min":0,"x_max":0,"o":"m 1058 31 l 826 31 l 826 71 l 1031 71 l 1031 220 l 826 220 l 826 258 l 1039 258 l 1039 420 l 616 420 l 616 -129 l 1058 -129 l 33 -129 l 33 481 l -491 481 l -491 650 l -707 650 l -707 481 l -1104 481 z m -996 -301 l -996 -251 l -787 -251 l -787 91 l -1207 91 l -1207 -65 l -1001 -65 l -1001 -106 l -1207 -106 z m -1192 574 l -528 574 b -552 385 -530 519 -536 459 l -336 365 b -308 659 -308 479 -308 584 l -308 741 l -1192 741 z "},"곮":{"ha":217,"x_min":0,"x_max":0,"o":"m 15 681 l -755 681 l -755 1345 b -779 1149 -758 1288 -763 1224 l -564 1123 b -536 1431 -536 1247 -536 1351 l -536 1512 l -1420 1512 "},"곯":{"ha":100,"x_min":0,"x_max":0,"o":"m 1126 377 l 956 377 l 956 208 l 802 208 l 802 755 z m -292 1024 l 845 1024 l 845 1192 l 321 1192 l 321 1367 l 106 1367 l 106 1192 l -292 1192 z m -269 1676 l -658 1676 l -658 2341 b -681 2153 -660 2286 -666 2226 l -467 2128 b -438 2428 -438 2247 -438 2352 l -438 2509 l -1322 2509 z m -859 1462 b -628 1293 -859 1359 -764 1293 b -395 1462 -491 1293 -395 1359 b -628 1634 -395 1567 -491 1634 b -859 1462 -764 1634 -859 1567 z m -677 1462 b -628 1495 -677 1487 -652 1495 b -579 1462 -599 1495 -580 1487 b -628 1432 -580 1440 -599 1431 b -677 1462 -652 1431 -677 1440 z "},"곰":{"ha":123,"x_min":0,"x_max":0,"o":"l 549 0 l 549 -524 l 747 -524 l 747 -739 l 549 -739 l 549 -1137 m 764 -2158 l 764 -1850 l 892 -1850 l 892 -1402 l 764 -1402 z "},"곱":{"ha":882,"x_min":0,"x_max":0,"o":"m 1039 1080 l 156 1080 l 156 909 l 820 909 b 792 675 817 845 810 768 l 1005 656 b 1039 1008 1039 808 1039 926 z m 31 437 l 1171 437 l 1171 608 l 646 608 l 646 803 l 430 803 l 430 608 l 31 608 z m 157 -123 z m 254 -456 l 254 50 l 37 50 l 37 -46 l -411 -46 l -411 27 l 37 27 l 37 -46 z "}}}
